<svg width="64" height="64" viewBox="0 0 64 64" fill="none" xmlns="http://www.w3.org/2000/svg">
<rect width="64" height="64" fill="#445176"/>
<path fill-rule="evenodd" clip-rule="evenodd" d="M31.836 23.2909C40.8472 23.337 50.8901 29.8125 50.885 33.2109C50.8786 38.1581 45.3426 38.4717 32.7167 37.8983C21.7548 37.4016 19.7055 38.6637 19.653 42.1607C19.6056 45.3607 27.2306 48.7821 37.3234 48.6349C34.574 49.3901 31.7093 49.6141 28.8165 48.9626C23.8296 47.8387 18.2437 44.3955 18.2028 41.6026C18.1132 35.6915 27.7567 35.0746 32.8293 35.2666C38.9925 35.497 48.2661 35.8119 48.4197 32.7578C48.6412 28.4237 37.39 24.3584 31.9103 24.3738L31.8335 23.2909H31.836Z" fill="white"/>
<path fill-rule="evenodd" clip-rule="evenodd" d="M23.8041 16.8257C25.2351 15.7223 28.0665 14.729 32.2047 14.7201C41.4182 14.6983 46.0031 18.7828 46.1887 21.5527C46.4191 24.9921 42.3155 26.1761 32.5055 25.6103C22.4063 25.0292 16.0063 25.6103 15.9551 28.5415C15.9001 31.7761 28.5311 39.5853 37.7369 39.5853C44.0729 39.5853 47.598 38.3617 49.5039 37.4042C49.1916 38.3258 48.7999 39.2141 48.3366 40.0564C45.751 40.5556 42.2719 41.1188 37.687 40.9217C30.1478 40.5978 14.6982 33.8305 14.6982 28.5402C14.6982 23.2487 26.9734 22.5805 32.3558 22.5805C37.7382 22.5805 44.3276 23.7633 44.0255 20.5261C43.7235 17.2903 37.838 16.2125 34.2668 15.9028C30.6956 15.5956 26.7225 16.1588 23.8054 16.8269" fill="white"/>
<path fill-rule="evenodd" clip-rule="evenodd" d="M18.2706 21.3414C19.2024 20.2509 19.8271 19.575 21.0955 18.6099C22.5112 17.9635 26.3589 16.8922 32.5183 16.9229C41.9391 16.9677 48.7935 21.705 48.8447 24.8973C48.9087 29.0086 43.845 30.3846 32.5797 29.7907C22.0299 29.2339 16.4389 29.9315 16.3851 33.0099C16.3288 36.4147 27.9563 43.4035 37.5691 43.168C42.2347 43.0528 45.2325 42.4256 47.301 41.7126C46.7147 42.5395 46.0543 43.3126 45.3336 44.0294C43.1448 44.4006 40.572 44.695 37.7202 44.5722C29.8443 44.2304 14.7314 38.0186 14.7314 32.4531C14.7314 26.8851 27.1474 27.1066 32.764 27.2973C38.9298 27.5059 46.4344 27.3613 46.4498 24.3021C46.4664 20.3853 36.4402 18.1965 32.3224 18.2118C25.7522 18.2374 22.4024 19.4432 18.2731 21.3389" fill="white"/>
<path fill-rule="evenodd" clip-rule="evenodd" d="M15.904 25.193C16.3136 24.343 16.608 23.7376 17.1456 22.9146C20.8742 21.088 25.4042 20.2291 31.5635 20.2611C40.5747 20.3046 50.2771 25.5987 50.272 28.9984C50.2656 33.9443 45.2749 34.3258 32.6464 33.7536C21.6858 33.2582 17.5258 34.4512 17.4733 37.9482C17.4221 41.353 27.9539 46.3245 37.5654 46.089C39.9782 46.0301 41.9456 45.833 43.5686 45.559C42.5894 46.3053 41.5309 46.9542 40.4122 47.4944C39.5456 47.5328 38.6458 47.5354 37.7165 47.4944C29.8406 47.1539 15.8195 42.9581 15.8195 37.3914C15.8195 31.4778 27.2115 31.072 32.8307 31.2627C38.9952 31.4714 47.7939 31.6032 47.8067 28.5453C47.8259 24.6285 37.1187 21.3286 31.6403 21.344C25.0688 21.3619 19.6928 23.159 15.9027 25.1942" fill="white"/>
</svg>
