<svg viewBox="0 0 122 121" xmlns="http://www.w3.org/2000/svg" xmlns:xlink="http://www.w3.org/1999/xlink"><style>:root&gt;svg{display:none}:root&gt;svg:target{display:block}</style><svg fill="none" viewBox="0 0 40 40" id="advice" xmlns="http://www.w3.org/2000/svg"><path d="M27.031 24.922a.781.781 0 00-.781.781v5.39A3.91 3.91 0 0122.344 35h-8.435a.782.782 0 00-.782.78v1.554l-1.865-1.865a.781.781 0 00-.717-.469H5.47a3.91 3.91 0 01-3.907-3.906V19.062a3.91 3.91 0 013.907-3.906h7.89a.781.781 0 100-1.562H5.47A5.475 5.475 0 000 19.063v12.03a5.475 5.475 0 005.469 5.47h4.676l3.209 3.208a.781.781 0 001.334-.552l.001-2.657h7.655a5.475 5.475 0 005.468-5.468v-5.39a.781.781 0 00-.78-.782z" fill="url(#aapaint0_linear)"/><path d="M28.645 0h-1.977c-6.262 0-11.355 5.094-11.355 11.355S20.405 22.71 26.668 22.71h1.977c.977 0 1.944-.124 2.882-.37l2.92 2.92a.782.782 0 001.334-.553v-4.52a11.462 11.462 0 002.985-3.68A11.233 11.233 0 0040 11.356C40 5.094 34.906 0 28.645 0zm5.885 19.182a.782.782 0 00-.311.625v3.015l-1.912-1.91a.782.782 0 00-.782-.195c-.93.286-1.899.43-2.88.43h-1.977c-5.4 0-9.793-4.392-9.793-9.792 0-5.4 4.393-9.793 9.793-9.793h1.977c5.4 0 9.793 4.393 9.793 9.793a9.72 9.72 0 01-3.908 7.827z" fill="url(#aapaint1_linear)"/><path d="M31.174 8.548a3.315 3.315 0 00-3.066-3.066 3.282 3.282 0 00-2.49.881 3.32 3.32 0 00-1.05 2.418.781.781 0 101.562 0c0-.489.197-.942.555-1.276a1.746 1.746 0 111.574 2.979 1.479 1.479 0 00-1.165 1.45v1.876a.781.781 0 101.562 0v-1.814a3.29 3.29 0 002.518-3.448z" fill="url(#aapaint2_linear)"/><path d="M28.427 16.349a.787.787 0 00-.552-.23.787.787 0 00-.552.23.787.787 0 00-.23.552.786.786 0 001.333.553.789.789 0 00.23-.553.787.787 0 00-.229-.552z" fill="url(#aapaint3_linear)"/><path d="M21.484 24.219H5a.781.781 0 100 1.562h16.484a.781.781 0 100-1.562z" fill="url(#aapaint4_linear)"/><path d="M22.037 28.823a.786.786 0 00-.553-.23.787.787 0 00-.552.23.787.787 0 00-.229.552c0 .206.084.407.229.552a.787.787 0 00.552.23.785.785 0 00.781-.781.787.787 0 00-.228-.553z" fill="url(#aapaint5_linear)"/><path d="M18.412 28.594H5a.781.781 0 100 1.562h13.412a.781.781 0 100-1.562z" fill="url(#aapaint6_linear)"/><path d="M16.406 19.844H5a.781.781 0 100 1.562h11.406a.781.781 0 100-1.562z" fill="url(#aapaint7_linear)"/><defs><linearGradient id="aapaint0_linear" x1="6.547" y1="15.354" x2="11.811" y2="36.733" gradientUnits="userSpaceOnUse"><stop stop-color="#FF9700"/><stop offset=".998" stop-color="#FF6800"/><stop offset="1" stop-color="#FF6802"/></linearGradient><linearGradient id="aapaint1_linear" x1="21.124" y1="1.699" x2="26.592" y2="22.122" gradientUnits="userSpaceOnUse"><stop stop-color="#FF9700"/><stop offset=".998" stop-color="#FF6800"/><stop offset="1" stop-color="#FF6802"/></linearGradient><linearGradient id="aapaint2_linear" x1="26.125" y1="6.081" x2="28.606" y2="13.024" gradientUnits="userSpaceOnUse"><stop stop-color="#FF9700"/><stop offset=".998" stop-color="#FF6800"/><stop offset="1" stop-color="#FF6802"/></linearGradient><linearGradient id="aapaint3_linear" x1="27.462" y1="16.224" x2="27.788" y2="17.481" gradientUnits="userSpaceOnUse"><stop stop-color="#FF9700"/><stop offset=".998" stop-color="#FF6800"/><stop offset="1" stop-color="#FF6802"/></linearGradient><linearGradient id="aapaint4_linear" x1="8.467" y1="24.323" x2="8.497" y2="25.664" gradientUnits="userSpaceOnUse"><stop stop-color="#FF9700"/><stop offset=".998" stop-color="#FF6800"/><stop offset="1" stop-color="#FF6802"/></linearGradient><linearGradient id="aapaint5_linear" x1="21.071" y1="28.698" x2="21.397" y2="29.955" gradientUnits="userSpaceOnUse"><stop stop-color="#FF9700"/><stop offset=".998" stop-color="#FF6800"/><stop offset="1" stop-color="#FF6802"/></linearGradient><linearGradient id="aapaint6_linear" x1="7.744" y1="28.698" x2="7.78" y2="30.039" gradientUnits="userSpaceOnUse"><stop stop-color="#FF9700"/><stop offset=".998" stop-color="#FF6800"/><stop offset="1" stop-color="#FF6802"/></linearGradient><linearGradient id="aapaint7_linear" x1="7.272" y1="19.948" x2="7.314" y2="21.288" gradientUnits="userSpaceOnUse"><stop stop-color="#FF9700"/><stop offset=".998" stop-color="#FF6800"/><stop offset="1" stop-color="#FF6802"/></linearGradient></defs></svg><svg fill="none" viewBox="0 0 10 6" id="arrow" xmlns="http://www.w3.org/2000/svg"><path d="M5.39 5.715l4.45-4.45A.543.543 0 0010 .878a.543.543 0 00-.16-.386L9.513.164a.548.548 0 00-.774 0L5.002 3.9 1.262.16A.543.543 0 00.873 0a.544.544 0 00-.387.16L.16.487A.543.543 0 000 .874c0 .147.057.284.16.387l4.454 4.454c.103.104.241.16.388.16a.544.544 0 00.388-.16z" fill="#333"/></svg><svg fill="none" viewBox="0 0 10 6" id="arrow_orange" xmlns="http://www.w3.org/2000/svg"><path d="M5.39 5.715l4.45-4.45A.543.543 0 0010 .878a.543.543 0 00-.16-.386L9.513.164a.548.548 0 00-.774 0L5.002 3.9 1.262.16A.543.543 0 00.873 0a.544.544 0 00-.387.16L.16.487A.543.543 0 000 .874c0 .147.057.284.16.387l4.454 4.454c.103.104.241.16.388.16a.544.544 0 00.388-.16z" fill="#FF9701"/></svg><svg fill="none" viewBox="0 0 31 14" id="arrow_white" xmlns="http://www.w3.org/2000/svg"><path d="M30.763 6.318L24.57.232a.809.809 0 00-1.134 0 .777.777 0 000 1.115l4.824 4.745H.806A.8.8 0 000 6.885a.8.8 0 00.806.793H28.26l-4.824 4.731a.777.777 0 000 1.116c.157.154.36.232.57.232.21 0 .413-.078.57-.232l6.195-6.092a.783.783 0 00-.007-1.115z" fill="#fff"/></svg><svg fill="none" viewBox="0 0 35 35" id="bar_1" xmlns="http://www.w3.org/2000/svg"><path d="M31.745 0h-1.956l-1.852 2.097h-6.63L19.663 0h-4.414l-1.575 2.027h-6.49L5.157 0H2.804L0 3.32v30.055L1.852 35l1.627-1.31h1.454L6.3 34.965h6.3l1.368-1.24H19.3l1.212 1.223h6.733l1.54-1.241h1.714l2.008 1.24 2.13-1.572V3.32L31.744 0zM2.25 32.449l-.398-.769V3.32l1.385-1.8h.813c.018.14.035.28.052.402.052.297.052.56.07.821.069.594.103 1.154.155 1.748.052.227.052.437.052.664.052.716.052 1.38.052 2.062 0 .384-.07.716-.07 1.083 0 .157.07.227.226.227s.225-.07.225-.227c.052-.716.07-1.468.07-2.184 0-.56-.053-1.136-.07-1.695-.052-.437-.07-.926-.104-1.38L4.552 1.8c-.052-.07-.052-.175-.069-.28H4.5l1.506 1.8h2.752c.052.454.104.874.104 1.328.052.804.052 1.66.052 2.464 0 .472-.07.978-.104 1.45-.069.7-.173 1.398-.38 2.097-.174.734-.485 1.433-.814 2.132a8.426 8.426 0 00-.814 2.201 43.588 43.588 0 00-.588 2.604c-.104.472-.173.979-.26 1.503a28.33 28.33 0 01-.173 1.275c-.052.332-.069.63-.104.962-.069.332-.104.698-.155 1.03-.052.263-.052.525-.07.77-.086.506-.138.855-.173 1.31-.052.28-.052.629-.069.909-.07.541-.104 1.065-.156 1.607 0 .175-.052.332-.052.524 0 .262-.052.542-.052.804-.052.647-.069 1.328-.104 1.975a10.42 10.42 0 00-.069 1.223c0 .332-.017.646-.034.96H2.25zm9.814.926H10.04c0-1.118-.034-2.272-.034-3.372 0-.647.051-1.311.051-1.958 0-.384.052-.75.052-1.135.052-.49.052-.996.07-1.538.052-.56.069-1.083.103-1.608.052-.594.104-1.24.174-1.852.069-.664.173-1.363.38-1.974.052-.105-.069-.262-.173-.297-.104-.053-.225 0-.26.157-.069.332-.155.716-.224 1.048-.07.49-.104.926-.173 1.38-.052.298-.052.56-.07.822-.069.542-.104 1.083-.155 1.608 0 .227-.052.419-.052.646 0 .42-.052.786-.052 1.206 0 .437-.052.89-.052 1.363 0 .332-.052.716-.052 1.048-.052 1.31-.052 2.569-.052 3.897 0 .192.017.384.035.559H6.82l-.918-.926h-.398c.018-.35.035-.717.035-1.066.052-.524.052-1.066.07-1.573.051-.42.051-.769.068-1.17.052-.542.07-1.066.104-1.608.052-.42.07-.856.104-1.276.07-.541.156-1.135.173-1.712.052-.42.07-.769.104-1.17.052-.438.104-.874.156-1.329.069-.42.104-.769.156-1.17.051-.333.103-.7.155-1.032.07-.331.104-.698.173-1.065.07-.525.174-1.031.295-1.538.225-.804.415-1.608.657-2.411.156-.437.33-.874.554-1.329.416-.873.71-1.8.883-2.743.07-.437.156-.909.225-1.345.052-.21.07-.472.07-.7.051-1.065.069-2.149.069-3.215 0-.524-.104-1.083-.052-1.642h5.175l1.385-1.8h1.558c.034.332.051.664.103.996.052.42.07.821.07 1.24.052.595.052 1.206.052 1.8-.052.49-.052.997-.104 1.486-.156 1.206-.33 2.359-.745 3.495-.173.419-.38.873-.553 1.258a10.846 10.846 0 00-.78 2.184 35.625 35.625 0 00-.588 2.516c-.156.56-.225 1.153-.294 1.748-.07.594-.173 1.24-.26 1.852-.069.437-.104.891-.156 1.363-.051.541-.103.996-.155 1.485 0 .315 0 .56-.018.821-.069.542-.104 1.049-.155 1.573 0 .175-.052.332-.052.542-.052.436-.052.873-.07 1.31-.052.647-.069 1.24-.104 1.87-.051.437-.069.926-.069 1.38-.052.647-.052 1.31-.069 1.975v.052h-.433l-1.177.874zm7.962-.926h-3.634v-1.922c0-.385.052-.787.052-1.206.051-.42.051-.874.069-1.258.069-.821.104-1.608.329-2.394.052-.157-.052-.262-.156-.297-.156-.052-.26.052-.294.175-.07.489-.156.978-.225 1.468-.07.436-.07.89-.104 1.362-.052.56-.07 1.084-.07 1.643-.034.821-.034 1.643-.052 2.446h-1.627c0-.524.035-1.066.035-1.555.052-.542.052-.996.07-1.538.051-.419.051-.82.069-1.24.052-.56.069-1.136.103-1.695.052-.42.07-.874.104-1.31.07-.595.156-1.206.173-1.8.052-.297.052-.56.07-.874.069-.385.103-.752.155-1.136.052-.332.07-.664.104-.996.052-.332.07-.646.104-.926l.156-.996c.07-.49.104-.979.225-1.415.173-.874.329-1.713.554-2.57.173-.715.415-1.467.744-2.13.26-.56.537-1.154.744-1.748.26-.717.433-1.416.537-2.185.052-.436.104-.926.156-1.38.052-.384.069-.751.069-1.136.052-.594.052-1.205.052-1.8-.052-.594-.07-1.153-.104-1.747-.035-.227-.07-.49-.104-.734h.848l1.506 1.8h2.822c0 .157.017.315.034.472.052.489.07.978.104 1.468.052.646.104 1.24.173 1.87.07.489.104.995.173 1.485.07.559.156 1.083.26 1.642.07.56.173 1.153.294 1.713.104.594.225 1.153.329 1.712.07.42.156.874.225 1.31l.156 1.136c.052.227.052.49.069.717.07.594.104 1.153.156 1.747v.157c0 .822.052 1.643 0 2.464l-.156 1.695c-.052.42-.07.874-.156 1.258-.069.49-.156.979-.26 1.468-.138.804-.26 1.555-.415 2.376-.07.385-.104.787-.156 1.154-.155.996-.069 2.027-.069 3.023 0 .419.035.786.087 1.188h-3.306l-1.022-.961zm13-.786l-.52.786h-2.683c-.017-.227-.034-.437-.034-.647a66.45 66.45 0 01-.07-3.215c0-.542.052-1.083.07-1.607.052-.56.103-1.136.173-1.695.104-.874.294-1.748.554-2.57.069-.174.155-.418.225-.593.069-.227-.052-.385-.26-.332-.07 0-.156.105-.173.175-.156.436-.294.89-.416 1.363-.155.646-.26 1.258-.38 1.904-.07.385-.07.752-.104 1.136-.052.647-.07 1.258-.104 1.905-.052.751-.052 1.467-.052 2.201 0 .56.052 1.084.07 1.643 0 .105 0 .227.017.332H28.04l-1.212.926h-1.8c-.018-.175-.018-.35-.018-.507a50.168 50.168 0 01-.069-2.796c0-.559.052-1.153.156-1.712.156-.979.38-1.957.554-2.918.104-.49.156-.996.225-1.485.07-.56.156-1.136.173-1.713.052-.559.07-1.083.07-1.642 0-.595.051-1.154 0-1.713-.053-.594-.105-1.24-.157-1.852-.052-.332-.069-.716-.103-1.083-.07-.42-.104-.822-.174-1.241a26.507 26.507 0 00-.26-1.415c-.155-.56-.259-1.154-.38-1.713-.104-.49-.173-.978-.26-1.468-.069-.384-.103-.786-.173-1.205-.069-.385-.104-.752-.155-1.136-.07-.332-.104-.717-.156-1.049-.052-.297-.052-.559-.07-.82-.069-.49-.103-.997-.155-1.486 0-.175-.052-.42-.052-.594 0-.175-.017-.35-.017-.524h3.686v.244c-.052.979-.052 1.905-.069 2.848 0 .42-.052.787-.052 1.206 0 .56.052 1.153.052 1.713.052.489.052.978.07 1.467.051.56.069 1.136.155 1.695.104 1.363.329 2.674.658 3.932.052.227.104.437.225.646.07.158.294.175.433.105.173-.07.225-.227.173-.42-.173-.785-.416-1.572-.554-2.358-.156-.594-.173-1.24-.26-1.852-.052-.385-.07-.752-.104-1.136-.052-.647-.069-1.258-.104-1.905 0-.332-.052-.646-.052-.926 0-.542-.051-1.048-.051-1.572 0-.664.052-1.363.052-2.027.034-.542.051-1.101.069-1.643h.57l1.334-1.8h1.09l1.697 1.8v28.343z" fill="#FF9701"/><path d="M23.558 15.15c-.07-.542-.104-1.084-.225-1.643-.156-.89-.38-1.852-.71-2.69-.26-.647-.554-1.206-1.038-1.643-.225-.227-.485-.385-.814-.385-.484-.052-.865.175-1.142.542-.329.332-.554.786-.744 1.24a11.47 11.47 0 00-.78 2.796c-.103.822-.224 1.695-.294 2.552-.069.594-.069 1.205-.069 1.8v1.415c.052.664.07 1.153.156 1.607.052.542.104 1.084.173 1.608.104.821.329 1.643.589 2.464.26.786.553 1.538 1.194 2.097.433.42 1.038.489 1.558.157.432-.262.71-.664.917-1.136.225-.49.433-1.048.589-1.572.173-.647.328-1.311.432-1.975a8.69 8.69 0 00.173-1.485c.07-.542.156-1.084.156-1.643 0-.873 0-1.747-.052-2.62 0-.508-.052-1.05-.069-1.486zm-.675 5.679c-.07.541-.104 1.083-.225 1.607-.104.56-.225 1.084-.38 1.608-.157.56-.33 1.136-.641 1.608-.156.262-.33.489-.554.716-.225.227-.537.227-.744 0a4.227 4.227 0 01-.537-.664c-.485-.821-.71-1.747-.883-2.69-.104-.665-.225-1.311-.294-1.976a7.504 7.504 0 01-.104-1.24 32.186 32.186 0 01-.07-2.237c0-.541.053-1.048.07-1.572.07-.787.156-1.538.26-2.29.155-.89.38-1.852.71-2.69.172-.437.38-.892.744-1.241.38-.332.64-.297.917 0s.537.664.658 1.048c.173.542.38 1.049.484 1.573.104.49.226.979.295 1.468.069.42.155.786.173 1.206.052.297.052.559.069.873.052.332.07.717.07 1.049v1.048c0 .384.051.716.069 1.048.017.56 0 1.154-.087 1.748z" fill="#FF9701"/><path d="M22.329 16.722c-.052-.559-.104-1.083-.225-1.642-.104-.647-.295-1.31-.71-1.852-.329-.42-.814-.542-1.246-.105-.295.297-.433.664-.589 1.048-.329.891-.433 1.87-.536 2.849-.052.489 0 .978 0 1.467 0 .42.052.787.069 1.206l.225 1.363c.104.646.294 1.24.658 1.747.328.437.865.594 1.298.157.294-.297.415-.646.554-.995.328-.822.432-1.713.536-2.622.052-.419 0-.82 0-1.24.018-.49.018-.926-.034-1.38zm-.416 2.586c-.104.892-.225 1.748-.536 2.57a2.06 2.06 0 01-.485.785c-.173.158-.294.228-.485 0a4.147 4.147 0 01-.432-.82c-.225-.647-.381-1.259-.416-1.905-.052-.49-.104-.979-.104-1.468a5.983 5.983 0 010-1.363c.07-.979.173-1.905.537-2.796.104-.297.26-.594.485-.821.155-.175.328-.175.536.052.26.297.415.664.537 1.049.104.419.225.873.294 1.31.052.175.07.42.07.594.051.542.051 1.049.068 1.573h-.052c-.017.35.018.786-.017 1.24z" fill="#FF9701"/></svg><svg fill="none" viewBox="0 0 38 35" id="bar_2" xmlns="http://www.w3.org/2000/svg"><path d="M37.467 17.383C36.057 6.343 29.363.353 18.675.353 9.866.352.118 9.747.118 18.204c0 7.047 3.406 13.272 9.043 16.56 0-.47.118-.235.588-.705-5.168-3.053-8.574-9.396-8.574-15.855 0-4.228 2.819-9.514 6.694-12.802l1.527 1.996c-3.406 2.82-5.755 6.812-5.755 11.628 0 5.99 2.936 10.805 7.752 13.272.235-.118.587-.353.94-.47-.588-.235-1.175-.587-1.762-.94l1.644-1.644a13.001 13.001 0 004.346 1.762c.822-.118 1.644-.118 2.584-.118.822 0 1.761 0 2.466.118 2.819-.587 5.285-1.997 7.164-4.11 2.232-2.585 3.172-5.756 2.702-8.927-.118-1.057-.353-1.997-.587-2.936l1.879-1.057c.352 1.174.704 2.466.822 3.875.47 3.759-.587 7.4-3.171 10.336-1.41 1.527-3.406 2.936-5.168 3.758.352.118.822.47 1.057.588 1.644-.94 3.406-2.467 4.698-3.876 2.701-3.171 3.876-7.047 3.406-11.04-.235-1.527-.587-2.937-.94-4.229l1.88-.704c.47 1.526 1.057 3.288 1.292 5.05.587 4.346-1.292 9.044-4.346 12.45-1.175 1.41-2.584 2.584-4.11 3.523.469.47.469.235.469.705 1.762-1.057 3.289-2.232 4.58-3.758 3.29-3.759 4.816-8.457 4.229-13.272zM9.866 30.42c-3.406-2.467-5.52-6.46-5.52-11.393 0-4.346 2.349-8.222 5.52-10.923l.94 1.175c-2.584 2.114-4.346 5.167-4.346 8.926 0 4.345 1.997 8.104 5.05 10.453L9.866 30.42zm2.232-2.232c-2.937-2.114-4.816-5.755-4.816-9.866a10.59 10.59 0 013.993-8.339l1.175 1.527c-1.997 1.88-3.289 4.463-3.289 7.4 0 3.405 1.645 6.342 4.111 8.104l-1.174 1.174zm2.231-15.62l-.822-1.058c1.644-1.292 3.524-1.996 5.755-1.996 5.52 0 8.926 4.11 8.926 10.687 0 2.937-4.228 7.635-9.278 7.635-1.645 0-3.054-.353-4.346-1.057l.47-.47c.117-.118.117-.353 0-.587-.118-.118-.353-.118-.587 0l-.588.587c-2.466-1.527-3.993-4.346-3.993-7.517 0-2.701 1.175-5.168 2.936-6.812l.822.94c.118.117.235.117.353.117.117 0 .117 0 .235-.117.235 0 .235-.235.117-.353zm13.86 13.74c-2.232 2.585-5.638 4.112-9.044 4.112-2.35 0-4.463-.705-6.225-1.762l1.292-1.292c1.41.822 3.053 1.292 4.933 1.292 5.637 0 10.1-5.05 10.1-8.34 0-6.929-3.876-11.51-9.748-11.51-2.35 0-4.463.823-6.225 2.115l-1.174-1.41c2.114-1.526 4.58-2.231 7.046-2.231h.47c5.403.235 8.81 2.584 10.453 7.282l-.47.235c-.234.117-.234.352-.117.587.118.117.235.235.352.235h.235l.353-.235c.235.822.47 1.762.587 2.701.117 2.82-.822 5.755-2.819 8.222zm2.466-12.214c-1.762-4.933-5.403-7.4-11.04-7.752h-.588a12.79 12.79 0 00-7.517 2.467l-.94-1.175c2.702-2.114 5.99-3.288 9.162-3.288 6.46 0 10.805 2.936 12.92 8.691l-1.997 1.057zm2.466-1.41c-2.114-5.99-6.812-9.16-13.507-9.16-3.288 0-6.694 1.292-9.63 3.406L8.456 4.816C11.393 2.584 15.504.822 18.792.822c7.87 0 13.742 4.346 16.326 10.923l-1.997.94z" fill="#FF9701"/><path d="M11.98 18.557c0 3.876 3.171 7.282 6.812 7.282 2.936 0 5.52-1.762 6.577-4.228l.118.117h.117c.118 0 .235-.117.352-.235.118-.235 0-.47-.117-.47l-.235-.117c.118-.587.235-1.057.235-1.644 0-5.403-3.64-7.282-6.93-7.282-3.758-.118-6.929 2.819-6.929 6.577zm6.93-5.872c3.875 0 6.224 2.466 6.224 6.577 0 .47-.117.94-.235 1.292l-1.644-.822c.118-.353.118-.705.118-1.058a4.336 4.336 0 00-4.346-4.345 4.336 4.336 0 00-4.346 4.345 4.336 4.336 0 004.346 4.346c1.762 0 3.289-1.057 3.993-2.584l1.645.822c-.94 2.232-3.289 3.759-5.99 3.759-3.171 0-5.99-3.054-5.99-6.577 0-3.172 2.819-5.756 6.225-5.756zm1.996 6.694l1.527.822a3.614 3.614 0 01-3.289 2.114 3.66 3.66 0 01-3.64-3.64 3.66 3.66 0 013.64-3.642 3.66 3.66 0 013.641 3.641c0 .235 0 .47-.117.705l-1.41-.705c-.234-.117-.47 0-.47.118-.234.235-.117.47.118.587z" fill="#FF9701"/><path d="M18.792 0C8.456 0 0 8.456 0 18.792c0 6.577 3.406 12.45 8.574 15.738.235-.352.47-.704.822-1.057-4.815-3.053-8.104-8.456-8.104-14.681 0-9.63 7.87-17.5 17.5-17.5 9.63 0 17.5 7.87 17.5 17.5 0 6.225-3.289 11.627-8.104 14.681.352.353.587.705.822 1.057 5.168-3.288 8.574-9.16 8.574-15.738C37.584 8.456 29.128 0 18.792 0z" fill="#FF9701"/><path d="M18.792 30.772c-4.815 0-8.926 1.644-10.218 3.758 0 0 .353.235 1.057.353 1.88-1.527 5.285-2.584 9.161-2.584 3.994 0 7.517 1.057 9.279 2.701.47-.117.822-.352.94-.352-1.293-2.232-5.403-3.876-10.219-3.876z" fill="#FF9701"/></svg><svg fill="none" viewBox="0 0 38 35" id="bar_3" xmlns="http://www.w3.org/2000/svg"><path d="M8.574 34.53C3.406 31.242 0 25.37 0 18.792 0 9.175 7.498 1.186 16.842.121v.234l-.177 1.066C8.029 2.478 1.292 9.881 1.292 18.792c0 6.225 3.289 11.628 8.104 14.681-.352.353-.587.705-.822 1.057zm19.614-1.057c4.815-3.053 8.104-8.456 8.104-14.681 0-8.911-6.737-16.314-15.373-17.37L20.742.354V.12c9.344 1.065 16.842 9.054 16.842 18.671 0 6.577-3.406 12.45-8.574 15.738-.235-.352-.47-.704-.822-1.057z" fill="#FF9701"/><path d="M18.792 30.772c-4.815 0-8.926 1.644-10.218 3.758 0 0 .353.235 1.057.353 1.88-1.527 5.285-2.584 9.161-2.584 3.994 0 7.517 1.057 9.279 2.701.47-.117.822-.352.94-.352-1.293-2.232-5.403-3.876-10.219-3.876zM24.2 14.197c-2.741-2.74-7.392-2.907-9.967-.332-2.076 2.076-2.657 5.149-1.66 7.64h-.167l-.083.083c-.083.084-.083.25-.083.416.083.249.332.332.415.249l.25-.083c.332.498.58.913.996 1.329 3.82 3.82 7.724 2.574 10.05.249 2.74-2.575 2.906-6.893.248-9.55zm-.748 9.052c-2.74 2.741-6.146 2.658-9.053-.249-.332-.332-.58-.747-.747-1.08l1.744-.58c.166.332.415.58.665.83a4.336 4.336 0 006.145 0 4.336 4.336 0 000-6.146 4.336 4.336 0 00-6.146 0c-1.245 1.246-1.577 3.073-.996 4.65l-1.744.582c-.914-2.242-.332-4.983 1.578-6.893 2.242-2.242 6.395-2.076 8.886.415 2.242 2.243 2.076 6.063-.332 8.471zm-6.146-3.322l-1.66.499a3.614 3.614 0 01.83-3.82 3.66 3.66 0 015.149 0 3.66 3.66 0 010 5.148 3.66 3.66 0 01-5.15 0c-.165-.166-.332-.332-.415-.58l1.495-.5c.25-.082.332-.331.25-.414 0-.333-.25-.416-.499-.333z" fill="#FF9701"/><path d="M.829 17.378C2.09 7.457 7.693 1.702 16.664.826a25.52 25.52 0 012.48-.117c.588 0 1.181.043 1.775.127 8.068 1.13 16.31 9.638 16.31 17.347 0 6.898-3.32 12.99-8.814 16.21 0-.46-.114-.23-.572-.69 5.036-2.989 8.356-9.197 8.356-15.52 0-4.138-2.747-9.312-6.525-12.53l-1.488 1.954c3.32 2.759 5.609 6.668 5.609 11.381 0 5.863-2.862 10.576-7.555 12.99-.229-.114-.572-.344-.915-.46.572-.23 1.144-.574 1.717-.919l-1.603-1.61a12.646 12.646 0 01-4.235 1.725c-.802-.115-1.603-.115-2.518-.115-.802 0-1.717 0-2.404.115-2.747-.575-5.151-1.954-6.983-4.024-2.174-2.529-3.09-5.633-2.632-8.737.114-1.034.343-1.954.572-2.874l-1.831-1.034c-.344 1.15-.687 2.414-.802 3.793-.458 3.68.573 7.243 3.09 10.117 1.374 1.495 3.32 2.874 5.037 3.679-.343.115-.8.46-1.03.575-1.602-.92-3.32-2.415-4.578-3.794-2.633-3.104-3.778-6.898-3.32-10.806.229-1.495.572-2.875.916-4.14l-1.832-.689C2.431 14.275 1.86 16 1.63 17.723c-.572 4.254 1.26 8.853 4.235 12.186 1.145 1.38 2.519 2.53 4.007 3.45-.458.459-.458.23-.458.689-1.717-1.035-3.205-2.184-4.464-3.679C1.745 26.69.257 22.092.829 17.38zm26.9 12.761c3.319-2.414 5.38-6.323 5.38-11.151 0-4.254-2.29-8.047-5.38-10.691l-.916 1.15c2.518 2.069 4.235 5.058 4.235 8.736 0 4.254-1.946 7.933-4.922 10.232l1.602 1.724zm-2.175-2.184c2.861-2.07 4.693-5.633 4.693-9.657 0-3.449-1.603-6.323-3.892-8.162l-1.145 1.495c1.946 1.839 3.205 4.368 3.205 7.242 0 3.334-1.602 6.208-4.006 7.932l1.145 1.15zm-2.175-15.29l.8-1.034c-1.602-1.265-3.433-1.955-5.608-1.955-5.38 0-8.7 4.024-8.7 10.462 0 2.874 4.121 7.472 9.043 7.472 1.603 0 2.977-.345 4.236-1.034l-.458-.46c-.115-.115-.115-.345 0-.575.114-.115.343-.115.572 0l.573.575c2.403-1.495 3.891-4.254 3.891-7.358 0-2.644-1.144-5.058-2.861-6.668l-.802.92c-.114.115-.229.115-.343.115-.114 0-.114 0-.229-.115-.229 0-.229-.23-.114-.345zM9.872 26.115c2.175 2.53 5.494 4.024 8.814 4.024 2.289 0 4.35-.69 6.066-1.724l-1.259-1.265c-1.373.805-2.976 1.265-4.807 1.265-5.495 0-9.844-4.944-9.844-8.162 0-6.783 3.777-11.267 9.5-11.267 2.29 0 4.35.805 6.067 2.07l1.145-1.38c-2.06-1.494-4.465-2.184-6.868-2.184h-.458c-5.266.23-8.585 2.529-10.188 7.128l.458.23c.23.114.23.344.115.574-.115.115-.23.23-.344.23H8.04l-.343-.23c-.23.805-.458 1.725-.572 2.644-.115 2.76.8 5.633 2.747 8.048zM7.468 14.16c1.717-4.829 5.265-7.243 10.76-7.588h.572c2.518 0 5.151.805 7.326 2.414l.916-1.15c-2.633-2.069-5.838-3.218-8.929-3.218-6.295 0-10.53 2.874-12.591 8.507l1.946 1.035zm-2.404-1.38c2.06-5.863 6.64-8.967 13.164-8.967 3.205 0 6.524 1.265 9.386 3.334l1.488-2.07c-2.32-1.77-5.395-3.24-8.183-3.732a10.927 10.927 0 00-1.89-.176c-.81 0-1.6.047-2.365.14C10.186 2.092 5.37 6.103 3.118 11.86l1.946.92z" fill="#FF9701"/><path d="M16.31.354v7.8h4.964v-7.8" stroke="#FF9701" stroke-width="3"/><path fill="#fff" d="M16.665 0h4.255v7.8h-4.255z"/></svg><svg fill="none" viewBox="0 0 18 18" id="bell" xmlns="http://www.w3.org/2000/svg"><path d="M17.596 14.237l-2.78-2.786c-.553-.553-1.47-.536-2.043.038l-1.4 1.404-.277-.155c-.884-.49-2.095-1.164-3.368-2.441C6.45 9.017 5.778 7.8 5.286 6.914c-.052-.094-.101-.184-.15-.27l.94-.94.462-.465c.574-.575.59-1.494.037-2.048L3.795.404c-.552-.553-1.47-.536-2.043.039l-.784.79.022.02a4.543 4.543 0 00-.646 1.142 4.74 4.74 0 00-.287 1.158c-.367 3.05 1.023 5.837 4.797 9.62 5.217 5.227 9.42 4.833 9.602 4.813a4.689 4.689 0 001.158-.291 4.52 4.52 0 001.135-.645l.017.015.793-.778c.573-.576.59-1.495.037-2.05z" fill="#F48020"/></svg><svg fill="none" viewBox="0 0 7 14" id="carousel_icon" xmlns="http://www.w3.org/2000/svg"><path d="M6.21.143A.44.44 0 016.539 0a.44.44 0 01.327.143c.18.19.18.5 0 .691l-5.75 6.078 5.75 6.078c.18.19.18.5 0 .691a.445.445 0 01-.654 0L.135 7.258a.51.51 0 010-.691L6.21.143z" fill="#BABABA"/></svg><svg fill="none" viewBox="0 0 7 14" id="carousel_icon_hover" xmlns="http://www.w3.org/2000/svg"><path d="M.79 13.857A.44.44 0 01.461 14a.44.44 0 01-.327-.143.51.51 0 010-.691l5.75-6.078L.134 1.01a.51.51 0 010-.691.447.447 0 01.656 0l6.076 6.423c.18.19.18.5 0 .691L.79 13.857z" fill="#fff"/></svg><svg fill="none" viewBox="0 0 14 14" id="inst" xmlns="http://www.w3.org/2000/svg"><path fill-rule="evenodd" clip-rule="evenodd" d="M12.582 9.835a2.761 2.761 0 01-2.746 2.748H4.165a2.761 2.761 0 01-2.747-2.748v-5.67a2.76 2.76 0 012.747-2.748h5.67a2.76 2.76 0 012.747 2.748v5.67zM9.835 0h-5.67A4.16 4.16 0 000 4.165v5.67A4.16 4.16 0 004.165 14h5.67A4.16 4.16 0 0014 9.835v-5.67A4.16 4.16 0 009.835 0zM7 9.127c-1.152 0-2.215-.975-2.215-2.215 0-1.24.974-2.216 2.215-2.216 1.24 0 2.215.976 2.215 2.216 0 1.24-.975 2.215-2.215 2.215zm0-5.76c-1.95 0-3.633 1.596-3.633 3.635 0 1.948 1.595 3.632 3.633 3.632 1.949 0 3.633-1.595 3.633-3.632A3.593 3.593 0 007 3.368zm4.52 0a.886.886 0 10-1.774.001.886.886 0 001.773 0z" fill="url(#akpaint0_linear)"/><defs><linearGradient id="akpaint0_linear" x1="3.296" y1=".933" x2="6.217" y2="12.198" gradientUnits="userSpaceOnUse"><stop stop-color="#FF9700"/><stop offset=".998" stop-color="#FF6800"/><stop offset="1" stop-color="#FF6802"/></linearGradient></defs></svg><svg fill="none" viewBox="0 0 15 15" id="inst_2" xmlns="http://www.w3.org/2000/svg"><path fill-rule="evenodd" clip-rule="evenodd" d="M13.481 10.538a2.959 2.959 0 01-2.943 2.944H4.462a2.959 2.959 0 01-2.943-2.944V4.463a2.958 2.958 0 012.943-2.944h6.076a2.958 2.958 0 012.943 2.944v6.075zM10.538 0H4.462A4.457 4.457 0 000 4.463v6.075A4.456 4.456 0 004.462 15h6.076A4.456 4.456 0 0015 10.538V4.463A4.457 4.457 0 0010.538 0zM7.499 9.779c-1.234 0-2.373-1.045-2.373-2.374a2.35 2.35 0 012.373-2.373 2.35 2.35 0 012.374 2.373A2.35 2.35 0 017.499 9.78zm0-6.17c-2.088 0-3.892 1.708-3.892 3.892 0 2.088 1.709 3.892 3.893 3.892 2.088 0 3.892-1.709 3.892-3.892 0-2.184-1.709-3.893-3.892-3.893zm4.843 0a.95.95 0 10-1.9 0 .95.95 0 001.9 0z" fill="#fff"/></svg><svg fill="none" viewBox="0 0 121 56" id="logo" xmlns="http://www.w3.org/2000/svg"><path d="M35.948 14.283c2.195-.685 3.109-3.926 3.145-5.707-.182.045-13.311 3.516-13.311 3.516S38.984 7.526 39.093 7.48c-2.523.73-33.717 9.543-33.717 9.543-2.45.685-4.462 2.968-5.083 6.027A11.327 11.327 0 000 25.652l12.507-3.972s-5.34 14.93-4.571 25.57c0 0 .22-4.658 2.486-13.15-.658 4.885-1.206 9.953-1.28 13.834-.036 1.918.33 3.79 1.098 5.434l.804 1.69c1.244-10.64 3.547-24.292 7.68-35.387l17.224-5.388z" fill="url(#ampaint0_linear)"/><path d="M62.133 16.338c-2.414.867-4.133 3.835-4.535 4.52.183-.73 1.536-3.79 3.84-4.885-.695-.32-1.426-.457-2.23-.229-3.512.96-9.143 14.474-1.61 19.771 2.78-.502 9.18-6.118 6.363-17.26-.073-.228-.804-1.186-1.828-1.917zm-.915 3.972c2.67 5.708-2.852 11.735-2.925 11.643-1.573-3.698-.622-6.985.585-9.177h-.037c.11-.183.22-.32.293-.502.33-.548.658-1.005.95-1.37 1.208-1.598 1.975-1.872 1.975-1.872s-.438.548-.84 1.278z" fill="url(#ampaint1_linear)"/><path d="M82.1 12.274s-.549-.685-1.28-1.415c-.658 1.644-1.426 4.383-1.682 7.488 0 0-.11-4.429 1.097-8.036-1.134-.959-2.524-1.735-3.511-.776-3.547 3.47-6.729 16.894-5.961 20.5.366 1.782 1.207 2.695 2.633 3.79-.33-3.013 1.5-14.108 4.315-19.587-.658 3.105-.95 9.131 1.683 14.565.767 1.142 2.633 1.142 3.071 1.05-2.925-8.767-.365-17.579-.365-17.579z" fill="url(#ampaint2_linear)"/><path d="M120.682 11.041c-.037-.182-.256-.182-.293 0-.439 2.055-1.353 3.197-1.938 3.562-1.207-2.1-1.609-11.552-1.609-11.689-.037-.594-.988-1.598-2.231-2.283-2.194 1.05-3.73 3.699-4.096 4.338.183-.685 1.353-3.425 3.401-4.658-.731-.273-1.536-.41-2.304-.228-1.536.32-4.681 6.393-4.864 12.191-1.938 5.708-3.876 7.534-5.705 7.99.147.549.366.868.366.868-.914-.685-1.39-2.968-1.39-2.968-.585-2.785.183-5.388 1.061-7.305 0-.046.037-.046.037-.091a12.94 12.94 0 011.024-1.827c1.133-1.826 1.828-2.237 1.828-2.237s-.549.867-1.024 1.963v2.557c-.036 1.096.658 2.01 1.536 2.1h.11c.365-.913 1.207-5.16 1.207-6.438 0-.41-.147-.821-.403-1.095-.402-.411-.951-.96-1.719-1.37-2.23 1.004-3.84 3.744-4.169 4.383.183-.685 1.39-3.47 3.475-4.703-.732-.274-1.609-.41-2.597-.137-1.865.457-3.95 6.895-4.242 8.402-1.755 5.387-3.803 11.004-7.424 11.917.147.548.366.867.366.867-1.134-1.05-1.353-2.968-1.353-2.968-.037-.137-.037-.32-.073-.502 1.06-.046 2.56-1.69 3.62-2.876 3.035-3.425 2.633-8.539 2.597-8.858-.037-.274-.915-1.233-2.158-1.918-2.194.913-3.84 3.47-4.206 4.064.183-.685 1.463-3.242 3.475-4.43a4.384 4.384 0 00-2.56-.273c-2.743.593-9.509 15.341-.585 20.41 0 0 4.79.456 8.264-9.178.513 2.1 1.72 3.881 3.877 4.977 3.437-.274 5.668-3.653 7.204-7.351.512 1.735 1.865 3.79 3.621 4.657 1.718-.868 3.51-2.557 5.156-6.21l.037.091c.256.822.95 2.42 1.755 3.653.146.229.402.274.585.137 1.609-1.232 3.401-3.835 2.341-7.534zM88.975 14.65c.073-.183.147-.32.256-.503.768-1.506 1.536-2.42 1.536-2.42.732-.959 1.17-1.232 1.17-1.232s-.658 1.05-1.133 2.283c-.073 3.333-2.011 7.031-3.182 8.218-.146-2.465.585-4.657 1.353-6.346zm24.758-9.635c.585 1.188.768 2.649.585 4.064-.621 4.338-2.267 6.803-2.962 7.717.11.867.512 1.46.512 1.46-.329-.228-.585-.639-.804-1.095-.037-.046-.037-.091-.037-.137-.366-.868-.548-1.735-.548-1.735-.805-3.47.219-6.438 1.279-8.356.842-1.507 1.683-2.42 1.683-2.42.951-1.096 1.499-1.278 1.499-1.278s-.658.776-1.207 1.78z" fill="url(#ampaint3_linear)"/><path d="M42.166 24.237s-.512-.867-1.28-1.69c-.659 1.644-1.427 4.338-1.646 7.443 0 0-.11-4.383 1.097-7.99-.804-.685-1.792-1.142-2.67-.457-1.828 1.416-4.022 7.397-5.375 11.506.512-3.241 1.06-6.21 1.5-7.168-.513-1.644-1.647-2.968-3.11-3.196 0 0 0 .045-.036.137-2.633 14.474-6.51 17.99-8.338 18.127.146.593.402.958.402.958-.292-.182-.512-.548-.694-.958v-.046c-.33-.776-.549-1.735-.659-2.557 0-.046 0-.091-.036-.137a5.572 5.572 0 01-.11-1.096v-.183c.914 0 2.523-.136 3.51-1.278 2.89-3.196 2.817-8.401 2.78-8.675-.037-.229-.695-1.188-1.719-1.918-2.486.685-4.352 3.607-4.754 4.246.22-.73 1.682-3.744 4.06-4.703-.695-.365-1.463-.548-2.268-.41-2.413.456-9.07 14.52-1.609 20.181 0 0 4.462.913 8.155-9.36-.146 1.78-.292 3.698-.402 5.753 0 0 1.024 2.283 1.975 2.648 0 0 4.315-13.287 7.021-17.579-.95 2.785-1.792 8.219.11 13.15.621 1.05 2.377 1.05 2.816.959-2.048-7.762 1.28-15.707 1.28-15.707zM24.539 28.62c.183 3.562-2.194 6.393-3.438 7.625.073-5.022 3.438-7.625 3.438-7.625z" fill="url(#ampaint4_linear)"/><path d="M52.844 20.858s-.512-.593-1.243-1.233c-.658 1.644-1.463 4.384-1.719 7.58 0 0-.11-4.475 1.097-8.082-1.133-.822-2.523-1.507-3.474-.685-3.584 3.014-6.034 14.657-5.34 17.808.367 1.552 1.171 2.328 2.597 3.287-.11-.959-.329-3.196.256-5.114l-1.024.274c.805-3.47 2.158-6.53 2.268-6.53l-1.06.412c1.243-2.968 3.254-6.073 3.254-6.073s-.512 3.425.585 5.981l-1.06-.41s.146 3.424 1.718 5.25l-1.024.137c1.06 3.334 3.913 2.694 4.352 2.603-2.816-7.488-.183-15.205-.183-15.205z" fill="url(#ampaint5_linear)"/><defs><linearGradient id="ampaint0_linear" x1="20.45" y1="20.967" x2="28.692" y2="46.492" gradientUnits="userSpaceOnUse"><stop stop-color="#FF9700"/><stop offset=".998" stop-color="#FF6800"/><stop offset="1" stop-color="#FF6802"/></linearGradient><linearGradient id="ampaint1_linear" x1="55.995" y1="9.489" x2="64.238" y2="35.015" gradientUnits="userSpaceOnUse"><stop stop-color="#FF9700"/><stop offset=".998" stop-color="#FF6800"/><stop offset="1" stop-color="#FF6802"/></linearGradient><linearGradient id="ampaint2_linear" x1="72.884" y1="4.036" x2="81.126" y2="29.561" gradientUnits="userSpaceOnUse"><stop stop-color="#FF9700"/><stop offset=".998" stop-color="#FF6800"/><stop offset="1" stop-color="#FF6802"/></linearGradient><linearGradient id="ampaint3_linear" x1="97.908" y1="-4.044" x2="106.15" y2="21.481" gradientUnits="userSpaceOnUse"><stop stop-color="#FF9700"/><stop offset=".998" stop-color="#FF6800"/><stop offset="1" stop-color="#FF6802"/></linearGradient><linearGradient id="ampaint4_linear" x1="27.357" y1="18.737" x2="35.599" y2="44.262" gradientUnits="userSpaceOnUse"><stop stop-color="#FF9700"/><stop offset=".998" stop-color="#FF6800"/><stop offset="1" stop-color="#FF6802"/></linearGradient><linearGradient id="ampaint5_linear" x1="44.346" y1="13.251" x2="52.589" y2="38.776" gradientUnits="userSpaceOnUse"><stop stop-color="#FF9700"/><stop offset=".998" stop-color="#FF6800"/><stop offset="1" stop-color="#FF6802"/></linearGradient></defs></svg><svg fill="none" viewBox="0 0 122 56" id="logo_grey" xmlns="http://www.w3.org/2000/svg"><path d="M35.948 14.283c2.195-.685 3.109-3.926 3.145-5.707-.182.046-13.311 3.516-13.311 3.516S38.984 7.526 39.093 7.48c-2.523.73-33.717 9.543-33.717 9.543-2.45.685-4.462 2.968-5.083 6.027A11.326 11.326 0 000 25.653l12.507-3.973s-5.34 14.93-4.571 25.57c0 0 .22-4.658 2.486-13.15-.658 4.885-1.206 9.953-1.28 13.834-.036 1.918.33 3.79 1.098 5.434l.804 1.69c1.244-10.64 3.547-24.292 7.68-35.387l17.224-5.388zm26.185 2.055c-2.414.867-4.133 3.835-4.535 4.52.183-.73 1.536-3.79 3.84-4.885-.695-.32-1.426-.457-2.23-.229-3.512.96-9.143 14.474-1.61 19.771 2.78-.502 9.18-6.118 6.363-17.26-.073-.228-.804-1.186-1.828-1.917zm-.915 3.972c2.67 5.708-2.852 11.735-2.925 11.644-1.573-3.699-.622-6.986.585-9.178h-.037c.11-.183.22-.32.293-.502.33-.548.658-1.005.95-1.37 1.208-1.598 1.975-1.872 1.975-1.872s-.438.548-.84 1.278zM82.1 12.274s-.548-.685-1.28-1.415c-.657 1.644-1.425 4.383-1.681 7.488 0 0-.11-4.429 1.097-8.036-1.134-.959-2.524-1.735-3.511-.776-3.547 3.47-6.729 16.894-5.961 20.5.366 1.782 1.207 2.695 2.633 3.79-.33-3.013 1.5-14.108 4.315-19.587-.658 3.105-.95 9.132 1.682 14.565.768 1.142 2.634 1.142 3.072 1.05-2.925-8.766-.365-17.579-.365-17.579zm38.583-1.233c-.037-.182-.256-.182-.293 0-.439 2.055-1.353 3.197-1.938 3.562-1.207-2.1-1.609-11.552-1.609-11.689-.037-.594-.988-1.598-2.231-2.283-2.194 1.05-3.73 3.699-4.096 4.338.183-.685 1.353-3.425 3.401-4.658-.731-.273-1.536-.41-2.304-.228-1.536.32-4.681 6.393-4.864 12.191-1.938 5.708-3.876 7.534-5.705 7.99.147.549.366.868.366.868-.914-.685-1.39-2.968-1.39-2.968-.585-2.785.183-5.388 1.061-7.305 0-.046.037-.046.037-.091a12.94 12.94 0 011.024-1.827c1.133-1.826 1.828-2.237 1.828-2.237s-.549.867-1.024 1.963v2.557c-.037 1.096.658 2.01 1.536 2.1h.11c.365-.913 1.207-5.16 1.207-6.438 0-.41-.147-.821-.403-1.095-.402-.411-.951-.96-1.719-1.37-2.23 1.004-3.84 3.744-4.169 4.383.183-.685 1.39-3.47 3.475-4.703-.732-.274-1.609-.41-2.597-.137-1.865.457-3.95 6.895-4.242 8.402-1.755 5.387-3.803 11.004-7.424 11.917.147.548.366.867.366.867-1.134-1.05-1.353-2.968-1.353-2.968-.037-.137-.037-.32-.073-.502 1.06-.046 2.56-1.69 3.62-2.876 3.035-3.425 2.633-8.539 2.597-8.858-.037-.274-.915-1.233-2.158-1.918-2.194.913-3.84 3.47-4.206 4.064.183-.685 1.463-3.242 3.475-4.43a4.384 4.384 0 00-2.56-.273c-2.743.593-9.508 15.341-.585 20.41 0 0 4.79.456 8.264-9.178.512 2.1 1.72 3.881 3.877 4.977 3.437-.274 5.668-3.653 7.204-7.351.512 1.735 1.865 3.79 3.621 4.657 1.718-.868 3.51-2.557 5.156-6.21l.037.091c.256.822.95 2.42 1.755 3.653.146.229.402.274.585.137 1.609-1.232 3.401-3.835 2.341-7.534zM88.976 14.65c.073-.183.147-.32.256-.503.768-1.506 1.536-2.42 1.536-2.42.732-.959 1.17-1.232 1.17-1.232s-.658 1.05-1.133 2.283c-.073 3.333-2.012 7.031-3.182 8.218-.146-2.465.585-4.657 1.353-6.346zm24.758-9.635c.585 1.188.768 2.649.585 4.064-.621 4.338-2.267 6.803-2.962 7.717.11.867.512 1.46.512 1.46-.329-.228-.585-.639-.804-1.095-.037-.046-.037-.091-.037-.137-.366-.868-.548-1.735-.548-1.735-.805-3.47.219-6.438 1.279-8.356.842-1.507 1.683-2.42 1.683-2.42.951-1.096 1.499-1.278 1.499-1.278s-.658.776-1.207 1.78z" fill="#DCDCDC"/><path d="M42.166 24.237s-.512-.867-1.28-1.69c-.659 1.644-1.427 4.338-1.646 7.443 0 0-.11-4.383 1.097-7.99-.804-.685-1.792-1.142-2.67-.457-1.828 1.416-4.022 7.397-5.375 11.506.512-3.241 1.06-6.21 1.5-7.168-.513-1.644-1.647-2.968-3.11-3.196 0 0 0 .045-.036.137-2.633 14.474-6.51 17.99-8.338 18.127.146.593.402.958.402.958-.292-.182-.512-.548-.694-.958v-.046c-.33-.776-.549-1.735-.659-2.557 0-.046 0-.091-.036-.137a5.572 5.572 0 01-.11-1.096v-.183c.914 0 2.523-.137 3.51-1.278 2.89-3.196 2.817-8.401 2.78-8.675-.037-.229-.695-1.188-1.719-1.918-2.486.685-4.352 3.607-4.754 4.246.22-.73 1.682-3.744 4.06-4.703-.695-.365-1.463-.548-2.268-.41-2.413.456-9.07 14.52-1.609 20.18 0 0 4.462.914 8.155-9.36-.146 1.781-.292 3.7-.402 5.754 0 0 1.024 2.283 1.975 2.648 0 0 4.315-13.287 7.021-17.579-.95 2.785-1.792 8.219.11 13.15.621 1.05 2.377 1.05 2.816.959-2.048-7.762 1.28-15.707 1.28-15.707zM24.539 28.62c.183 3.562-2.194 6.393-3.438 7.625.073-5.022 3.438-7.625 3.438-7.625zm28.304-7.762s-.512-.593-1.243-1.233c-.658 1.644-1.463 4.384-1.719 7.58 0 0-.11-4.475 1.097-8.082-1.133-.822-2.523-1.507-3.474-.685-3.584 3.014-6.034 14.657-5.34 17.808.367 1.552 1.171 2.328 2.597 3.287-.11-.959-.329-3.196.256-5.114l-1.024.274c.805-3.47 2.158-6.53 2.268-6.53l-1.06.412c1.243-2.968 3.254-6.073 3.254-6.073s-.512 3.424.585 5.981l-1.06-.41s.146 3.424 1.718 5.25l-1.024.137c1.06 3.333 3.913 2.694 4.352 2.603-2.816-7.488-.183-15.205-.183-15.205z" fill="#DCDCDC"/></svg><svg fill="none" viewBox="0 0 40 33" id="materials" xmlns="http://www.w3.org/2000/svg"><path d="M5.475 28.967a.586.586 0 000 1.172c1.819 0 3.298-1.668 3.298-3.719 0-2.05-1.48-3.718-3.298-3.718S2.178 24.37 2.178 26.42a.586.586 0 001.172 0c0-1.404.954-2.546 2.125-2.546 1.172 0 2.126 1.142 2.126 2.546s-.954 2.547-2.126 2.547z" fill="url(#aopaint0_linear)"/><path d="M11.702 20.061a.586.586 0 100-1.171c-1.181 0-2.142-1.151-2.142-2.566 0-1.415.96-2.566 2.142-2.566 1.181 0 2.142 1.151 2.142 2.566a.586.586 0 001.172 0c0-2.06-1.487-3.737-3.314-3.737s-3.314 1.676-3.314 3.737 1.487 3.737 3.314 3.737z" fill="url(#aopaint1_linear)"/><path d="M34.524 20.184h-2.018c.755-1.088 1.172-2.438 1.172-3.86 0-.928-.174-1.82-.518-2.653a.586.586 0 00-1.083.447c.285.69.43 1.432.43 2.205 0 .542-.073 1.07-.21 1.57h-9.325a.586.586 0 000 1.171h8.851a4.937 4.937 0 01-.837 1.12h-12.97a4.94 4.94 0 00-2.688.81c1.134-1.143 1.85-2.813 1.85-4.67 0-.28-.016-.556-.047-.826h5.841a.586.586 0 000-1.172H16.89c-.37-1.244-1.077-2.313-1.995-3.066h13.307c.95 0 1.85.358 2.604 1.034a.586.586 0 00.782-.873c-.972-.872-2.143-1.333-3.386-1.333H17.128l-.602-1.66c1.259-1.114 2.106-2.666 1.534-4.241C16.933 1.085 13.89.174 13.29.023a.737.737 0 00-.78.284c-.363.5-2.112 3.153-.985 6.255.571 1.572 2.214 2.22 3.9 2.267l.457 1.26h-4.179c-3.02 0-5.477 2.797-5.477 6.235 0 1.457.441 2.798 1.179 3.86H5.467a4.894 4.894 0 00-2.407.638.586.586 0 00.573 1.022 3.735 3.735 0 011.843-.488c2.373 0 4.304 2.272 4.304 5.064 0 2.793-1.93 5.064-4.304 5.064-2.373 0-4.304-2.272-4.304-5.064 0-1.113.302-2.169.872-3.054a.586.586 0 00-.985-.635C.366 23.806 0 25.081 0 26.421c0 3.431 2.448 6.225 5.46 6.235h24.53a.586.586 0 100-1.172h-8.774c1.383-1.133 2.284-2.98 2.284-5.064 0-.476-.047-.94-.136-1.386h10.63a.586.586 0 000-1.172H23.017a6.176 6.176 0 00-1.802-2.506h13.308c2.373 0 4.304 2.272 4.304 5.064 0 .63-.098 1.233-.277 1.79h-7.195a.586.586 0 100 1.171h6.658c-.783 1.273-2.055 2.103-3.49 2.103h-2.02a.586.586 0 100 1.172h2.02c3.02 0 5.476-2.797 5.476-6.236 0-3.438-2.456-6.236-5.476-6.236zM12.626 6.161c-.805-2.216.194-4.174.665-4.919.839.268 2.862 1.128 3.667 3.345.384 1.055-.313 2.052-.87 2.637l-1.514-4.167a.586.586 0 10-1.101.4l1.513 4.167c-.803-.091-1.977-.409-2.36-1.463zm-.928 5.1h.024c2.365.012 4.285 2.279 4.285 5.063 0 2.792-1.931 5.064-4.305 5.064-2.373 0-4.304-2.272-4.304-5.064 0-2.79 1.928-5.06 4.3-5.064zm-.746 15.16c0-1.783-.66-3.392-1.715-4.53a4.914 4.914 0 002.466.669h2.023c-.737 1.062-1.178 2.404-1.178 3.86 0 2.083.902 3.931 2.284 5.064H8.668c1.383-1.133 2.284-2.98 2.284-5.064zm11.376 0c0 2.791-1.93 5.063-4.304 5.063-2.373 0-4.304-2.272-4.304-5.064 0-2.792 1.93-5.064 4.304-5.064 2.373 0 4.304 2.272 4.304 5.064z" fill="url(#aopaint2_linear)"/><path d="M18.024 22.543a.586.586 0 000 1.172c1.248 0 2.263 1.213 2.263 2.705s-1.015 2.705-2.263 2.705-2.263-1.213-2.263-2.705a.586.586 0 10-1.172 0c0 2.138 1.541 3.877 3.435 3.877 1.894 0 3.435-1.739 3.435-3.877s-1.54-3.877-3.435-3.877z" fill="url(#aopaint3_linear)"/><path d="M26.502 14.326a.586.586 0 000 1.172h2.217a.586.586 0 100-1.172h-2.218z" fill="url(#aopaint4_linear)"/><path d="M25.46 28.21a.586.586 0 000 1.171h1.83a.586.586 0 100-1.172h-1.83z" fill="url(#aopaint5_linear)"/><defs><linearGradient id="aopaint0_linear" x1="3.731" y1="23.198" x2="5.451" y2="29.081" gradientUnits="userSpaceOnUse"><stop stop-color="#FF9700"/><stop offset=".998" stop-color="#FF6800"/><stop offset="1" stop-color="#FF6802"/></linearGradient><linearGradient id="aopaint1_linear" x1="9.948" y1="13.085" x2="11.678" y2="18.998" gradientUnits="userSpaceOnUse"><stop stop-color="#FF9700"/><stop offset=".998" stop-color="#FF6800"/><stop offset="1" stop-color="#FF6802"/></linearGradient><linearGradient id="aopaint2_linear" x1="9.417" y1="2.177" x2="15.099" y2="29.016" gradientUnits="userSpaceOnUse"><stop stop-color="#FF9700"/><stop offset=".998" stop-color="#FF6800"/><stop offset="1" stop-color="#FF6802"/></linearGradient><linearGradient id="aopaint3_linear" x1="16.207" y1="23.06" x2="18.002" y2="29.193" gradientUnits="userSpaceOnUse"><stop stop-color="#FF9700"/><stop offset=".998" stop-color="#FF6800"/><stop offset="1" stop-color="#FF6802"/></linearGradient><linearGradient id="aopaint4_linear" x1="26.713" y1="14.404" x2="26.803" y2="15.402" gradientUnits="userSpaceOnUse"><stop stop-color="#FF9700"/><stop offset=".998" stop-color="#FF6800"/><stop offset="1" stop-color="#FF6802"/></linearGradient><linearGradient id="aopaint5_linear" x1="25.581" y1="28.287" x2="25.682" y2="29.283" gradientUnits="userSpaceOnUse"><stop stop-color="#FF9700"/><stop offset=".998" stop-color="#FF6800"/><stop offset="1" stop-color="#FF6802"/></linearGradient></defs></svg><svg fill="none" viewBox="0 0 10 10" id="modal_close" xmlns="http://www.w3.org/2000/svg"><path d="M6.188 5l3.566-3.565A.84.84 0 008.565.246L5 3.812 1.435.246A.84.84 0 10.246 1.435L3.812 5 .246 8.565a.84.84 0 001.189 1.189L5 6.188l3.565 3.566a.84.84 0 001.189-1.189L6.188 5z" fill="#FF9701"/></svg><svg fill="none" viewBox="0 0 40 40" id="obligation" xmlns="http://www.w3.org/2000/svg"><g clip-path="url(#aqclip0)"><path d="M39.927 9.485a2 2 0 00-3.666-.48l-.334.58a.666.666 0 00-.906.24l-1.693 2.886-.58-.333a.667.667 0 10-.667 1.153l.58.334-5.665 9.818-1.4 3.74-.667 1.246a2 2 0 00.107 2.16l-1.5 1.839-.42-1.053a1.333 1.333 0 00-2.38-.187l-.24.407-.226-2.666a1.334 1.334 0 00-2.593-.314l-1.64 4.92a.666.666 0 00.42.84c.066.03.136.048.207.053a.666.666 0 00.633-.453l1.633-4.92.234 2.706a1.333 1.333 0 002.473.574l.246-.407.414 1.047a1.333 1.333 0 002.28.34l1.552-1.966c.172.044.35.067.527.066a2 2 0 001.74-.987l.666-1.113 2.54-3.086 5.725-9.938.58.333a.666.666 0 01.247.913l-2.666 4.62a.665.665 0 00.213.94.665.665 0 00.913-.247l2.666-4.62a1.999 1.999 0 00-.733-2.732l-.58-.334 1.666-2.886a.667.667 0 00-.24-.906l.334-.58a2 2 0 00.2-1.547zm-2.513.187a.666.666 0 01.913-.246.668.668 0 01.314.406.7.7 0 01-.067.506l-.334.58-1.16-.666.334-.58zm-9.085 18.61l-.334-.193-.986-.573.946-2.533 2.1 1.213-1.726 2.086zm-2 1.927a.666.666 0 01-.2-.874l.333-.58 1.16.667-.333.573a.667.667 0 01-.96.213zm4.486-5.106l-2.306-1.333 5.332-9.239 2.306 1.333-5.332 9.239zm5.999-10.392l-2.306-1.333 1.333-2.306 2.306 1.333-1.333 2.306z" fill="url(#aqpaint0_linear)"/><path d="M10.517 29.875l-2.36 2.353-1.412-1.413a.667.667 0 10-.94.946l1.413 1.413c.25.248.588.387.94.387a1.33 1.33 0 00.946-.387l2.353-2.36a.667.667 0 00-.94-.94z" fill="url(#aqpaint1_linear)"/><path d="M2.666 31.668a5.666 5.666 0 1011.331 0 .667.667 0 10-1.333 0 4.333 4.333 0 11-1.733-3.466.666.666 0 10.8-1.067 5.666 5.666 0 00-9.065 4.533z" fill="url(#aqpaint2_linear)"/><path d="M23.995 5.339a.666.666 0 100-1.333H6.665a.667.667 0 00-.667.666V7.34c0 .368.298.666.667.666h17.33a.666.666 0 100-1.333H7.331V5.34h16.664z" fill="url(#aqpaint3_linear)"/><path d="M8.665 9.338a.667.667 0 000 1.334h13.33a.666.666 0 100-1.334H8.666z" fill="url(#aqpaint4_linear)"/><path d="M25.997 14.004H11.333a.667.667 0 100 1.334h14.664a.666.666 0 100-1.334z" fill="url(#aqpaint5_linear)"/><path d="M19.33 18.67a.667.667 0 00-.666-.667H5.333a.667.667 0 000 1.334h13.33a.666.666 0 00.667-.667z" fill="url(#aqpaint6_linear)"/><path d="M25.995 18.003h-4.666a.667.667 0 000 1.334h4.666a.666.666 0 100-1.334z" fill="url(#aqpaint7_linear)"/><path d="M11.998 22.67a.666.666 0 100-1.334H5.333a.667.667 0 000 1.333h6.665z" fill="url(#aqpaint8_linear)"/><path d="M14.665 22.67h4.666a.666.666 0 100-1.334h-4.666a.667.667 0 000 1.333z" fill="url(#aqpaint9_linear)"/><path d="M29.995 30.668a.667.667 0 00-.667.667V38a.666.666 0 01-.666.667H2A.666.666 0 011.333 38V2.007c0-.369.299-.667.667-.667h26.662c.368 0 .666.298.666.666v12.519a.667.667 0 001.333 0V2.005a2 2 0 00-2-2H2a2 2 0 00-2 2V38a2 2 0 002 2h26.662a2 2 0 002-2v-6.665a.666.666 0 00-.667-.667z" fill="url(#aqpaint10_linear)"/></g><defs><linearGradient id="aqpaint0_linear" x1="21.653" y1="9.781" x2="27.745" y2="30.922" gradientUnits="userSpaceOnUse"><stop stop-color="#FF9700"/><stop offset=".998" stop-color="#FF6800"/><stop offset="1" stop-color="#FF6802"/></linearGradient><linearGradient id="aqpaint1_linear" x1="7.022" y1="29.971" x2="7.556" y2="33.185" gradientUnits="userSpaceOnUse"><stop stop-color="#FF9700"/><stop offset=".998" stop-color="#FF6800"/><stop offset="1" stop-color="#FF6802"/></linearGradient><linearGradient id="aqpaint2_linear" x1="5.334" y1="26.758" x2="7.698" y2="35.875" gradientUnits="userSpaceOnUse"><stop stop-color="#FF9700"/><stop offset=".998" stop-color="#FF6800"/><stop offset="1" stop-color="#FF6802"/></linearGradient><linearGradient id="aqpaint3_linear" x1="10.392" y1="4.272" x2="10.582" y2="7.696" gradientUnits="userSpaceOnUse"><stop stop-color="#FF9700"/><stop offset=".998" stop-color="#FF6800"/><stop offset="1" stop-color="#FF6802"/></linearGradient><linearGradient id="aqpaint4_linear" x1="11.45" y1="9.427" x2="11.477" y2="10.571" gradientUnits="userSpaceOnUse"><stop stop-color="#FF9700"/><stop offset=".998" stop-color="#FF6800"/><stop offset="1" stop-color="#FF6802"/></linearGradient><linearGradient id="aqpaint5_linear" x1="14.432" y1="14.093" x2="14.457" y2="15.237" gradientUnits="userSpaceOnUse"><stop stop-color="#FF9700"/><stop offset=".998" stop-color="#FF6800"/><stop offset="1" stop-color="#FF6802"/></linearGradient><linearGradient id="aqpaint6_linear" x1="8.118" y1="18.092" x2="8.145" y2="19.236" gradientUnits="userSpaceOnUse"><stop stop-color="#FF9700"/><stop offset=".998" stop-color="#FF6800"/><stop offset="1" stop-color="#FF6802"/></linearGradient><linearGradient id="aqpaint7_linear" x1="22.074" y1="18.092" x2="22.14" y2="19.233" gradientUnits="userSpaceOnUse"><stop stop-color="#FF9700"/><stop offset=".998" stop-color="#FF6800"/><stop offset="1" stop-color="#FF6802"/></linearGradient><linearGradient id="aqpaint8_linear" x1="6.549" y1="21.425" x2="6.598" y2="22.567" gradientUnits="userSpaceOnUse"><stop stop-color="#FF9700"/><stop offset=".998" stop-color="#FF6800"/><stop offset="1" stop-color="#FF6802"/></linearGradient><linearGradient id="aqpaint9_linear" x1="15.41" y1="21.425" x2="15.476" y2="22.566" gradientUnits="userSpaceOnUse"><stop stop-color="#FF9700"/><stop offset=".998" stop-color="#FF6800"/><stop offset="1" stop-color="#FF6802"/></linearGradient><linearGradient id="aqpaint10_linear" x1="7.218" y1="2.673" x2="17.642" y2="33.489" gradientUnits="userSpaceOnUse"><stop stop-color="#FF9700"/><stop offset=".998" stop-color="#FF6800"/><stop offset="1" stop-color="#FF6802"/></linearGradient><clipPath id="aqclip0"><path fill="#fff" d="M0 0h40v40H0z"/></clipPath></defs></svg><svg fill="none" viewBox="0 0 30 38" id="pdf" xmlns="http://www.w3.org/2000/svg"><path fill-rule="evenodd" clip-rule="evenodd" d="M0 0v37.742h30V6.657L23.343 0H0zm2.903 2.903h17.42v6.774h6.774V34.84H2.903V2.903zm20.323 1.085l2.786 2.786h-2.786V3.988z" fill="#FF9700"/></svg><svg fill="none" viewBox="0 0 16 19" id="place" xmlns="http://www.w3.org/2000/svg"><path d="M12.897 2.204A7.492 7.492 0 0010.47.584 7.658 7.658 0 007.587 0h-.05A7.678 7.678 0 002.24 2.136 7.275 7.275 0 000 7.273v10.183a.734.734 0 00.248.555.799.799 0 001.084 0l3.836-3.678c.76.173 1.532.287 2.31.34h.066a7.767 7.767 0 005.273-2.168 7.363 7.363 0 002.258-5.12 7.098 7.098 0 00-.556-2.803 7.256 7.256 0 00-1.622-2.378zM7.544 13.545h-.056a14.497 14.497 0 01-2.277-.355.795.795 0 00-.706.199l-3.346 3.196v-9.3a6.165 6.165 0 011.896-4.348 6.506 6.506 0 014.482-1.812h.044c.84.005 1.67.174 2.443.495a6.348 6.348 0 012.058 1.374 6.14 6.14 0 011.381 2.01c.319.752.482 1.558.478 2.372a6.231 6.231 0 01-1.919 4.342 6.574 6.574 0 01-4.478 1.828z" fill="#AAA"/><path d="M9.143 4.478a.589.589 0 00-.79.23.556.556 0 00-.046.43.573.573 0 00.278.338c.425.224.762.578.96 1.007.198.429.245.91.134 1.367-.11.458-.373.867-.747 1.165a2.242 2.242 0 01-2.671.087 2.144 2.144 0 01-.826-1.114 2.087 2.087 0 01.04-1.372c.168-.441.48-.816.889-1.067a.578.578 0 00.276-.355.552.552 0 00-.072-.44.574.574 0 00-.376-.253.598.598 0 00-.448.089c-.623.385-1.1.958-1.355 1.633A3.192 3.192 0 004.33 8.32a3.28 3.28 0 001.263 1.702 3.43 3.43 0 002.065.606 3.42 3.42 0 002.018-.74 3.265 3.265 0 001.143-1.78c.17-.7.098-1.434-.203-2.09a3.311 3.311 0 00-1.465-1.54h-.01z" fill="#AAA"/><path d="M7.466 3.69a.596.596 0 00-.412.167.566.566 0 00-.17.4V6.67c0 .15.06.295.17.401a.59.59 0 00.824 0 .56.56 0 00.17-.4V4.257a.554.554 0 00-.17-.401.584.584 0 00-.412-.166z" fill="#AAA"/></svg><svg fill="none" viewBox="0 0 40 40" id="price" xmlns="http://www.w3.org/2000/svg"><g clip-path="url(#atclip0)"><path d="M39.334 14.667H25.857a15.353 15.353 0 00-5.19-4.124V7.667l2.4-1.8a.667.667 0 00.267-.534V.667A.667.667 0 0022.668 0H20a.667.667 0 00-.471.195l-.862.862-.862-.862A.667.667 0 0017.334 0h-4a.667.667 0 00-.471.195L12 1.057l-.862-.862a.667.667 0 00-.47-.195H8a.667.667 0 00-.667.667v4.666c0 .21.1.408.267.534l2.4 1.8v2.882C4.954 12.991 0 19.551 0 27.963.001 35.613 5.59 40 15.334 40c1.582.005 3.16-.135 4.717-.419a.667.667 0 00.617.419h18.666a.667.667 0 00.667-.667v-24a.667.667 0 00-.667-.666zM8.668 5V1.333h1.724l1.138 1.138c.26.26.682.26.942 0l1.138-1.138h3.448l1.138 1.138c.26.26.683.26.943 0l1.138-1.138H22V5l-2.222 1.667h-8.89L8.669 5zm10.666 3v2h-8V8h8zm.667 22.982a7.333 7.333 0 110-11.297v11.297zm0-15.649v2.705a8.667 8.667 0 100 14.59v5.606c-1.538.295-3.1.44-4.667.432-4.209 0-14-1.042-14-10.703 0-6.378 3.823-14.314 10.223-16.63h7.56a13.133 13.133 0 014.955 3.334h-3.404a.667.667 0 00-.667.666zm18.666 23.333H21.334V21.334h17.333v17.334zm0-18.666H21.334v-4h17.333v4z" fill="url(#atpaint0_linear)"/><path d="M26 22.666h-2.667a.667.667 0 00-.666.667V26c0 .368.298.666.666.666H26a.667.667 0 00.666-.666v-2.667a.667.667 0 00-.666-.666zm-.667 2.667H24V24h1.333v1.333z" fill="url(#atpaint1_linear)"/><path d="M31.333 22.666h-2.666a.667.667 0 00-.667.667V26c0 .368.299.666.667.666h2.666A.667.667 0 0032 26v-2.667a.667.667 0 00-.667-.666zm-.666 2.667h-1.334V24h1.334v1.333z" fill="url(#atpaint2_linear)"/><path d="M36.667 22.666H34a.667.667 0 00-.666.667V26c0 .368.298.666.666.666h2.667a.667.667 0 00.666-.666v-2.667a.667.667 0 00-.666-.666zM36 25.334h-1.333V24H36v1.333z" fill="url(#atpaint3_linear)"/><path d="M26 28h-2.667a.667.667 0 00-.666.667v2.666c0 .369.298.667.666.667H26a.667.667 0 00.666-.667v-2.666A.667.667 0 0026 28zm-.667 2.667H24v-1.334h1.333v1.334z" fill="url(#atpaint4_linear)"/><path d="M31.333 28h-2.666a.667.667 0 00-.667.667v2.666c0 .369.299.667.667.667h2.666a.667.667 0 00.667-.667v-2.666a.667.667 0 00-.667-.667zm-.666 2.667h-1.334v-1.334h1.334v1.334z" fill="url(#atpaint5_linear)"/><path d="M26 33.333h-2.667a.667.667 0 00-.666.667v2.667c0 .368.298.666.666.666H26a.667.667 0 00.666-.666V34a.667.667 0 00-.666-.667zM25.333 36H24v-1.333h1.333V36z" fill="url(#atpaint6_linear)"/><path d="M31.333 33.333h-2.666A.667.667 0 0028 34v2.667c0 .368.299.666.667.666h2.666a.667.667 0 00.667-.666V34a.667.667 0 00-.667-.667zM30.667 36h-1.334v-1.333h1.334V36z" fill="url(#atpaint7_linear)"/><path d="M36.667 28H34a.667.667 0 00-.666.667v8c0 .368.298.666.666.666h2.667a.667.667 0 00.666-.666v-8a.667.667 0 00-.666-.667zM36 36h-1.333v-6.667H36V36z" fill="url(#atpaint8_linear)"/><path d="M37.333 17.333H36v1.334h1.333v-1.334z" fill="url(#atpaint9_linear)"/><path d="M34.667 17.333h-1.334v1.334h1.334v-1.334z" fill="url(#atpaint10_linear)"/><path d="M32 17.333h-1.334v1.334H32v-1.334z" fill="url(#atpaint11_linear)"/><g clip-path="url(#atclip1)"><path d="M12.546 27.927h1.272v1.091A.177.177 0 0014 29.2h.95a.18.18 0 00.18-.182v-1.09H18a.177.177 0 00.13-.052.177.177 0 00.052-.13v-.728a.176.176 0 00-.051-.13.177.177 0 00-.13-.052h-2.87v-.67h1.932c.757 0 1.375-.231 1.855-.693.479-.462.719-1.059.719-1.79 0-.731-.24-1.328-.72-1.79-.479-.462-1.097-.693-1.854-.693H14a.178.178 0 00-.13.051.178.178 0 00-.052.13v3.575h-1.272a.18.18 0 00-.182.182v.846c0 .053.017.096.05.13a.177.177 0 00.132.052h1.272v.67h-1.272a.177.177 0 00-.131.052.177.177 0 00-.051.13v.727c0 .053.017.097.05.131a.177.177 0 00.132.051zm2.585-5.517h1.818c.401 0 .725.118.971.352.247.235.37.542.37.92 0 .38-.123.687-.37.921-.246.235-.57.353-.971.353H15.13V22.41z" fill="url(#atpaint12_linear)"/></g></g><defs><linearGradient id="atpaint0_linear" x1="9.418" y1="2.666" x2="17.764" y2="34.85" gradientUnits="userSpaceOnUse"><stop stop-color="#FF9700"/><stop offset=".998" stop-color="#FF6800"/><stop offset="1" stop-color="#FF6802"/></linearGradient><linearGradient id="atpaint1_linear" x1="23.608" y1="22.933" x2="24.443" y2="26.151" gradientUnits="userSpaceOnUse"><stop stop-color="#FF9700"/><stop offset=".998" stop-color="#FF6800"/><stop offset="1" stop-color="#FF6802"/></linearGradient><linearGradient id="atpaint2_linear" x1="28.942" y1="22.933" x2="29.776" y2="26.151" gradientUnits="userSpaceOnUse"><stop stop-color="#FF9700"/><stop offset=".998" stop-color="#FF6800"/><stop offset="1" stop-color="#FF6802"/></linearGradient><linearGradient id="atpaint3_linear" x1="34.275" y1="22.933" x2="35.11" y2="26.151" gradientUnits="userSpaceOnUse"><stop stop-color="#FF9700"/><stop offset=".998" stop-color="#FF6800"/><stop offset="1" stop-color="#FF6802"/></linearGradient><linearGradient id="atpaint4_linear" x1="23.608" y1="28.267" x2="24.443" y2="31.485" gradientUnits="userSpaceOnUse"><stop stop-color="#FF9700"/><stop offset=".998" stop-color="#FF6800"/><stop offset="1" stop-color="#FF6802"/></linearGradient><linearGradient id="atpaint5_linear" x1="28.942" y1="28.267" x2="29.776" y2="31.485" gradientUnits="userSpaceOnUse"><stop stop-color="#FF9700"/><stop offset=".998" stop-color="#FF6800"/><stop offset="1" stop-color="#FF6802"/></linearGradient><linearGradient id="atpaint6_linear" x1="23.608" y1="33.6" x2="24.443" y2="36.818" gradientUnits="userSpaceOnUse"><stop stop-color="#FF9700"/><stop offset=".998" stop-color="#FF6800"/><stop offset="1" stop-color="#FF6802"/></linearGradient><linearGradient id="atpaint7_linear" x1="28.942" y1="33.6" x2="29.776" y2="36.818" gradientUnits="userSpaceOnUse"><stop stop-color="#FF9700"/><stop offset=".998" stop-color="#FF6800"/><stop offset="1" stop-color="#FF6802"/></linearGradient><linearGradient id="atpaint8_linear" x1="34.275" y1="28.622" x2="37.825" y2="34.489" gradientUnits="userSpaceOnUse"><stop stop-color="#FF9700"/><stop offset=".998" stop-color="#FF6800"/><stop offset="1" stop-color="#FF6802"/></linearGradient><linearGradient id="atpaint9_linear" x1="36.314" y1="17.422" x2="36.592" y2="18.495" gradientUnits="userSpaceOnUse"><stop stop-color="#FF9700"/><stop offset=".998" stop-color="#FF6800"/><stop offset="1" stop-color="#FF6802"/></linearGradient><linearGradient id="atpaint10_linear" x1="33.647" y1="17.422" x2="33.926" y2="18.495" gradientUnits="userSpaceOnUse"><stop stop-color="#FF9700"/><stop offset=".998" stop-color="#FF6800"/><stop offset="1" stop-color="#FF6802"/></linearGradient><linearGradient id="atpaint11_linear" x1="30.98" y1="17.422" x2="31.259" y2="18.495" gradientUnits="userSpaceOnUse"><stop stop-color="#FF9700"/><stop offset=".998" stop-color="#FF6800"/><stop offset="1" stop-color="#FF6802"/></linearGradient><linearGradient id="atpaint12_linear" x1="14.076" y1="21.733" x2="15.888" y2="28.086" gradientUnits="userSpaceOnUse"><stop stop-color="#FF9700"/><stop offset=".998" stop-color="#FF6800"/><stop offset="1" stop-color="#FF6802"/></linearGradient><clipPath id="atclip0"><path fill="#fff" d="M0 0h40v40H0z"/></clipPath><clipPath id="atclip1"><path fill="#fff" transform="translate(12 21.2)" d="M0 0h8v8H0z"/></clipPath></defs></svg><svg fill="none" viewBox="0 0 40 40" id="projects" xmlns="http://www.w3.org/2000/svg"><g clip-path="url(#auclip0)"><path d="M39.335 0h-30a.667.667 0 00-.667.667v10h1.333V1.333h28.667V38a.656.656 0 01-.614.667c-.057 0-.115-.005-.172-.006-.118-.004-.236-.006-.352-.018-.01 0-.02 0-.03-.004a4.673 4.673 0 01-4.137-4.134c0-.01-.003-.02-.004-.028a4.628 4.628 0 01-.024-.477v-1.333a.667.667 0 00-.667-.667H10V20H8.668v12H3.335a.667.667 0 00-.667.667V34a6.007 6.007 0 006 6h29.4A1.985 1.985 0 0040 38V.667A.667.667 0 0039.335 0zM8.668 38.667A4.672 4.672 0 014.001 34v-.667h28V34c.001.22.014.44.038.658.006.058.018.114.026.171.022.162.048.322.084.48.012.056.027.11.04.166a6.089 6.089 0 00.189.608c.06.165.13.326.205.486.016.032.03.066.046.096.084.17.176.333.276.493l.038.067c.109.17.226.334.352.493l.02.029a5.897 5.897 0 00.913.922l-25.56-.002z" fill="url(#aupaint0_linear)"/><path d="M22 18.667c.177 0 .346-.07.471-.196l2.667-2.666a.667.667 0 000-.943l-2.667-2.667A.667.667 0 0022 12H3.333a3.333 3.333 0 000 6.667H22zm-.172-5.23l1.896 1.896-1.896 1.896-.474-1.896.474-1.896zm-16.495-.104H20.48l-.333 1.334H6.667V16h13.48l.333 1.333H5.333v-4zm-4 2a2 2 0 012-2H4v4h-.667a2 2 0 01-2-2z" fill="url(#aupaint1_linear)"/><path d="M15.33 28.667h20a.667.667 0 00.667-.667V8a.667.667 0 00-1.138-.47l-20 20a.667.667 0 00.472 1.137zM34.665 9.61v1.724H33.33v1.333h1.333v1.334H33.33v1.333h1.333v1.333H33.33V18h1.333v1.334H33.33v1.333h1.333V22H33.33v1.334h1.333v1.333H33.33V26h1.333v1.334H33.33V26h-1.334v1.334h-1.333V26H29.33v1.334h-1.334V26h-1.333v1.334H25.33V26h-1.334v1.334h-1.333V26H21.33v1.334h-1.334V26h-1.333v1.334H16.94L34.664 9.61z" fill="url(#aupaint2_linear)"/><path d="M24.99 24.667h6.344a.667.667 0 00.667-.667v-6.343a.667.667 0 00-1.138-.472l-6.344 6.344a.667.667 0 00.472 1.138zm5.677-5.4v4.066h-4.066l4.066-4.066z" fill="url(#aupaint3_linear)"/><path d="M30.665 4H17.332v1.333h13.333V4z" fill="url(#aupaint4_linear)"/><path d="M32.665 6.666H15.332v1.333h17.333V6.666z" fill="url(#aupaint5_linear)"/><path d="M15.332 20.668h-4v1.333h4v-1.333z" fill="url(#aupaint6_linear)"/><path d="M13.999 23.334h-2.667v1.333h2.667v-1.333z" fill="url(#aupaint7_linear)"/></g><defs><linearGradient id="aupaint0_linear" x1="11.457" y1="2.666" x2="20.316" y2="34.553" gradientUnits="userSpaceOnUse"><stop stop-color="#FF9700"/><stop offset=".998" stop-color="#FF6800"/><stop offset="1" stop-color="#FF6802"/></linearGradient><linearGradient id="aupaint1_linear" x1="5.964" y1="12.444" x2="6.353" y2="18.143" gradientUnits="userSpaceOnUse"><stop stop-color="#FF9700"/><stop offset=".998" stop-color="#FF6800"/><stop offset="1" stop-color="#FF6802"/></linearGradient><linearGradient id="aupaint2_linear" x1="19.686" y1="8.756" x2="24.137" y2="25.921" gradientUnits="userSpaceOnUse"><stop stop-color="#FF9700"/><stop offset=".998" stop-color="#FF6800"/><stop offset="1" stop-color="#FF6802"/></linearGradient><linearGradient id="aupaint3_linear" x1="26.131" y1="17.502" x2="27.733" y2="23.678" gradientUnits="userSpaceOnUse"><stop stop-color="#FF9700"/><stop offset=".998" stop-color="#FF6800"/><stop offset="1" stop-color="#FF6802"/></linearGradient><linearGradient id="aupaint4_linear" x1="20.471" y1="4.089" x2="20.501" y2="5.233" gradientUnits="userSpaceOnUse"><stop stop-color="#FF9700"/><stop offset=".998" stop-color="#FF6800"/><stop offset="1" stop-color="#FF6802"/></linearGradient><linearGradient id="aupaint5_linear" x1="19.413" y1="6.755" x2="19.435" y2="7.899" gradientUnits="userSpaceOnUse"><stop stop-color="#FF9700"/><stop offset=".998" stop-color="#FF6800"/><stop offset="1" stop-color="#FF6802"/></linearGradient><linearGradient id="aupaint6_linear" x1="12.274" y1="20.757" x2="12.372" y2="21.893" gradientUnits="userSpaceOnUse"><stop stop-color="#FF9700"/><stop offset=".998" stop-color="#FF6800"/><stop offset="1" stop-color="#FF6802"/></linearGradient><linearGradient id="aupaint7_linear" x1="11.96" y1="23.423" x2="12.106" y2="24.549" gradientUnits="userSpaceOnUse"><stop stop-color="#FF9700"/><stop offset=".998" stop-color="#FF6800"/><stop offset="1" stop-color="#FF6802"/></linearGradient><clipPath id="auclip0"><path fill="#fff" d="M0 0h40v40H0z"/></clipPath></defs></svg><svg fill="none" viewBox="0 0 31 15" id="projects_arrow_1920" xmlns="http://www.w3.org/2000/svg"><path d="M30.763 7.177L24.57 1.09a.809.809 0 00-1.134 0 .777.777 0 000 1.115L28.26 6.95H.806A.8.8 0 000 7.744a.8.8 0 00.806.793H28.26l-4.824 4.731a.777.777 0 000 1.116c.157.155.36.232.57.232.21 0 .413-.077.57-.232l6.195-6.092a.783.783 0 00-.007-1.115z" fill="#FF9701"/></svg><svg fill="none" viewBox="0 0 23 11" id="projects_arrow_320" xmlns="http://www.w3.org/2000/svg"><path d="M22.824 5.052L18.228.186a.57.57 0 00-.841 0 .655.655 0 000 .891l3.58 3.794H.598c-.33 0-.598.284-.598.634 0 .35.267.634.598.634h20.369l-3.58 3.784a.655.655 0 000 .891.576.576 0 00.846 0l4.596-4.87a.66.66 0 00-.005-.892z" fill="#FF9701"/></svg><svg fill="none" viewBox="0 0 11 14" id="ruble" xmlns="http://www.w3.org/2000/svg"><path d="M6.782 0H2.508a.787.787 0 00-.798.775V6.64H.798A.787.787 0 000 7.415c0 .428.357.775.798.775h.912v1.77H.798a.787.787 0 00-.798.775c0 .428.357.775.798.775h.912v1.715c0 .428.357.775.798.775.44 0 .798-.347.798-.775V11.51h3.476a.787.787 0 00.798-.775.787.787 0 00-.798-.775H3.306V8.19h3.476C9.108 8.19 11 6.353 11 4.095 11 1.78 9.059 0 6.782 0zm0 6.64H3.306V1.55h3.476c1.437 0 2.622 1.125 2.622 2.545 0 1.403-1.176 2.545-2.622 2.545z" fill="#333"/></svg><svg fill="none" viewBox="0 0 61 121" id="slider" xmlns="http://www.w3.org/2000/svg"><path d="M54.124 1.252C54.91.417 55.892 0 56.973 0c1.08 0 2.062.417 2.848 1.252 1.572 1.669 1.572 4.38 0 6.05L9.725 60.5l50.096 53.198c1.572 1.669 1.572 4.381 0 6.05-1.571 1.669-4.125 1.669-5.697 0L1.179 63.525c-1.572-1.669-1.572-4.381 0-6.05L54.124 1.252z" fill="#BABABA"/></svg><svg fill="none" viewBox="0 0 61 121" id="slider_hover" xmlns="http://www.w3.org/2000/svg"><path d="M6.876 1.252C6.09.417 5.108 0 4.027 0 2.947 0 1.965.417 1.18 1.252c-1.572 1.669-1.572 4.38 0 6.05L51.275 60.5 1.18 113.698c-1.572 1.669-1.572 4.381 0 6.05 1.571 1.669 4.125 1.669 5.697 0l52.945-56.223c1.572-1.669 1.572-4.381 0-6.05L6.876 1.252z" fill="#fff"/></svg><svg fill="none" viewBox="0 0 13 12" id="sort_1" xmlns="http://www.w3.org/2000/svg"><path stroke="#FF9701" stroke-width="2" d="M0 1h13M0 6h9m-9 5h5"/></svg><svg fill="none" viewBox="0 0 13 12" id="sort_2" xmlns="http://www.w3.org/2000/svg"><path stroke="#333" stroke-width="2" d="M0 11h13M0 6h9M0 1h5"/></svg><svg fill="none" viewBox="0 0 13 12" id="sort_3" xmlns="http://www.w3.org/2000/svg"><path stroke="#333" stroke-width="2" d="M0 1h13M0 6h9m-9 5h5"/></svg><svg fill="none" viewBox="0 0 40 40" id="term" xmlns="http://www.w3.org/2000/svg"><path d="M28.667 16.667c-6.26 0-11.334 5.074-11.334 11.333 0 6.26 5.075 11.333 11.334 11.333C34.926 39.333 40 34.26 40 28c-.007-6.256-5.077-11.326-11.333-11.333zm0 21.333c-5.523 0-10-4.477-10-10s4.477-10 10-10 10 4.477 10 10c-.006 5.52-4.48 9.994-10 10z" fill="url(#bdpaint0_linear)"/><path d="M29.333 26.123V22H28v4.123a1.998 1.998 0 00-1.21 1.21H24v1.334h2.79a1.995 1.995 0 102.543-2.544zm-.666 2.544a.667.667 0 110-1.334.667.667 0 010 1.334z" fill="url(#bdpaint1_linear)"/><path d="M20 27.333h1.333v1.334H20v-1.334z" fill="url(#bdpaint2_linear)"/><path d="M28 35.333h1.333v1.334H28v-1.334z" fill="url(#bdpaint3_linear)"/><path d="M36 27.333h1.333v1.334H36v-1.334z" fill="url(#bdpaint4_linear)"/><path d="M28 19.333h1.333v1.334H28v-1.334z" fill="url(#bdpaint5_linear)"/><path d="M1.333 29.333V10H32v6h1.333V6.667A3.337 3.337 0 0030 3.333h-4.667v-.666a2 2 0 00-4 0v.666H12v-.666a2 2 0 00-4 0v.666H3.333A3.337 3.337 0 000 6.667v22.666a3.337 3.337 0 003.333 3.334h13.334v-1.334H3.333a2 2 0 01-2-2zM22.667 2.667a.667.667 0 011.333 0v2.666a.667.667 0 01-1.333 0V2.667zm-13.334 0a.667.667 0 011.334 0v2.666a.667.667 0 01-1.334 0V2.667zm-6 2H8v.666a2 2 0 004 0v-.666h9.333v.666a2 2 0 004 0v-.666H30a2 2 0 012 2v2H1.333v-2a2 2 0 012-2z" fill="url(#bdpaint6_linear)"/><path d="M9.333 15.333C9.333 14.597 8.736 14 8 14H5.333C4.597 14 4 14.597 4 15.333V18c0 .736.597 1.333 1.333 1.333H8c.736 0 1.333-.597 1.333-1.333v-2.667zm-4 2.667v-2.667H8V18H5.333z" fill="url(#bdpaint7_linear)"/><path d="M16 15.333c0-.736-.597-1.333-1.334-1.333H12c-.736 0-1.334.597-1.334 1.333V18c0 .736.598 1.333 1.334 1.333h2.666c.737 0 1.334-.597 1.334-1.333v-2.667zM12 18v-2.667h2.666V18H12z" fill="url(#bdpaint8_linear)"/><path d="M22.667 17.333v-2c0-.736-.597-1.333-1.334-1.333h-2.666c-.737 0-1.334.597-1.334 1.333V18c0 .736.598 1.333 1.334 1.333H20V18h-1.333v-2.667h2.666v2h1.334z" fill="url(#bdpaint9_linear)"/><path d="M8 22H5.333C4.597 22 4 22.597 4 23.333V26c0 .736.597 1.333 1.333 1.333H8c.736 0 1.333-.597 1.333-1.333v-2.667C9.333 22.597 8.736 22 8 22zm-2.667 4v-2.667H8V26H5.333z" fill="url(#bdpaint10_linear)"/><path d="M14.666 22H12c-.736 0-1.334.597-1.334 1.333V26c0 .736.598 1.333 1.334 1.333h2.666c.737 0 1.334-.597 1.334-1.333v-2.667c0-.736-.597-1.333-1.334-1.333zM12 26v-2.667h2.666V26H12z" fill="url(#bdpaint11_linear)"/><path d="M29.333 16v-.667c0-.736-.597-1.333-1.333-1.333h-2.667c-.736 0-1.333.597-1.333 1.333V16h1.333v-.667H28V16h1.333z" fill="url(#bdpaint12_linear)"/><defs><linearGradient id="bdpaint0_linear" x1="22.669" y1="18.178" x2="27.399" y2="36.415" gradientUnits="userSpaceOnUse"><stop stop-color="#FF9700"/><stop offset=".998" stop-color="#FF6800"/><stop offset="1" stop-color="#FF6802"/></linearGradient><linearGradient id="bdpaint1_linear" x1="25.57" y1="22.533" x2="27.519" y2="28.797" gradientUnits="userSpaceOnUse"><stop stop-color="#FF9700"/><stop offset=".998" stop-color="#FF6800"/><stop offset="1" stop-color="#FF6802"/></linearGradient><linearGradient id="bdpaint2_linear" x1="20.314" y1="27.422" x2="20.592" y2="28.495" gradientUnits="userSpaceOnUse"><stop stop-color="#FF9700"/><stop offset=".998" stop-color="#FF6800"/><stop offset="1" stop-color="#FF6802"/></linearGradient><linearGradient id="bdpaint3_linear" x1="28.314" y1="35.422" x2="28.592" y2="36.495" gradientUnits="userSpaceOnUse"><stop stop-color="#FF9700"/><stop offset=".998" stop-color="#FF6800"/><stop offset="1" stop-color="#FF6802"/></linearGradient><linearGradient id="bdpaint4_linear" x1="36.314" y1="27.422" x2="36.592" y2="28.495" gradientUnits="userSpaceOnUse"><stop stop-color="#FF9700"/><stop offset=".998" stop-color="#FF6800"/><stop offset="1" stop-color="#FF6802"/></linearGradient><linearGradient id="bdpaint5_linear" x1="28.314" y1="19.422" x2="28.592" y2="20.495" gradientUnits="userSpaceOnUse"><stop stop-color="#FF9700"/><stop offset=".998" stop-color="#FF6800"/><stop offset="1" stop-color="#FF6802"/></linearGradient><linearGradient id="bdpaint6_linear" x1="7.847" y1="2.8" x2="14.289" y2="28.675" gradientUnits="userSpaceOnUse"><stop stop-color="#FF9700"/><stop offset=".998" stop-color="#FF6800"/><stop offset="1" stop-color="#FF6802"/></linearGradient><linearGradient id="bdpaint7_linear" x1="5.256" y1="14.355" x2="6.368" y2="18.647" gradientUnits="userSpaceOnUse"><stop stop-color="#FF9700"/><stop offset=".998" stop-color="#FF6800"/><stop offset="1" stop-color="#FF6802"/></linearGradient><linearGradient id="bdpaint8_linear" x1="11.922" y1="14.355" x2="13.035" y2="18.647" gradientUnits="userSpaceOnUse"><stop stop-color="#FF9700"/><stop offset=".998" stop-color="#FF6800"/><stop offset="1" stop-color="#FF6802"/></linearGradient><linearGradient id="bdpaint9_linear" x1="18.589" y1="14.355" x2="19.702" y2="18.647" gradientUnits="userSpaceOnUse"><stop stop-color="#FF9700"/><stop offset=".998" stop-color="#FF6800"/><stop offset="1" stop-color="#FF6802"/></linearGradient><linearGradient id="bdpaint10_linear" x1="5.256" y1="22.355" x2="6.368" y2="26.647" gradientUnits="userSpaceOnUse"><stop stop-color="#FF9700"/><stop offset=".998" stop-color="#FF6800"/><stop offset="1" stop-color="#FF6802"/></linearGradient><linearGradient id="bdpaint11_linear" x1="11.922" y1="22.355" x2="13.035" y2="26.647" gradientUnits="userSpaceOnUse"><stop stop-color="#FF9700"/><stop offset=".998" stop-color="#FF6800"/><stop offset="1" stop-color="#FF6802"/></linearGradient><linearGradient id="bdpaint12_linear" x1="25.256" y1="14.133" x2="25.421" y2="15.835" gradientUnits="userSpaceOnUse"><stop stop-color="#FF9700"/><stop offset=".998" stop-color="#FF6800"/><stop offset="1" stop-color="#FF6802"/></linearGradient></defs></svg><svg fill="none" viewBox="0 0 30 30" id="zoom" xmlns="http://www.w3.org/2000/svg"><mask id="bea" maskUnits="userSpaceOnUse" x="0" y="0" width="27" height="26"><path fill-rule="evenodd" clip-rule="evenodd" d="M0 0h26.2v25.75H0V0z" fill="#fff"/></mask><g mask="url(#bea)"><path fill-rule="evenodd" clip-rule="evenodd" d="M13.1 2.704c-5.764 0-10.48 4.635-10.48 10.3 0 5.666 4.716 10.3 10.48 10.3s10.481-4.634 10.481-10.3c0-5.665-4.717-10.3-10.481-10.3m0 23.047C5.895 25.75 0 19.957 0 12.876 0 5.794 5.895 0 13.1 0c7.206 0 13.1 5.794 13.1 12.876 0 7.08-5.894 12.875-13.1 12.875" fill="#fff"/></g><mask id="beb" maskUnits="userSpaceOnUse" x="20" y="20" width="10" height="10"><path fill-rule="evenodd" clip-rule="evenodd" d="M29.999 30h-9.956v-9.786h9.956V30z" fill="#fff"/></mask><g mask="url(#beb)"><path fill-rule="evenodd" clip-rule="evenodd" d="M28.689 30c-.393 0-.654-.129-.917-.387l-7.336-7.21c-.524-.515-.524-1.287 0-1.802a1.28 1.28 0 011.834 0l7.336 7.21c.524.515.524 1.288 0 1.802-.262.258-.523.387-.917.387" fill="#fff"/></g><path fill-rule="evenodd" clip-rule="evenodd" d="M13.1 19.185c-.787 0-1.31-.515-1.31-1.288V7.726c0-.773.523-1.288 1.31-1.288.785 0 1.31.515 1.31 1.288v10.17c0 .645-.525 1.289-1.31 1.289" fill="#fff"/><path fill-rule="evenodd" clip-rule="evenodd" d="M18.342 14.034H7.992c-.786 0-1.31-.515-1.31-1.288 0-.772.524-1.287 1.31-1.287h10.35c.785 0 1.31.515 1.31 1.287 0 .773-.656 1.288-1.31 1.288" fill="#fff"/></svg></svg>