<?xml version="1.0" encoding="utf-8"?><svg viewBox="0 0 384 300" xmlns="http://www.w3.org/2000/svg" xmlns:xlink="http://www.w3.org/1999/xlink"><style>:root>svg{display:none}:root>svg:target{display:block}</style><svg id="arrow-right" data-name="Layer 1" viewBox="0 0 48 48" xmlns="http://www.w3.org/2000/svg"><defs><linearGradient id="alinear-gradient" x1="24" y1="61" x2="24" y2="1.8" gradientUnits="userSpaceOnUse"><stop offset="0" stop-color="#273a9b"/><stop offset=".56" stop-color="#202f65"/><stop offset="1" stop-color="#021e2f"/></linearGradient><linearGradient id="alinear-gradient-2" x1="24.64" y1="75" x2="24.64" y2="16.23" xlink:href="#alinear-gradient"/><linearGradient id="alinear-gradient-3" x1="24.64" y1="43.83" x2="24.64" y2="-19.17" gradientUnits="userSpaceOnUse"><stop offset="0" stop-color="#27e9de"/><stop offset=".52" stop-color="#03a4ec"/><stop offset="1" stop-color="#2547a8"/></linearGradient><style>.acls-1{fill:url(#alinear-gradient)}.acls-2{fill:url(#alinear-gradient-2)}.acls-3{fill:url(#alinear-gradient-3)}</style></defs><circle class="acls-1" cx="24" cy="24" r="21"/><path class="acls-2" d="M17.39 43.92a20.86 20.86 0 0014.51-.47V24l-14.51-7.12z"/><path class="acls-3" d="M20.13 34.43l-2.35-2.35a1.34 1.34 0 010-1.89L24 24l-6.19-6.19a1.34 1.34 0 010-1.89l2.35-2.35a1.34 1.34 0 011.89 0l9.48 9.48a1.34 1.34 0 010 1.89L22 34.43a1.34 1.34 0 01-1.87 0z"/></svg><svg viewBox="0 0 384 300" id="christmas-trees" xmlns="http://www.w3.org/2000/svg"><defs><pattern x="0" y="0" width="80" height="37.778" patternUnits="userSpaceOnUse" id="ba"><path class="bfill0" fill="#ebe8ff" d="M0 0v85h180V0z" transform="scale(.44444)"/><g class="bfill1" fill="#c8cce8"><path d="M2 7.4c2.9 0 3-1.3 3-3V0H0v7.4h2zM13.8 84.7c6.9 0 9.8-3.8 6.3-8.3-2.3-3.1-5.6-7.5-8.6-11.4 3.4-.6 4.5-2.8 2.5-5.5-1.9-2.4-4.6-6.1-6.9-9.1h.2c3.4 0 4.8-1.8 3.1-4.1-1.7-2.2-4.4-5.9-6.1-8.1-1.1-1.5-2.8-2-4.2-1.5V85h5v-.3h8.7zM177.2 4.4c0 1.6 0 2.9 2.8 3V0h-2.8v4.4zM90.2 7.4H92c2.9 0 3-1.3 3-3V0h-7.8v4.4c0 1.7 0 3 3 3zM178.1 38.2c-1.7 2.2-4.4 5.9-6.1 8.1-1.7 2.2-.3 4.1 3.1 4.1h.2c-2.2 3-5 6.6-6.9 9.1-2 2.7-.9 4.9 2.5 5.5-3 3.9-6.3 8.3-8.6 11.4-3.5 4.6-.6 8.3 6.3 8.3h8.7v.3h2.8V36.8c-.8.2-1.5.7-2 1.4zM104.3 84.7c6.9 0 9.8-3.8 6.3-8.3-2.3-3.1-5.6-7.5-8.6-11.4 3.4-.6 4.5-2.8 2.5-5.5-1.9-2.4-4.6-6.1-6.9-9.1h.2c3.4 0 4.8-1.8 3.1-4.1-1.7-2.2-4.4-5.9-6.1-8.1-1.7-2.2-4.4-2.2-6.1 0-1.7 2.2-4.4 5.9-6.1 8.1-1.7 2.2-.3 4.1 3.1 4.1h.2c-2.2 3-5 6.6-6.9 9.1-2 2.7-.9 4.9 2.5 5.5-3 3.9-6.3 8.3-8.6 11.4-3.5 4.6-.6 8.3 6.3 8.3h8.7v.3h7.6v-.3h8.8zM56.5 29.1c3.4-.6 4.5-2.8 2.5-5.5-1.9-2.4-4.6-6.1-6.9-9.1h.2c3.4 0 4.8-1.8 3.1-4.1-1.7-2.2-4.4-5.9-6.1-8.1-1.7-2.2-4.4-2.2-6.1 0-1.7 2.2-4.4 5.9-6.1 8.1-1.7 2.2-.3 4.1 3.1 4.1h.2c-2.2 3-5 6.6-6.9 9.1-2 2.7-.9 4.9 2.5 5.5-3 3.9-6.3 8.3-8.6 11.4-3.5 4.6-.6 8.3 6.3 8.3h8.7v4.7c0 1.7-.1 3 3 3h1.8c2.9 0 3-1.3 3-3v-4.7h8.7c6.9 0 9.8-3.8 6.3-8.3-2.4-3.1-5.7-7.5-8.7-11.4zM146.8 28.9c3.4-.6 4.5-2.8 2.5-5.5-1.9-2.4-4.6-6.1-6.9-9.1h.2c3.4 0 4.8-1.8 3.1-4.1-1.7-2.2-4.4-5.9-6.1-8.1-1.7-2.2-4.4-2.2-6.1 0-1.7 2.2-4.4 5.9-6.1 8.1-1.7 2.2-.3 4.1 3.1 4.1h.2c-2.2 3-5 6.6-6.9 9.1-2 2.7-.9 4.9 2.5 5.5-3 3.9-6.3 8.3-8.6 11.4-3.5 4.6-.6 8.3 6.3 8.3h8.7v4.7c0 1.7-.1 3 3 3h1.8c2.9 0 3-1.3 3-3v-4.7h8.7c6.9 0 9.8-3.8 6.3-8.3-2.4-3.1-5.7-7.5-8.7-11.4z" transform="scale(.44444)"/></g></pattern></defs><rect width="100%" height="100%" fill="url(#ba)"/></svg><svg viewBox="0 0 48 48" id="css" xmlns="http://www.w3.org/2000/svg"><path fill="#0277BD" d="M41 5H7l3 34 14 4 14-4 3-34z"/><path fill="#039BE5" d="M24 8v31.9l11.2-3.2L37.7 8z"/><path fill="#FFF" d="M33.1 13H24v4h4.9l-.3 4H24v4h4.4l-.3 4.5-4.1 1.4v4.2l7.9-2.6.7-11.5z"/><path fill="#EEE" d="M24 13v4h-8.9l-.3-4H24zm-4.6 8l.2 4H24v-4h-4.6zm.4 6h-4l.3 5.5 7.9 2.6v-4.2l-4.1-1.4-.1-2.5z"/></svg><svg viewBox="0 0 24 24" id="github" xmlns="http://www.w3.org/2000/svg"><path d="M10.9 2.1c-4.6.5-8.3 4.2-8.8 8.7-.5 4.7 2.2 8.9 6.3 10.5.3.1.6-.1.6-.5v-1.6s-.4.1-.9.1c-1.4 0-2-1.2-2.1-1.9-.1-.4-.3-.7-.6-1-.3-.1-.4-.1-.4-.2 0-.2.3-.2.4-.2.6 0 1.1.7 1.3 1 .5.8 1.1 1 1.4 1 .4 0 .7-.1.9-.2.1-.7.4-1.4 1-1.8-2.3-.5-4-1.8-4-4 0-1.1.5-2.2 1.2-3-.1-.2-.2-.7-.2-1.4 0-.4 0-1 .3-1.6 0 0 1.4 0 2.8 1.3.5-.2 1.2-.3 1.9-.3s1.4.1 2 .3C15.3 6 16.8 6 16.8 6c.2.6.2 1.2.2 1.6 0 .8-.1 1.2-.2 1.4.7.8 1.2 1.8 1.2 3 0 2.2-1.7 3.5-4 4 .6.5 1 1.4 1 2.3v2.6c0 .3.3.6.7.5 3.7-1.5 6.3-5.1 6.3-9.3 0-6-5.1-10.7-11.1-10z"/></svg><svg viewBox="0 0 48 48" id="html" xmlns="http://www.w3.org/2000/svg"><path fill="#E65100" d="M41 5H7l3 34 14 4 14-4 3-34z"/><path fill="#FF6D00" d="M24 8v31.9l11.2-3.2L37.7 8z"/><path fill="#FFF" d="M24 25v-4h8.6l-.7 11.5-7.9 2.6v-4.2l4.1-1.4.3-4.5H24zm8.9-8l.3-4H24v4h8.9z"/><path fill="#EEE" d="M24 30.9v4.2l-7.9-2.6-.4-5.5h4l.2 2.5 4.1 1.4zM19.1 17H24v-4h-9.1l.7 12H24v-4h-4.6l-.3-4z"/></svg><svg viewBox="0 0 48 48" id="js" xmlns="http://www.w3.org/2000/svg"><path fill="#ffd600" d="M6 42V6h36v36H6z"/><path fill="#000001" d="M29.538 32.947c.692 1.124 1.444 2.201 3.037 2.201 1.338 0 2.04-.665 2.04-1.585 0-1.101-.726-1.492-2.198-2.133l-.807-.344c-2.329-.988-3.878-2.226-3.878-4.841 0-2.41 1.845-4.244 4.728-4.244 2.053 0 3.528.711 4.592 2.573l-2.514 1.607c-.553-.988-1.151-1.377-2.078-1.377-.946 0-1.545.597-1.545 1.377 0 .964.6 1.354 1.985 1.951l.807.344C36.452 29.645 38 30.839 38 33.523 38 36.415 35.716 38 32.65 38c-2.999 0-4.702-1.505-5.65-3.368l2.538-1.685zm-11.586.082c.506.906 1.275 1.603 2.381 1.603 1.058 0 1.667-.418 1.667-2.043V22h3.333v11.101c0 3.367-1.953 4.899-4.805 4.899-2.577 0-4.437-1.746-5.195-3.368l2.619-1.603z"/></svg><svg viewBox="0 0 48 48" id="mail" xmlns="http://www.w3.org/2000/svg"><path fill="#1e88e5" d="M34 42H14c-4.411 0-8-3.589-8-8V14c0-4.411 3.589-8 8-8h20c4.411 0 8 3.589 8 8v20c0 4.411-3.589 8-8 8z"/><path fill="#fff" d="M35.926 17.488L29.414 24l6.511 6.511A1.96 1.96 0 0036 30V18c0-.178-.031-.347-.074-.512zm-9.238 6.411l7.824-7.825A2.017 2.017 0 0034 16H14c-.178 0-.347.031-.512.074l7.824 7.825a3.808 3.808 0 005.376 0zM24 27.009a5.777 5.777 0 01-3.99-1.605l-6.522 6.522c.165.043.334.074.512.074h20c.178 0 .347-.031.512-.074l-6.522-6.522A5.777 5.777 0 0124 27.009zm-11.926-9.521A2.017 2.017 0 0012 18v12c0 .178.031.347.074.512L18.586 24l-6.512-6.512z"/></svg><svg viewBox="0 0 48 48" id="python" xmlns="http://www.w3.org/2000/svg"><path fill="#0277BD" d="M24.047 5c-1.555.005-2.633.142-3.936.367-3.848.67-4.549 2.077-4.549 4.67V14h9v2H10.87c-2.636 0-4.943 1.242-5.674 4.219-.826 3.417-.863 5.557 0 9.125C5.851 32.005 7.294 34 9.931 34h3.632v-5.104c0-2.966 2.686-5.896 5.764-5.896h7.236c2.523 0 5-1.862 5-4.377v-8.586c0-2.439-1.759-4.263-4.218-4.672.061-.006-1.756-.371-3.298-.365zm-4.984 4c.821 0 1.5.677 1.5 1.502a1.5 1.5 0 01-1.5 1.498 1.49 1.49 0 01-1.5-1.498A1.5 1.5 0 0119.063 9z"/><path fill="#FFC107" d="M23.078 43c1.555-.005 2.633-.142 3.936-.367 3.848-.67 4.549-2.077 4.549-4.67V34h-9v-2h13.693c2.636 0 4.943-1.242 5.674-4.219.826-3.417.863-5.557 0-9.125C41.274 15.995 39.831 14 37.194 14h-3.632v5.104c0 2.966-2.686 5.896-5.764 5.896h-7.236c-2.523 0-5 1.862-5 4.377v8.586c0 2.439 1.759 4.263 4.218 4.672-.061.006 1.756.371 3.298.365zm4.985-4c-.821 0-1.5-.677-1.5-1.502a1.5 1.5 0 011.5-1.498c.837 0 1.5.664 1.5 1.498 0 .822-.664 1.502-1.5 1.502z"/></svg><svg viewBox="0 0 250 250" id="stepik" xmlns="http://www.w3.org/2000/svg"><path d="M205.3 77.5l-32.9-32.9C159.8 32 142.9 25 125 25s-34.8 7-47.5 19.7L44.7 77.5C32 90.2 25 107.1 25 125s7 34.8 19.7 47.5l32.9 32.9C90.2 218 107.1 225 125 225c17.4 0 34-6.7 46.6-18.8l.1-.1.1-.1 33.6-33.6C218 159.8 225 142.9 225 125s-7-34.8-19.7-47.5z"/><path fill="#FFF" d="M149 182.9c-6.2 6-14.7 9.7-24.1 9.7-9.6 0-18.2-3.9-24.5-10.2l16.2-16.2c2.1 2.1 5.1 3.5 8.3 3.5 3.3 0 6.2-1.3 8.3-3.5l32.9-32.9c2.1-2.1 3.5-5.1 3.5-8.3 0-3.3-1.3-6.2-3.5-8.3-2.1-2.1-5.1-3.5-8.3-3.5-3.3 0-6.2 1.3-8.3 3.5l-32.9 32.9c-6.3 6.3-15 10.2-24.5 10.2-9.6 0-18.2-3.9-24.5-10.2-6.3-6.3-10.2-15-10.2-24.5 0-9.6 3.9-18.2 10.2-24.5l32.9-32.9c6.3-6.3 15-10.2 24.5-10.2 9.6 0 18.2 3.9 24.5 10.2l-16.2 16.2c-2.1-2.1-5.1-3.5-8.3-3.5-3.3 0-6.2 1.3-8.3 3.5l-32.9 32.9c-2.1 2.1-3.5 5.1-3.5 8.3 0 3.3 1.3 6.2 3.5 8.3 2.1 2.1 5.1 3.5 8.3 3.5 3.3 0 6.2-1.3 8.3-3.5l32.9-32.9c6.3-6.3 15-10.2 24.5-10.2s18.2 3.9 24.5 10.2c6.3 6.3 10.2 15 10.2 24.5 0 9.6-3.9 18.2-10.2 24.5L149 182.9z"/></svg><svg viewBox="0 0 48 48" id="vk" xmlns="http://www.w3.org/2000/svg"><path fill="#1976d2" d="M24 4a20 20 0 100 40 20 20 0 100-40z"/><path fill="#fff" d="M35.937 18.041c.046-.151.068-.291.062-.416-.015-.362-.264-.625-.85-.625h-2.618c-.661 0-.966.4-1.144.801 0 0-1.632 3.359-3.513 5.574-.61.641-.92.625-1.25.625-.177 0-.624-.214-.624-.801v-5.185c0-.694-.173-1.014-.732-1.014h-4.649c-.407 0-.619.32-.619.641 0 .667.898.827 1 2.696v3.623c0 .88-.153 1.04-.483 1.04-.89 0-2.642-3-3.815-6.932-.254-.774-.508-1.068-1.169-1.068H12.89c-.763 0-.89.374-.89.774 0 .721.6 4.619 3.875 9.101C18.25 30.125 21.379 32 24.149 32c1.678 0 1.85-.427 1.85-1.094v-2.972c.001-.801.184-.934.718-.934.381 0 1.158.25 2.658 2 1.73 2.018 2.044 3 3.036 3h2.618c.608 0 .957-.255.971-.75a1.542 1.542 0 00-.056-.424c-.194-.576-1.084-1.984-2.194-3.326-.615-.743-1.222-1.479-1.501-1.879-.187-.261-.258-.445-.249-.621.009-.185.105-.361.249-.607-.026 0 3.358-4.751 3.688-6.352z"/></svg></svg>