<?xml version="1.0" encoding="utf-8"?><svg viewBox="0 0 2000 2000" xmlns="http://www.w3.org/2000/svg" xmlns:xlink="http://www.w3.org/1999/xlink"><style>:root>svg{display:none}:root>svg:target{display:block}</style><svg id="arrow-right" data-name="Layer 1" viewBox="0 0 48 48" xmlns="http://www.w3.org/2000/svg"><defs><linearGradient id="alinear-gradient" x1="24" y1="61" x2="24" y2="1.8" gradientUnits="userSpaceOnUse"><stop offset="0" stop-color="#273a9b"/><stop offset=".56" stop-color="#202f65"/><stop offset="1" stop-color="#021e2f"/></linearGradient><linearGradient id="alinear-gradient-2" x1="24.64" y1="75" x2="24.64" y2="16.23" xlink:href="#alinear-gradient"/><linearGradient id="alinear-gradient-3" x1="24.64" y1="43.83" x2="24.64" y2="-19.17" gradientUnits="userSpaceOnUse"><stop offset="0" stop-color="#27e9de"/><stop offset=".52" stop-color="#03a4ec"/><stop offset="1" stop-color="#2547a8"/></linearGradient><style>.acls-1{fill:url(#alinear-gradient)}.acls-2{fill:url(#alinear-gradient-2)}.acls-3{fill:url(#alinear-gradient-3)}</style></defs><circle class="acls-1" cx="24" cy="24" r="21"/><path class="acls-2" d="M17.39 43.92a20.86 20.86 0 0014.51-.47V24l-14.51-7.12z"/><path class="acls-3" d="M20.13 34.43l-2.35-2.35a1.34 1.34 0 010-1.89L24 24l-6.19-6.19a1.34 1.34 0 010-1.89l2.35-2.35a1.34 1.34 0 011.89 0l9.48 9.48a1.34 1.34 0 010 1.89L22 34.43a1.34 1.34 0 01-1.87 0z"/></svg><svg viewBox="0 0 384 300" id="christmas-trees" xmlns="http://www.w3.org/2000/svg"><defs><pattern x="0" y="0" width="80" height="37.778" patternUnits="userSpaceOnUse" id="ba"><path class="bfill0" fill="#ebe8ff" d="M0 0v85h180V0z" transform="scale(.44444)"/><g class="bfill1" fill="#c8cce8"><path d="M2 7.4c2.9 0 3-1.3 3-3V0H0v7.4h2zM13.8 84.7c6.9 0 9.8-3.8 6.3-8.3-2.3-3.1-5.6-7.5-8.6-11.4 3.4-.6 4.5-2.8 2.5-5.5-1.9-2.4-4.6-6.1-6.9-9.1h.2c3.4 0 4.8-1.8 3.1-4.1-1.7-2.2-4.4-5.9-6.1-8.1-1.1-1.5-2.8-2-4.2-1.5V85h5v-.3h8.7zM177.2 4.4c0 1.6 0 2.9 2.8 3V0h-2.8v4.4zM90.2 7.4H92c2.9 0 3-1.3 3-3V0h-7.8v4.4c0 1.7 0 3 3 3zM178.1 38.2c-1.7 2.2-4.4 5.9-6.1 8.1-1.7 2.2-.3 4.1 3.1 4.1h.2c-2.2 3-5 6.6-6.9 9.1-2 2.7-.9 4.9 2.5 5.5-3 3.9-6.3 8.3-8.6 11.4-3.5 4.6-.6 8.3 6.3 8.3h8.7v.3h2.8V36.8c-.8.2-1.5.7-2 1.4zM104.3 84.7c6.9 0 9.8-3.8 6.3-8.3-2.3-3.1-5.6-7.5-8.6-11.4 3.4-.6 4.5-2.8 2.5-5.5-1.9-2.4-4.6-6.1-6.9-9.1h.2c3.4 0 4.8-1.8 3.1-4.1-1.7-2.2-4.4-5.9-6.1-8.1-1.7-2.2-4.4-2.2-6.1 0-1.7 2.2-4.4 5.9-6.1 8.1-1.7 2.2-.3 4.1 3.1 4.1h.2c-2.2 3-5 6.6-6.9 9.1-2 2.7-.9 4.9 2.5 5.5-3 3.9-6.3 8.3-8.6 11.4-3.5 4.6-.6 8.3 6.3 8.3h8.7v.3h7.6v-.3h8.8zM56.5 29.1c3.4-.6 4.5-2.8 2.5-5.5-1.9-2.4-4.6-6.1-6.9-9.1h.2c3.4 0 4.8-1.8 3.1-4.1-1.7-2.2-4.4-5.9-6.1-8.1-1.7-2.2-4.4-2.2-6.1 0-1.7 2.2-4.4 5.9-6.1 8.1-1.7 2.2-.3 4.1 3.1 4.1h.2c-2.2 3-5 6.6-6.9 9.1-2 2.7-.9 4.9 2.5 5.5-3 3.9-6.3 8.3-8.6 11.4-3.5 4.6-.6 8.3 6.3 8.3h8.7v4.7c0 1.7-.1 3 3 3h1.8c2.9 0 3-1.3 3-3v-4.7h8.7c6.9 0 9.8-3.8 6.3-8.3-2.4-3.1-5.7-7.5-8.7-11.4zM146.8 28.9c3.4-.6 4.5-2.8 2.5-5.5-1.9-2.4-4.6-6.1-6.9-9.1h.2c3.4 0 4.8-1.8 3.1-4.1-1.7-2.2-4.4-5.9-6.1-8.1-1.7-2.2-4.4-2.2-6.1 0-1.7 2.2-4.4 5.9-6.1 8.1-1.7 2.2-.3 4.1 3.1 4.1h.2c-2.2 3-5 6.6-6.9 9.1-2 2.7-.9 4.9 2.5 5.5-3 3.9-6.3 8.3-8.6 11.4-3.5 4.6-.6 8.3 6.3 8.3h8.7v4.7c0 1.7-.1 3 3 3h1.8c2.9 0 3-1.3 3-3v-4.7h8.7c6.9 0 9.8-3.8 6.3-8.3-2.4-3.1-5.7-7.5-8.7-11.4z" transform="scale(.44444)"/></g></pattern></defs><rect width="100%" height="100%" fill="url(#ba)"/></svg><svg viewBox="0 0 48 48" id="css" xmlns="http://www.w3.org/2000/svg"><path fill="#0277BD" d="M41 5H7l3 34 14 4 14-4 3-34z"/><path fill="#039BE5" d="M24 8v31.9l11.2-3.2L37.7 8z"/><path fill="#FFF" d="M33.1 13H24v4h4.9l-.3 4H24v4h4.4l-.3 4.5-4.1 1.4v4.2l7.9-2.6.7-11.5z"/><path fill="#EEE" d="M24 13v4h-8.9l-.3-4H24zm-4.6 8l.2 4H24v-4h-4.6zm.4 6h-4l.3 5.5 7.9 2.6v-4.2l-4.1-1.4-.1-2.5z"/></svg><svg viewBox="0 0 24 24" id="github" xmlns="http://www.w3.org/2000/svg"><path d="M10.9 2.1c-4.6.5-8.3 4.2-8.8 8.7-.5 4.7 2.2 8.9 6.3 10.5.3.1.6-.1.6-.5v-1.6s-.4.1-.9.1c-1.4 0-2-1.2-2.1-1.9-.1-.4-.3-.7-.6-1-.3-.1-.4-.1-.4-.2 0-.2.3-.2.4-.2.6 0 1.1.7 1.3 1 .5.8 1.1 1 1.4 1 .4 0 .7-.1.9-.2.1-.7.4-1.4 1-1.8-2.3-.5-4-1.8-4-4 0-1.1.5-2.2 1.2-3-.1-.2-.2-.7-.2-1.4 0-.4 0-1 .3-1.6 0 0 1.4 0 2.8 1.3.5-.2 1.2-.3 1.9-.3s1.4.1 2 .3C15.3 6 16.8 6 16.8 6c.2.6.2 1.2.2 1.6 0 .8-.1 1.2-.2 1.4.7.8 1.2 1.8 1.2 3 0 2.2-1.7 3.5-4 4 .6.5 1 1.4 1 2.3v2.6c0 .3.3.6.7.5 3.7-1.5 6.3-5.1 6.3-9.3 0-6-5.1-10.7-11.1-10z"/></svg><svg viewBox="0 0 32 32" id="gulp" xmlns="http://www.w3.org/2000/svg"><path d="M22.154 1a.14.14 0 00-.093.033l-3.715 4.412-.758 2.606a48.434 48.434 0 00-1.592-.024c-3.86 0-6.996.41-6.996.916 0 1.21 13.99 1.21 13.99 0 0-.375-1.675-.691-4.09-.841l.6-2.145 3.475-4.18.005-.006c.078-.08-.074-.324-.322-.537-.186-.16-.381-.239-.504-.234zm-4.851 8.076l-.014.041c-.006.005-.006.012-.006.018 0 .075.303.136.672.136.37 0 .674-.061.674-.136l.012-.047c.097.035.15.075.15.121 0 .121-.375.22-.842.215-.454 0-.83-.092-.83-.213 0-.052.075-.1.184-.135zm5.61.344c-1.852.987-11.963.994-13.821.014l.822 7.232c.357-1.153 1.26-2.71 2.422-3.182.38-.156.768-.155 1.13.053.316.173.582.536.612.68.073.375-.12.523-.271.523-.182 0-.321-.264-.412-.42-.248-.42-.624-.439-1.024-.162-.418.288-.781.773-1.035 1.194a6.631 6.631 0 00-.727 1.625c-.09.323-.174.84-.035 1.146.061.127.151.207.297.207.303 0 .743-.38.955-.582.272-.259.623-.663.756-.922l.316-.892c.157-.392.598-.323.598 0 0 .588-.222.784-.603 2-.351 1.124-.461 1.488-.461 1.488-.042.16-.206.432-.381.432-.073 0-.126-.025-.156-.07-.061-.082-.055-.304-.05-.362.013-.184.381-1.28.442-1.453a7.36 7.36 0 01-.387.38c-.327.295-.852.68-1.3.68a.762.762 0 01-.465-.138l.459 4.588c.12.288 2.373.986 5.338.986 2.97 0 5.22-.703 5.336-.986l.66-5.452c-.345.3-.744.67-1.186.854-.327.133-1.053.218-1.053-.33 0-.3.552-.852.872-1.238.085-.098.283-.34.283-.467 0-.167-.362-.129-.707.142a3.373 3.373 0 00-.528.56c-.26.347-.398.645-.513.893-.375.818-.248.496-.551 1.268-.303.767-.254.68-.315.807a.565.565 0 01-.242.26.38.38 0 01-.369-.018c-.054-.035-.08-.11-.08-.213 0-.052.008-.104.02-.156.09-.352.472-1.043.908-1.977.097-.213.06-.15.047-.133-.375.346-.66.514-.871.606-.351.15-.787.15-.877-.237-.006-.023-.006-.047-.012-.07-.714.53-1.47.674-1.21-.467-.277.473-.763.86-1.357.86-.247 0-.429-.08-.519-.293-.139-.317.078-.86.277-1.373.103-.26.244-.57.432-.934.097-.196.253-.312.459-.26a.54.54 0 01.098.041c.157.104.096.258.017.414-.23.432-.43.75-.562 1.2-.054.19-.122.52.09.52a.728.728 0 00.417-.14c.278-.196.502-.489.672-.777a3.85 3.85 0 00.34-.709c.03-.098.068-.19.11-.277.067-.144.156-.293.314-.293.079 0 .144.029.193.086.103.127.08.257.026.396-.121.323-.284.612-.418.963-.08.202-.164.461-.164.674 0 .196.224.15.412.068.145-.063.29-.16.412-.257.073-.282.054-.22 1.598-3.932.079-.19.224-.272.369-.272a.34.34 0 01.193.065c.103.075.105.234.063.355-.042.11-.038.076-.274.606-.315.697-.52 1.2-.799 1.84-.115.265-.465 1.089-.525 1.285-.036.127-.08.334.06.334.328 0 1.169-.756 1.399-.98.012-.018.03-.024.055-.036.036-.11.071-.212.101-.316.085-.22.164-.475.322-.653.048-.058.103-.091.163-.091.169 0 .253.068.253.23 0 .063-.04.295-.066.358.085-.086.175-.172.272-.258.908-.801 1.554-.393 1.554.011 0 .426-.538 1.02-.834 1.348-.097.11-.296.311-.302.37 0 .074.053.105.132.105.121 0 .388-.203.485-.272.303-.225.713-.57 1.004-.812l.896-7.885zM10.93 24.03l.902 1.465.352 4.576c0 .513 1.712.928 3.818.928s3.818-.415 3.818-.928l.28-4.623.851-1.418c-2.397.963-7.527.997-10.021 0z"/></svg><svg viewBox="0 0 48 48" id="html" xmlns="http://www.w3.org/2000/svg"><path fill="#E65100" d="M41 5H7l3 34 14 4 14-4 3-34z"/><path fill="#FF6D00" d="M24 8v31.9l11.2-3.2L37.7 8z"/><path fill="#FFF" d="M24 25v-4h8.6l-.7 11.5-7.9 2.6v-4.2l4.1-1.4.3-4.5H24zm8.9-8l.3-4H24v4h8.9z"/><path fill="#EEE" d="M24 30.9v4.2l-7.9-2.6-.4-5.5h4l.2 2.5 4.1 1.4zM19.1 17H24v-4h-9.1l.7 12H24v-4h-4.6l-.3-4z"/></svg><svg viewBox="0 0 48 48" id="js" xmlns="http://www.w3.org/2000/svg"><path fill="#ffd600" d="M6 42V6h36v36H6z"/><path fill="#000001" d="M29.538 32.947c.692 1.124 1.444 2.201 3.037 2.201 1.338 0 2.04-.665 2.04-1.585 0-1.101-.726-1.492-2.198-2.133l-.807-.344c-2.329-.988-3.878-2.226-3.878-4.841 0-2.41 1.845-4.244 4.728-4.244 2.053 0 3.528.711 4.592 2.573l-2.514 1.607c-.553-.988-1.151-1.377-2.078-1.377-.946 0-1.545.597-1.545 1.377 0 .964.6 1.354 1.985 1.951l.807.344C36.452 29.645 38 30.839 38 33.523 38 36.415 35.716 38 32.65 38c-2.999 0-4.702-1.505-5.65-3.368l2.538-1.685zm-11.586.082c.506.906 1.275 1.603 2.381 1.603 1.058 0 1.667-.418 1.667-2.043V22h3.333v11.101c0 3.367-1.953 4.899-4.805 4.899-2.577 0-4.437-1.746-5.195-3.368l2.619-1.603z"/></svg><svg viewBox="0 0 48 48" id="mail" xmlns="http://www.w3.org/2000/svg"><path fill="#1e88e5" d="M34 42H14c-4.411 0-8-3.589-8-8V14c0-4.411 3.589-8 8-8h20c4.411 0 8 3.589 8 8v20c0 4.411-3.589 8-8 8z"/><path fill="#fff" d="M35.926 17.488L29.414 24l6.511 6.511A1.96 1.96 0 0036 30V18c0-.178-.031-.347-.074-.512zm-9.238 6.411l7.824-7.825A2.017 2.017 0 0034 16H14c-.178 0-.347.031-.512.074l7.824 7.825a3.808 3.808 0 005.376 0zM24 27.009a5.777 5.777 0 01-3.99-1.605l-6.522 6.522c.165.043.334.074.512.074h20c.178 0 .347-.031.512-.074l-6.522-6.522A5.777 5.777 0 0124 27.009zm-11.926-9.521A2.017 2.017 0 0012 18v12c0 .178.031.347.074.512L18.586 24l-6.512-6.512z"/></svg><svg id="pug" viewBox="0 0 128 128" xmlns="http://www.w3.org/2000/svg"><style>.ist1{fill:#efcca3}.ist3{fill:#ccac8d}.ist4{fill:#fff}.ist7{fill:#56332b}.ist8{fill:#442823}.ist9{fill:#7f4a41}.ist10{fill:#331712}</style><path class="ist1" d="M107.4 50.9c-.2-4.4.4-8.3-1.6-11.6-4.8-8.2-16.8-13-40.8-13v.7h-.5.5v-.7c-24 0-36.6 4.8-41.4 13.1-1.9 3.4-1.7 7.2-2 11.6-.2 3.5-1.8 7.2-1.1 11.2.8 5.2 1.1 10.4 1.9 15.2.6 3.9 6 7.2 6.5 10.9 1.4 10.2 12 14.9 36 14.9v.8h-.6.7v-.8c24 0 34.2-4.7 35.5-14.9.5-3.8 5.5-7 6.1-10.9.8-4.8 1.1-10 1.9-15.2.7-4-.9-7.8-1.1-11.3z"/><path class="ist3" d="M64.6 54.5c4.3.1 7.3 2.8 10.1 5.3 3.3 2.9 8.9 4.9 11.2 7.4 2.3 2.5 5.3 5 6.4 8.9 1.1 3.9 1.4 8.9 1.4 10.2 0 1.3.7 1 2.7 0 4.7-2.3 9.9-8.5 9.9-8.5-.6 3.9-5.7 7.4-6.2 11.1C98.9 99.1 89 104 64.5 104h-.1.6"/><path class="ist3" d="M80.4 46.7c.9 3.1 4.1 13.6-2.1 10.1 0 0 2.6 1.5 4.2 7.2 1.7 5.7 5.8 6.4 5.8 6.4s6.7 1.3 11.7-3c4.2-3.6 4.9-10 3.1-14.9-1.8-4.8-5-6.3-9.7-7.3-4.7-1.1-14.1-2-13 1.5z"/><circle cx="92.3" cy="58.1" r="8.8"/><circle class="ist4" cx="90" cy="54.2" r="2.3"/><path class="ist1" d="M78.9 57.7s7.9 5.4 12.2 10.7c4.3 5.3 4.2 6.3 4.2 6.3l-3.1 1.4s-4.4-8.3-9.8-11.4c-5.5-3.1-6.1-5.7-6.1-5.7l2.6-1.3z"/><path class="ist3" d="M64.9 54.5c-4.3.1-7.5 2.8-10.4 5.3-3.3 2.9-9.1 4.9-11.4 7.4-2.3 2.5-5.4 5-6.5 8.9-1.1 3.9-1.5 8.9-1.5 10.2 0 1.3.2 1.4-2.7 0-4.7-2.2-9.9-8.5-9.9-8.5.6 3.9 5.7 7.4 6.2 11.1C30.1 99.1 40 104 64.5 104h.5"/><path class="ist7" d="M88.1 71.4C83.3 65.5 75.6 60 64.9 60h-.1c-10.7 0-18.4 5.5-23.2 11.4-5 6.1-4.6 8.5-4.6 14.3 0 21 7.4 15 12.3 17.6 5 2.5 10.2 1.7 15.5 1.7h.1c5.4 0 10.5.7 15.5-1.8 4.9-2.5 12.3 3.7 12.3-17.3.1-5.8.4-8.4-4.6-14.5z"/><path class="ist8" d="M64.4 65.2s-.7 9.7-2.1 11.6l2.6-.6-.5-11z"/><path class="ist8" d="M65.1 65.2s.7 9.7 2.1 11.6l-2.6-.6.5-11z"/><path class="ist7" d="M56.7 62.9c-1-2.3 2.6-6 8.3-6.1 5.7 0 9.3 3.7 8.3 6.1-1 2.4-4.6 3.1-8.3 3.2-3.6-.1-7.3-.8-8.3-3.2z"/><path d="M65 65.2c0-.4 3.4-.5 5.2-1.7 0 0-3.7 1.2-4.5.7-.8-.4-1-1.6-1-1.6s-.3 1.2-.9 1.6c-.7.4-4.9-.7-4.9-.7s5.6 1.4 5.6 1.7c0 .3-.1 1.3-.1 2 0 2.5 0 8.7.4 9.2.6.9.4-6.7.4-9.2-.1-.8-.1-1.6-.2-2z"/><path class="ist9" d="M65.2 78.6c1.7 0 4.7 1.2 7.4 3.1-2.6-2.9-5.7-4.9-7.4-4.9-1.8 0-5.6 2.2-8.3 5.4 2.8-2.2 6.4-3.6 8.3-3.6z"/><path class="ist8" d="M64.5 96.3c-3.8 0-7.5-1.2-10.9-2.1-.7-.2-1.4.3-2.1.1-6.3-2-11.4-5.4-14.5-9.7v1c0 21 7.4 15.1 12.3 17.6 5 2.5 10.2 1.7 15.5 1.7h.1c5.4 0 10.5.7 15.5-1.8 4.9-2.5 12.3 3.6 12.3-17.4 0-.8 0-1.6.1-2.3-2.9 4.7-8.2 8.4-14.8 10.6-.6.2-2-.3-2.6-.2-3.6 1.2-6.8 2.5-10.9 2.5z"/><path class="ist8" d="M55 85s-2.5 7.5-.8 10.8l-2.3-1s1.7-7.6 3.1-9.8zm19.8 0s2.5 7.5.8 10.8l2.3-1s-1.8-7.6-3.1-9.8z"/><path class="ist3" d="M48.6 46.7c-.9 3.1-4.1 13.6 2.1 10.1 0 0-2.6 1.5-4.2 7.2s-5.8 6.4-5.8 6.4-6.7 1.3-11.7-3c-4.2-3.6-4.9-10-3.1-14.9s5-6.3 9.7-7.3c4.7-1.1 14-2 13 1.5z"/><path d="M64.9 76.8c2.7 0 11.1 5.8 11.2 12.9v-.4c0-7.4-6.8-13.3-11.2-13.3-4.4 0-11.2 6-11.2 13.3v.4c.1-7.1 8.5-12.9 11.2-12.9z"/><ellipse transform="rotate(-14.465 66.712 61.468)" class="ist10" cx="66.7" cy="61.5" rx=".8" ry="1.5"/><ellipse transform="rotate(17.235 62.371 61.462)" class="ist10" cx="62.4" cy="61.5" rx=".8" ry="1.5"/><circle cx="37.2" cy="58.1" r="8.8"/><circle class="ist4" cx="39.5" cy="54.2" r="2.3"/><path class="ist9" d="M67.5 58.2c0-.1-2.3 1-2.9 1.1-.6-.1-2.9-1.2-2.9-1.1h5.8z"/><path class="ist1" d="M50 57.7s-7.9 5.4-12.2 10.7c-4.3 5.3-4.2 6.3-4.2 6.3l3.1 1.4s4.4-8.3 9.8-11.4 6.1-5.7 6.1-5.7L50 57.7z"/><path class="ist3" d="M32.7 41.7S30 49.1 24 52.2c0 0 9.4-1.1 8.7-10.5zm63.1 0s2.7 7.4 8.7 10.5c0 0-9.4-1.1-8.7-10.5zM78.7 55.5s-5.9-6.2-13.8-6.4h.2c-8 .2-13.8 6.4-13.8 6.4 6.9-4.8 12.8-4.7 13.8-4.7-.1 0 6.7-.1 13.6 4.7zm-6.9-13s-3-4.2-7-4.3h.2c-3 .1-6.9 4.3-6.9 4.3 3.4-3.3 6.9-3.2 6.9-3.2s3.3-.1 6.8 3.2zM37.2 73.2s-4.7 2.3-8.1.9H29c-3-1.7-4.5-6.8-4.5-6.8s3 9 12.7 5.9zm54.8 0s4.7 2.3 8.1.9c4-1.7 4.6-6.8 4.6-6.8s-3 9-12.7 5.9z"/><path class="ist3" d="M42.6 41.2c2.6-.5 6.9-.6 10.3.5 4.3 1.5.8 7 1.7 7.3.9.3 2.1-3.8 10.1-3.4 8.1.4 9 4 10.1 3.4s-1.1-10 11-7.8c0 0-12.7-3.4-12.1 5.8 0 0-7.3-5.6-17.5-.6.1 0 2.7-8.6-13.6-5.2zm44.3 0c.2 0 .3.1.4.1.1 0-.1-.1-.4-.1zm0 0zM39.1 28.9S28.3 42.5 26.7 47.7c-1.6 5.3-2.8 27-4.2 30.1l-5-21.4 9.2-22.3 12.4-5.2zm50.8 0s10.8 13.6 12.4 18.8c1.6 5.3 2.8 27 4.2 30.1l5-21.4-9.2-22.3-12.4-5.2z"/><path class="ist7" d="M89.4 28.9s11.6 9.7 15 20.9c3.4 11.2 2 24.8 4.6 26.5 3.7 2.4 7.9-11.9 9.3-13.4 2.2-2.4 9.5-8.5 10-9.6.5-1.1-14.8-17.8-21.5-21.1-8.1-3.8-18.1-4.1-17.4-3.3z"/><path class="ist8" d="M99.3 34.9s13.7 17.5 13.5 39.3l5.5-11.2c-.1 0-4.9-14.3-19-28.1z"/><path class="ist7" d="M39.1 28.9s-11.6 9.7-15 20.9-2 24.8-4.6 26.5c-3.7 2.4-7.9-11.9-9.3-13.4C8 60.5.7 54.4.2 53.3-.3 52.2 15 35.5 21.7 32.2c8.1-3.8 18.1-4.1 17.4-3.3z"/><path class="ist8" d="M29.2 34.9S15.5 52.4 15.7 74.2L10.3 63s4.8-14.3 18.9-28.1z"/><path class="ist3" d="M21.8 74.6s1 5.4 2.6 7.1.5-1.3.5-1.3-1.7-.9-1.4-7.8-1.7 2-1.7 2zm85.3 0s-1 5.4-2.6 7.1-.5-1.3-.5-1.3 1.7-.9 1.4-7.8 1.7 2 1.7 2z"/><circle class="ist8" cx="54.5" cy="70.5" r=".8"/><circle class="ist8" cx="49.9" cy="75.3" r=".8"/><circle class="ist8" cx="48.4" cy="70.5" r=".8"/><g><circle class="ist8" cx="74" cy="70.5" r=".8"/><circle class="ist8" cx="78.6" cy="75.3" r=".8"/><circle class="ist8" cx="80.1" cy="70.5" r=".8"/></g></svg><svg viewBox="0 0 48 48" id="python" xmlns="http://www.w3.org/2000/svg"><path fill="#0277BD" d="M24.047 5c-1.555.005-2.633.142-3.936.367-3.848.67-4.549 2.077-4.549 4.67V14h9v2H10.87c-2.636 0-4.943 1.242-5.674 4.219-.826 3.417-.863 5.557 0 9.125C5.851 32.005 7.294 34 9.931 34h3.632v-5.104c0-2.966 2.686-5.896 5.764-5.896h7.236c2.523 0 5-1.862 5-4.377v-8.586c0-2.439-1.759-4.263-4.218-4.672.061-.006-1.756-.371-3.298-.365zm-4.984 4c.821 0 1.5.677 1.5 1.502a1.5 1.5 0 01-1.5 1.498 1.49 1.49 0 01-1.5-1.498A1.5 1.5 0 0119.063 9z"/><path fill="#FFC107" d="M23.078 43c1.555-.005 2.633-.142 3.936-.367 3.848-.67 4.549-2.077 4.549-4.67V34h-9v-2h13.693c2.636 0 4.943-1.242 5.674-4.219.826-3.417.863-5.557 0-9.125C41.274 15.995 39.831 14 37.194 14h-3.632v5.104c0 2.966-2.686 5.896-5.764 5.896h-7.236c-2.523 0-5 1.862-5 4.377v8.586c0 2.439 1.759 4.263 4.218 4.672-.061.006 1.756.371 3.298.365zm4.985-4c-.821 0-1.5-.677-1.5-1.502a1.5 1.5 0 011.5-1.498c.837 0 1.5.664 1.5 1.498 0 .822-.664 1.502-1.5 1.502z"/></svg><svg viewBox="0 0 48 48" id="scss" xmlns="http://www.w3.org/2000/svg"><path fill="#f06292" fill-rule="evenodd" d="M24.042 4.032C35.065 4.032 44 12.967 44 23.99c0 11.022-8.935 19.958-19.958 19.958-11.022 0-19.958-8.935-19.958-19.958.001-11.023 8.936-19.958 19.958-19.958z" clip-rule="evenodd"/><path fill="#fff" d="M36.561 12.574c-.904-3.545-6.781-4.71-12.343-2.734-3.31 1.176-6.894 3.022-9.471 5.432-3.064 2.866-3.552 5.36-3.351 6.402.71 3.677 5.749 6.081 7.82 7.865v.011c-.611.301-5.081 2.563-6.127 4.876-1.104 2.44.176 4.191 1.023 4.427 2.625.73 5.318-.583 6.766-2.742 1.397-2.084 1.281-4.774.674-6.113.837-.221 1.814-.32 3.054-.175 3.501.409 4.188 2.595 4.056 3.51-.131.915-.866 1.418-1.111 1.57-.246.152-.32.205-.3.317.03.164.143.158.353.123.288-.049 1.838-.744 1.905-2.433.084-2.144-1.97-4.542-5.608-4.48-1.498.026-2.44.168-3.121.422l-.154-.171c-2.249-2.4-6.407-4.097-6.231-7.323.064-1.173.472-4.261 7.989-8.007 6.158-3.069 11.088-2.224 11.94-.353 1.217 2.674-2.635 7.643-9.03 8.36-2.437.273-3.72-.671-4.039-1.023-.336-.37-.386-.387-.511-.317-.204.113-.075.44 0 .635.191.497.975 1.378 2.31 1.817 1.175.386 4.036.597 7.496-.741 3.874-1.5 6.9-5.67 6.011-9.155zM20.076 30.638c.29 1.074.258 2.076-.041 2.983a4.662 4.662 0 01-.239.591c-.231.48-.542.929-.922 1.344-1.16 1.265-2.78 1.743-3.474 1.34-.75-.435-.374-2.218.97-3.64 1.446-1.529 3.527-2.512 3.527-2.512l-.003-.006.182-.1z"/></svg><svg viewBox="0 0 250 250" id="stepik" xmlns="http://www.w3.org/2000/svg"><path d="M205.3 77.5l-32.9-32.9C159.8 32 142.9 25 125 25s-34.8 7-47.5 19.7L44.7 77.5C32 90.2 25 107.1 25 125s7 34.8 19.7 47.5l32.9 32.9C90.2 218 107.1 225 125 225c17.4 0 34-6.7 46.6-18.8l.1-.1.1-.1 33.6-33.6C218 159.8 225 142.9 225 125s-7-34.8-19.7-47.5z"/><path fill="#FFF" d="M149 182.9c-6.2 6-14.7 9.7-24.1 9.7-9.6 0-18.2-3.9-24.5-10.2l16.2-16.2c2.1 2.1 5.1 3.5 8.3 3.5 3.3 0 6.2-1.3 8.3-3.5l32.9-32.9c2.1-2.1 3.5-5.1 3.5-8.3 0-3.3-1.3-6.2-3.5-8.3-2.1-2.1-5.1-3.5-8.3-3.5-3.3 0-6.2 1.3-8.3 3.5l-32.9 32.9c-6.3 6.3-15 10.2-24.5 10.2-9.6 0-18.2-3.9-24.5-10.2-6.3-6.3-10.2-15-10.2-24.5 0-9.6 3.9-18.2 10.2-24.5l32.9-32.9c6.3-6.3 15-10.2 24.5-10.2 9.6 0 18.2 3.9 24.5 10.2l-16.2 16.2c-2.1-2.1-5.1-3.5-8.3-3.5-3.3 0-6.2 1.3-8.3 3.5l-32.9 32.9c-2.1 2.1-3.5 5.1-3.5 8.3 0 3.3 1.3 6.2 3.5 8.3 2.1 2.1 5.1 3.5 8.3 3.5 3.3 0 6.2-1.3 8.3-3.5l32.9-32.9c6.3-6.3 15-10.2 24.5-10.2s18.2 3.9 24.5 10.2c6.3 6.3 10.2 15 10.2 24.5 0 9.6-3.9 18.2-10.2 24.5L149 182.9z"/></svg><svg viewBox="0 0 48 48" id="vk" xmlns="http://www.w3.org/2000/svg"><path fill="#1976d2" d="M24 4a20 20 0 100 40 20 20 0 100-40z"/><path fill="#fff" d="M35.937 18.041c.046-.151.068-.291.062-.416-.015-.362-.264-.625-.85-.625h-2.618c-.661 0-.966.4-1.144.801 0 0-1.632 3.359-3.513 5.574-.61.641-.92.625-1.25.625-.177 0-.624-.214-.624-.801v-5.185c0-.694-.173-1.014-.732-1.014h-4.649c-.407 0-.619.32-.619.641 0 .667.898.827 1 2.696v3.623c0 .88-.153 1.04-.483 1.04-.89 0-2.642-3-3.815-6.932-.254-.774-.508-1.068-1.169-1.068H12.89c-.763 0-.89.374-.89.774 0 .721.6 4.619 3.875 9.101C18.25 30.125 21.379 32 24.149 32c1.678 0 1.85-.427 1.85-1.094v-2.972c.001-.801.184-.934.718-.934.381 0 1.158.25 2.658 2 1.73 2.018 2.044 3 3.036 3h2.618c.608 0 .957-.255.971-.75a1.542 1.542 0 00-.056-.424c-.194-.576-1.084-1.984-2.194-3.326-.615-.743-1.222-1.479-1.501-1.879-.187-.261-.258-.445-.249-.621.009-.185.105-.361.249-.607-.026 0 3.358-4.751 3.688-6.352z"/></svg><svg viewBox="0 0 48 48" id="webpack" xmlns="http://www.w3.org/2000/svg"><path fill="#eceff1" d="M24 4L7 14v20l17 10 17-10V14z"/><path fill="#0277bd" d="M23.5 24.5v9L15 29v-9.5zM24.5 24.5v9L33 29v-9.5zM24 23.5l-8.5-5L24 14l8.5 4.5z"/><g fill="#81d4fa"><path d="M23.5 7v6l-9 5-5-3zM23.5 41v-6l-9-5-5 3zM14 19l-5-3v16l5-3zM24.5 7v6l9 5 5-3zM24.5 41v-6l9-5 5 3zM34 19l5-3v16l-5-3z"/></g></svg></svg>