<svg width="16" height="15" viewBox="0 0 16 15" fill="none" xmlns="http://www.w3.org/2000/svg">
<path d="M13.9738 4.89075C13.991 4.76025 14 4.62975 14 4.5C14 2.71575 12.3928 1.284 10.6093 1.52625C10.0895 0.6015 9.0995 0 8 0C6.9005 0 5.9105 0.6015 5.39075 1.52625C3.6035 1.284 2 2.71575 2 4.5C2 4.62975 2.009 4.76025 2.02625 4.89075C1.1015 5.41125 0.5 6.40125 0.5 7.5C0.5 8.59875 1.1015 9.58875 2.02625 10.1093C2.009 10.2397 2 10.3702 2 10.5C2 12.2843 3.6035 13.7122 5.39075 13.4738C5.9105 14.3985 6.9005 15 8 15C9.0995 15 10.0895 14.3985 10.6093 13.4738C12.3928 13.7122 14 12.2843 14 10.5C14 10.3702 13.991 10.2397 13.9738 10.1093C14.8985 9.58875 15.5 8.59875 15.5 7.5C15.5 6.40125 14.8985 5.41125 13.9738 4.89075ZM7.21625 10.812L4.466 8.0265L5.534 6.9735L7.22675 8.688L10.472 5.4675L11.528 6.5325L7.21625 10.812Z" fill="#5AB677"/>
</svg>
