<svg width="16" height="16" viewBox="0 0 16 16" fill="none" xmlns="http://www.w3.org/2000/svg">
<path d="M14.0027 5.31671V4.00004C14.0027 2.52937 12.8067 1.33337 11.336 1.33337H4.66934C3.19868 1.33337 2.00268 2.52937 2.00268 4.00004V5.33204C1.97401 5.33337 1.95201 5.33471 1.95201 5.33471C1.60268 5.36004 1.33334 5.65004 1.33334 6.00004V7.33337C1.33334 7.70137 1.63134 8.00004 2.00001 8.00004H2.00268V12C2.00268 12.49 2.27134 12.9147 2.66668 13.1467V14C2.66668 14.3687 2.96468 14.6667 3.33334 14.6667H4.00001C4.36868 14.6667 4.66668 14.3687 4.66668 14V13.3334H11.3333V14C11.3333 14.3687 11.6313 14.6667 12 14.6667H12.6667C13.0353 14.6667 13.3333 14.3687 13.3333 14V13.1494C13.7313 12.918 14.0027 12.4927 14.0027 12V8.00004C14.3713 8.00004 14.6693 7.70137 14.6693 7.33337V6.04137C14.6767 5.93937 14.6613 5.83537 14.6213 5.73804C14.486 5.41337 14.198 5.33537 14.0027 5.31671ZM12.6707 12H12.6667H12H4.00001H3.33601V8.66671H7.33601H8.66934H12.67L12.6707 12ZM7.33601 4.66671V7.33337H3.33601V4.66671H7.33601ZM12.6693 4.66671V5.99871C12.6693 5.99937 12.6693 5.99937 12.6693 6.00004V7.33337H8.66934V4.66671H12.6693ZM4.66934 2.66671H11.336C11.8267 2.66671 12.2527 2.93671 12.484 3.33337H3.52134C3.75268 2.93671 4.17868 2.66671 4.66934 2.66671Z" fill="#F7F8FC" fill-opacity="0.54"/>
<path d="M5 11.3334C5.55228 11.3334 6 10.8857 6 10.3334C6 9.78109 5.55228 9.33337 5 9.33337C4.44772 9.33337 4 9.78109 4 10.3334C4 10.8857 4.44772 11.3334 5 11.3334Z" fill="#F7F8FC" fill-opacity="0.54"/>
<path d="M11 11.3334C11.5523 11.3334 12 10.8857 12 10.3334C12 9.78109 11.5523 9.33337 11 9.33337C10.4477 9.33337 10 9.78109 10 10.3334C10 10.8857 10.4477 11.3334 11 11.3334Z" fill="#F7F8FC" fill-opacity="0.54"/>
</svg>
