<svg width="18" height="16" viewBox="0 0 18 16" fill="none" xmlns="http://www.w3.org/2000/svg">
<path d="M9.00125 1.82934C8.08125 0.991006 6.90791 0.531006 5.67125 0.531006C4.35625 0.531006 3.11125 1.05017 2.16041 1.99601C0.199578 3.96517 0.200412 7.04517 2.16208 9.00601L8.27208 15.116C8.41375 15.3652 8.68708 15.526 9.00125 15.526C9.26958 15.526 9.50875 15.3902 9.66125 15.1852L15.8404 9.00601C17.8021 7.04434 17.8021 3.96517 15.8387 1.99267C14.8912 1.05017 13.6462 0.531006 12.3312 0.531006C11.0954 0.531006 9.92125 0.991006 9.00125 1.82934ZM14.6604 3.17101C15.9629 4.48017 15.9637 6.52517 14.6621 7.82767L9.00125 13.4885L3.34041 7.82767C2.03875 6.52517 2.03958 4.48017 3.33875 3.17434C3.97208 2.54434 4.80041 2.19767 5.67125 2.19767C6.54208 2.19767 7.36708 2.54434 7.99541 3.17267L8.41208 3.58934C8.73791 3.91517 9.26458 3.91517 9.59041 3.58934L10.0071 3.17267C11.2671 1.91517 13.4021 1.91851 14.6604 3.17101Z" fill="#78859B"/>
</svg>
