<svg width="25" height="24" viewBox="0 0 25 24" fill="none" xmlns="http://www.w3.org/2000/svg">
<path d="M5.91296 18.0005V21.7665L7.42796 20.8575L12.19 18.0005H16.913C18.016 18.0005 18.913 17.1035 18.913 16.0005V8.00049C18.913 6.89749 18.016 6.00049 16.913 6.00049H4.91296C3.80996 6.00049 2.91296 6.89749 2.91296 8.00049V16.0005C2.91296 17.1035 3.80996 18.0005 4.91296 18.0005H5.91296ZM4.91296 8.00049H16.913V16.0005H11.636L7.91296 18.2345V16.0005H4.91296V8.00049Z" fill="#F7F8FC"/>
<path d="M20.913 2.00049H19.913H17.911H8.91296C7.80996 2.00049 6.91296 2.89749 6.91296 4.00049H17.499H18.913C20.016 4.00049 20.913 4.89749 20.913 6.00049V7.41449V12.0005V14.0005C22.016 14.0005 22.913 13.1035 22.913 12.0005V7.00049V5.00049V4.00049C22.913 2.89749 22.016 2.00049 20.913 2.00049Z" fill="#F7F8FC"/>
</svg>
