<svg width="24" height="24" viewBox="0 0 24 24" fill="none" xmlns="http://www.w3.org/2000/svg">
<path d="M12 2.00002C6.579 2.00002 2 6.57902 2 12C2 17.421 6.579 22 12 22C17.421 22 22 17.421 22 12C22 6.57902 17.421 2.00002 12 2.00002ZM12 7.00002C13.727 7.00002 15 8.27202 15 10C15 11.728 13.727 13 12 13C10.274 13 9 11.728 9 10C9 8.27202 10.274 7.00002 12 7.00002ZM6.894 16.772C7.791 15.452 9.287 14.572 11 14.572H13C14.714 14.572 16.209 15.452 17.106 16.772C15.828 18.14 14.015 19 12 19C9.985 19 8.172 18.14 6.894 16.772Z" fill="#38424E"/>
</svg>
