<svg width="16" height="16" viewBox="0 0 16 16" fill="none" xmlns="http://www.w3.org/2000/svg">
<path d="M8.66671 3.99992C9.40309 3.99992 10 3.40296 10 2.66659C10 1.93021 9.40309 1.33325 8.66671 1.33325C7.93033 1.33325 7.33337 1.93021 7.33337 2.66659C7.33337 3.40296 7.93033 3.99992 8.66671 3.99992Z" fill="#78859B"/>
<path d="M9.31869 8.17989C9.48203 8.42522 9.72603 8.61122 10.006 8.70455L11.7894 9.29922L12.2114 8.03522L10.428 7.44055L9.31936 5.77722C9.19136 5.58522 9.01469 5.42989 8.80669 5.32455L7.85069 4.84655C7.56736 4.70522 7.24203 4.66855 6.93203 4.74722L4.80336 5.27855C4.42603 5.37255 4.10869 5.62589 3.93269 5.97589L2.73669 8.36855L3.92936 8.96522L5.12536 6.57255L6.60736 6.20189L5.40469 11.7659L2.95536 13.4506L3.71069 14.5492L6.16069 12.8639C6.44136 12.6706 6.63603 12.3806 6.70736 12.0472L7.05203 10.4552L8.73003 11.7139L9.34669 14.7972L10.654 14.5352L10.0374 11.4506C9.97136 11.1279 9.79136 10.8419 9.52936 10.6466L8.08203 9.56122L8.51336 6.97122L9.31869 8.17989Z" fill="#78859B"/>
</svg>
