<svg width="14" height="14" viewBox="0 0 14 14" fill="none" xmlns="http://www.w3.org/2000/svg">
<path d="M13.3652 10.855L10.3165 8.08303C10.0172 7.81078 9.55525 7.82503 9.27325 8.11528L7.4785 9.96103C7.0465 9.87853 6.178 9.60778 5.284 8.71603C4.39 7.82128 4.11925 6.95053 4.039 6.52153L5.88325 4.72603C6.17425 4.44403 6.18775 3.98278 5.9155 3.68278L3.14425 0.63478C2.872 0.33403 2.40925 0.30553 2.101 0.56953L0.473498 1.96528C0.343748 2.09578 0.266498 2.26828 0.255998 2.45203C0.244748 2.63953 0.0302479 7.08103 3.47425 10.5265C6.47875 13.5303 10.2422 13.75 11.2787 13.75C11.4302 13.75 11.5232 13.7455 11.548 13.744C11.7317 13.7335 11.9042 13.6563 12.034 13.5258L13.429 11.8975C13.6945 11.5893 13.6652 11.1273 13.3652 10.855Z" fill="#38424E"/>
</svg>
