<svg width="12" height="12" viewBox="0 0 12 12" fill="none" xmlns="http://www.w3.org/2000/svg">
<path d="M6.00002 3C4.91552 3 4.03302 3.8825 4.03302 4.967H5.03302C5.03302 4.4335 5.46702 4 6.00002 4C6.53302 4 6.96702 4.4335 6.96702 4.967C6.96702 5.266 6.72652 5.483 6.35902 5.78C6.23152 5.8835 6.11102 5.982 6.01352 6.0795C5.51452 6.578 5.50002 7.1075 5.50002 7.1665V7.5H6.50002L6.49952 7.1835C6.50002 7.1755 6.51602 6.9905 6.72002 6.787C6.79502 6.712 6.88952 6.637 6.98752 6.558C7.37702 6.2425 7.96652 5.766 7.96652 4.967C7.96702 3.8825 7.08452 3 6.00002 3ZM5.50002 8H6.50002V9H5.50002V8Z" fill="#38424E"/>
<path d="M6 1C3.243 1 1 3.243 1 6C1 8.757 3.243 11 6 11C8.757 11 11 8.757 11 6C11 3.243 8.757 1 6 1ZM6 10C3.7945 10 2 8.2055 2 6C2 3.7945 3.7945 2 6 2C8.2055 2 10 3.7945 10 6C10 8.2055 8.2055 10 6 10Z" fill="#38424E"/>
</svg>
