<svg width="40" height="40" viewBox="0 0 40 40" fill="none" xmlns="http://www.w3.org/2000/svg">
<rect width="40" height="40" rx="4" fill="#FE5000"/>
<rect x="5.83337" y="6.66669" width="28.3333" height="28.3333" rx="12" fill="white"/>
<path d="M30.0599 5.83331H9.99119C7.23564 5.83331 5 8.06515 5 10.816V30.8506C5 33.6015 7.23564 35.8333 9.99119 35.8333H30.0079C32.7635 35.8333 34.9991 33.6015 34.9991 30.8506V10.816C35.0511 8.06515 32.8155 5.83331 30.0599 5.83331ZM33.4914 30.3316C33.4394 30.3835 33.3354 30.4354 33.2834 30.3835C29.436 28.0478 24.8608 26.6984 20.0256 26.6984C15.1903 26.6984 10.6151 28.0478 6.76771 30.3835C6.71572 30.4354 6.61174 30.3835 6.55975 30.3316C6.50775 30.2278 6.55975 30.1759 6.61174 30.124C10.1472 27.425 13.1627 23.9994 15.5023 19.951C17.8419 15.9025 19.2977 11.5427 19.8696 7.18279C19.8696 7.13089 19.9216 7.02708 20.0256 7.02708C20.1295 7.02708 20.1815 7.07899 20.1815 7.18279C20.7534 11.5427 22.2092 15.9025 24.5488 19.951C26.8884 23.9994 29.9559 27.425 33.4394 30.0721C33.5434 30.1759 33.5433 30.2278 33.4914 30.3316Z" fill="#FE5000"/>
</svg>
