<svg width="40" height="40" viewBox="0 0 40 40" fill="none" xmlns="http://www.w3.org/2000/svg">
<rect width="40" height="40" fill="#57BCEB"/>
<path d="M33.5 21.0099C33.5 25.8474 30.9751 30.2524 26.8601 32.4199L25.92 32.8524C25.604 32.9996 25.2586 33.0731 24.91 33.0674C24.6196 33.0808 24.3311 33.0139 24.0762 32.8741C23.8213 32.7343 23.6099 32.527 23.465 32.2749C23.2487 31.8521 23.1734 31.3712 23.25 30.9024C23.3031 30.6592 23.4077 30.4302 23.557 30.2309C23.7062 30.0316 23.8965 29.8668 24.115 29.7474C26.4975 28.6649 28.0875 26.2099 28.0875 23.4649V16.3899C28.0875 13.6449 26.5701 11.1899 24.1875 10.1074C24.1875 10.1074 23.465 9.74744 23.3225 8.95244C23.2459 8.48372 23.3212 8.00277 23.5375 7.57994C23.6824 7.32786 23.8938 7.12054 24.1487 6.98074C24.4036 6.84094 24.6921 6.77406 24.9825 6.78744C25.3079 6.78178 25.6297 6.85558 25.92 7.00244C25.92 7.00244 26.7876 7.43744 26.8601 7.43744C30.9751 9.59994 33.5 14.0074 33.5 18.8449V21.0099ZM15.74 29.8199C15.959 29.939 16.1498 30.1037 16.2995 30.303C16.4492 30.5023 16.5543 30.7315 16.6075 30.9749C16.6834 31.4439 16.6072 31.9249 16.39 32.3474C16.2452 32.5995 16.0338 32.8068 15.7789 32.9466C15.524 33.0864 15.2355 33.1533 14.945 33.1399C14.6197 33.1456 14.2979 33.0718 14.0075 32.9249L13.0675 32.4899C8.95255 30.3249 6.42505 25.9924 6.42505 21.0824V19.0624C6.42505 14.2249 8.95255 9.81994 13.0675 7.65244C13.1425 7.65244 14.0075 7.21994 14.0075 7.21994C14.3004 7.07992 14.6204 7.00568 14.945 7.00244C15.595 7.00244 16.1 7.29244 16.39 7.79744C16.6072 8.21999 16.6834 8.70096 16.6075 9.16994C16.4625 9.96494 15.74 10.3249 15.74 10.3249C13.3575 11.4074 11.84 13.8624 11.84 16.6074V23.6824C11.77 26.2824 13.3575 28.7374 15.74 29.8199Z" fill="white"/>
</svg>
