<svg width="48" height="48" viewBox="0 0 48 48" fill="none" xmlns="http://www.w3.org/2000/svg">
<rect width="48" height="48" fill="#2051B2"/>
<path d="M38.1944 16.8564C38.1944 13.0668 35.078 9.99481 31.2356 9.99481H21.4076C18.236 9.99481 15.5312 12.1032 14.7116 15.0156H26.5916C31.1624 15.0156 33.1016 17.1132 33.1016 22.0344V33.156C36.0488 32.3448 38.1944 29.6688 38.1944 26.5524V16.8564Z" fill="white"/>
<path d="M9.60001 31.3164C9.60001 35.106 12.714 38.1768 16.5576 38.1768H26.3856C29.5572 38.1768 32.262 36.0696 33.0828 33.156H21.2028C16.632 33.156 14.6928 31.0584 14.6928 26.1372V15.0156C11.7444 15.8268 9.60001 18.504 9.60001 21.6204V31.3164Z" fill="white"/>
<path d="M28.0369 23.6928H27.1165V21.4872H28.0369C29.1601 21.4872 29.4649 22.0212 29.4649 22.5864C29.4649 23.1504 29.0569 23.6928 28.0369 23.6928ZM27.1165 18.2748H27.8521C29.0977 18.2748 29.1601 19.0284 29.1601 19.26C29.1601 19.602 28.9765 20.238 27.9133 20.238H27.1165V18.276V18.2748ZM25.5037 22.122V24.0444C25.1149 23.8152 24.6673 23.6328 24.1981 23.4324C23.6869 23.2092 23.1361 22.9272 23.1361 22.2912C23.1361 21.9672 23.3401 21.4872 24.3205 21.4872H26.1373L25.5037 22.122ZM19.2541 27.0384H18.4981V24.4476H19.2541C20.1937 24.4476 20.6221 25.0104 20.6221 25.6956C20.6221 26.3316 20.2357 27.0384 19.2541 27.0384ZM29.5081 20.832V20.802C30.0589 20.6304 30.7945 20.178 30.7945 18.9876C30.7945 17.6496 29.6905 17.0352 28.1389 17.0352H25.5037V20.2392H23.9521C21.8689 20.2392 21.4405 21.6792 21.4405 22.4652C21.4405 23.5812 22.0945 24.0756 23.3005 24.6696C24.0325 25.0308 24.9109 25.2528 24.9109 26.0796C24.9109 26.514 24.5029 27.0384 23.6257 27.0384H21.9925C22.2373 26.6244 22.3381 26.1708 22.3381 25.7784C22.3381 25.2648 22.1545 23.2092 19.2541 23.2092H16.8841V31.1352H18.4981V27.6816L19.1509 28.326H23.5645C25.6249 28.326 26.6053 27.2796 26.6053 26.0304C26.6053 25.5876 26.5237 25.2324 26.3809 24.9432H28.0357C30.5881 24.9432 31.1797 23.6928 31.1797 22.7148C31.1797 21.7188 30.5269 20.9832 29.5069 20.832H29.5081Z" fill="white"/>
</svg>
