<svg width="40" height="40" viewBox="0 0 40 40" fill="none" xmlns="http://www.w3.org/2000/svg">
<rect width="40" height="40" fill="#009B3A"/>
<g clip-path="url(#clip0_1_1464)">
<path d="M10.3974 12.9798C10.3974 12.9395 10.3839 12.8993 10.3703 12.8322L9.51754 10.5234C9.40925 10.2416 9.26035 10.1208 9.03023 10.1208C8.78658 10.1208 8.63768 10.2416 8.54292 10.5234L7.6766 12.8322C7.64952 12.9127 7.63599 12.953 7.63599 12.9798C7.63599 13.1006 7.73074 13.1946 7.8661 13.1946C7.9744 13.1946 8.05561 13.1409 8.10976 13.0067L8.39402 12.2147H9.66644L9.95071 13.0067C9.99132 13.1409 10.0725 13.1946 10.1808 13.1946C10.3027 13.208 10.3974 13.1006 10.3974 12.9798ZM8.52939 11.812L8.94902 10.6174C8.96255 10.5771 8.97609 10.5637 9.0167 10.5637C9.04377 10.5637 9.05731 10.5771 9.07084 10.6174L9.49047 11.812H8.52939ZM14.2823 13.1812H15.2028C15.7984 13.1812 16.1639 12.8322 16.1639 12.2281C16.1639 11.651 15.812 11.3288 15.2028 11.3288H14.3906V10.5906H15.7443C15.8932 10.5906 15.9879 10.51 15.9879 10.3624C15.9879 10.2281 15.8932 10.1476 15.7443 10.1476H14.2688C14.0387 10.1476 13.9033 10.2684 13.9033 10.51V12.8187C13.9304 13.0604 14.0522 13.1812 14.2823 13.1812ZM14.4042 11.7449H15.1622C15.5142 11.7449 15.6766 11.9328 15.6766 12.2416C15.6766 12.5637 15.5142 12.7516 15.1622 12.7516H14.4042V11.7449ZM9.08438 15.9463H8.17744V15.0067H9.67998C9.77473 15.0067 9.85595 14.953 9.85595 14.859C9.85595 14.7651 9.78827 14.7114 9.67998 14.7114H8.13683C7.96086 14.7114 7.8661 14.8053 7.8661 14.9798V17.4899C7.8661 17.6644 7.96086 17.7583 8.13683 17.7583H9.08438C9.66644 17.7583 10.0049 17.4228 10.0049 16.8456C10.0049 16.2684 9.66644 15.9463 9.08438 15.9463ZM9.04377 17.4496H8.17744V16.2281H9.04377C9.49047 16.2281 9.67998 16.4429 9.67998 16.8322C9.67998 17.2214 9.50401 17.4496 9.04377 17.4496ZM11.2773 15.4362C11.0065 15.4362 10.7494 15.5033 10.614 15.5704C10.5192 15.6107 10.4786 15.651 10.4786 15.7315C10.4786 15.812 10.5463 15.8657 10.614 15.8657C10.6546 15.8657 10.6952 15.8523 10.7358 15.8255C10.8441 15.7852 11.0472 15.7181 11.2502 15.7181C11.6428 15.7181 11.8323 15.8791 11.8323 16.2281V16.4429C11.5886 16.3758 11.4126 16.3489 11.1961 16.3489C10.614 16.3489 10.3297 16.6845 10.3297 17.0469C10.3297 17.4899 10.6681 17.7718 11.1825 17.7718C11.6157 17.7718 11.9541 17.6241 12.0759 17.5302C12.1301 17.4899 12.1436 17.463 12.1436 17.3959V16.2147C12.1301 15.6912 11.8052 15.4362 11.2773 15.4362ZM11.8187 17.3422C11.6428 17.4362 11.4126 17.5033 11.2096 17.5033C10.8306 17.5033 10.614 17.3422 10.614 17.0604C10.614 16.8053 10.8035 16.6308 11.2096 16.6308C11.4126 16.6308 11.5886 16.6577 11.8187 16.7248V17.3422ZM19.8864 10.8724C19.4803 10.8724 19.1554 11.0201 19.0336 11.0872C18.9253 11.1543 18.9118 11.1946 18.9118 11.3691V13.7047C18.9118 13.8523 19.0065 13.9463 19.1419 13.9463C19.2773 13.9463 19.372 13.8523 19.372 13.7047V13.1006C19.5074 13.1677 19.724 13.2214 19.927 13.2214C20.4685 13.2214 20.834 12.8724 20.8746 12.3624C20.8881 12.1879 20.8881 11.906 20.8746 11.7315C20.834 11.2214 20.4685 10.8724 19.8864 10.8724ZM20.4143 12.2953C20.3873 12.5906 20.1977 12.7785 19.8729 12.7785C19.6969 12.7785 19.4803 12.7248 19.372 12.6442V11.4362C19.4803 11.3557 19.6969 11.302 19.8729 11.302C20.2113 11.302 20.3873 11.5033 20.4143 11.7852C20.4279 11.9463 20.4279 12.1342 20.4143 12.2953ZM12.6309 12.8053L11.8323 12.0134L12.5903 11.2617C12.6444 11.208 12.6851 11.1409 12.6851 11.0738C12.6851 10.9664 12.6038 10.8859 12.482 10.8859C12.4143 10.8859 12.3602 10.9127 12.306 10.9798L11.5209 11.7449C11.4803 11.7852 11.4397 11.812 11.372 11.812H11.2096V11.1409C11.2096 10.9932 11.1148 10.8993 10.9795 10.8993C10.8441 10.8993 10.7494 10.9932 10.7494 11.1409V12.953C10.7494 13.1006 10.8441 13.1946 10.9795 13.1946C11.1148 13.1946 11.2096 13.1006 11.2096 12.953V12.2281H11.345C11.3991 12.2281 11.4532 12.255 11.4939 12.2953L12.3196 13.114C12.3873 13.1812 12.4414 13.208 12.5091 13.208C12.6309 13.208 12.7121 13.1275 12.7121 13.0067C12.7121 12.9261 12.6851 12.8724 12.6309 12.8053ZM23.0268 12.3489C22.9186 12.3489 22.8644 12.4161 22.8238 12.4832C22.7426 12.6577 22.5801 12.7785 22.3365 12.7785C22.0116 12.7785 21.8086 12.5771 21.7815 12.2953C21.768 12.1342 21.768 11.9597 21.7815 11.7986C21.8086 11.5033 21.9981 11.3154 22.3365 11.3154C22.5666 11.3154 22.7426 11.4362 22.8238 11.6107C22.8644 11.6778 22.9186 11.7449 23.0268 11.7449C23.1622 11.7449 23.257 11.6644 23.257 11.5302C23.257 11.463 23.2299 11.3959 23.1893 11.3154C23.0539 11.0604 22.7561 10.8724 22.3365 10.8724C21.768 10.8724 21.3889 11.2349 21.3348 11.7449C21.3213 11.9194 21.3213 12.2013 21.3348 12.3624C21.3889 12.8724 21.768 13.2349 22.3365 13.2349C22.7561 13.2349 23.0539 13.0335 23.1893 12.7785C23.2299 12.6979 23.257 12.6308 23.257 12.5637C23.2434 12.4295 23.1622 12.3489 23.0268 12.3489ZM17.4363 10.8724C17.1791 10.8724 16.949 10.9395 16.8001 10.9932C16.6783 11.0469 16.6241 11.114 16.6241 11.208C16.6241 11.3154 16.7054 11.4093 16.8137 11.4093C16.8678 11.4093 16.9219 11.3825 16.9896 11.3691C17.0844 11.3288 17.2468 11.2885 17.4093 11.2885C17.7612 11.2885 17.9101 11.4228 17.9101 11.6912V11.8791C17.7071 11.8255 17.5311 11.7986 17.3416 11.7986C16.7595 11.7986 16.4752 12.1342 16.4752 12.4832C16.4752 12.8993 16.8001 13.2214 17.3551 13.2214C17.7883 13.2214 18.1267 13.0738 18.262 12.9798C18.3297 12.9395 18.3433 12.8993 18.3433 12.8053V11.6912C18.3568 11.1275 18.0184 10.8724 17.4363 10.8724ZM17.9101 12.7114C17.7747 12.7785 17.5852 12.8322 17.4093 12.8322C17.1115 12.8322 16.9219 12.6979 16.9219 12.4832C16.9219 12.2818 17.0844 12.1208 17.4093 12.1208C17.5852 12.1208 17.7341 12.1476 17.9236 12.2013V12.7114H17.9101ZM15.9879 16.5906L16.8678 15.7181C16.9084 15.6778 16.9219 15.6375 16.9219 15.5973C16.9219 15.5302 16.8678 15.463 16.7866 15.463C16.746 15.463 16.7054 15.4765 16.6648 15.5167L15.7984 16.3758C15.7443 16.4295 15.7037 16.4563 15.636 16.4563H15.4871V15.6375C15.4871 15.5302 15.4329 15.4765 15.3382 15.4765C15.2434 15.4765 15.1893 15.5302 15.1893 15.6375V17.6241C15.1893 17.7315 15.2434 17.7852 15.3382 17.7852C15.4329 17.7852 15.4871 17.7315 15.4871 17.6241V16.7382H15.6495C15.7172 16.7382 15.7713 16.7651 15.812 16.8187L16.7324 17.7315C16.773 17.7718 16.8137 17.7852 16.8543 17.7852C16.9355 17.7852 16.9896 17.7181 16.9896 17.651C16.9896 17.5973 16.9761 17.5704 16.9219 17.5167L15.9879 16.5906ZM14.4177 15.4496C14.323 15.4496 14.2688 15.5033 14.2688 15.6107V16.4295H12.9964V15.6107C12.9964 15.5033 12.9422 15.4496 12.8475 15.4496C12.7527 15.4496 12.6986 15.5033 12.6986 15.6107V17.5973C12.6986 17.7046 12.7527 17.7583 12.8475 17.7583C12.9422 17.7583 12.9964 17.7046 12.9964 17.5973V16.7114H14.2688V17.5973C14.2688 17.7046 14.323 17.7583 14.4177 17.7583C14.5125 17.7583 14.5666 17.7046 14.5666 17.5973V15.6107C14.5666 15.5167 14.5125 15.4496 14.4177 15.4496Z" fill="white"/>
<path d="M23.2291 23.8254L21.158 24.2012C20.8196 24.2683 20.5895 24.5905 20.6436 24.926C20.7113 25.2616 21.0362 25.4898 21.3746 25.4361L23.4457 25.0603C23.933 24.9663 24.2443 25.2616 24.3661 25.5703C24.488 25.8791 24.4609 26.2952 24.0413 26.5636L21.0091 28.5234C20.7249 28.7113 20.3864 28.7113 20.0886 28.5636C19.7908 28.4025 19.6149 28.1072 19.6149 27.7717V22.9529C19.6149 22.1475 19.1952 21.4495 18.4778 21.0603C17.7739 20.671 16.9347 20.7113 16.2579 21.1408L8.59626 26.067C7.72993 26.6173 7.40506 27.624 7.78408 28.577C8.1631 29.5301 9.09711 30.0401 10.1123 29.8656L16.7993 28.671C17.1377 28.6039 17.3678 28.2817 17.3137 27.9462C17.246 27.6106 16.9211 27.3824 16.5827 27.4361L9.89575 28.6307C9.39491 28.7247 9.09711 28.4294 8.97528 28.1207C8.85345 27.8119 8.88053 27.3958 9.30015 27.1274L16.9617 22.2012C17.246 22.0133 17.5844 22.0133 17.8822 22.1609C18.18 22.322 18.356 22.6173 18.356 22.9529V27.7717C18.356 28.577 18.7756 29.275 19.493 29.6643C19.8179 29.8388 20.1834 29.9328 20.5353 29.9328C20.9414 29.9328 21.3475 29.8119 21.713 29.5838L24.7587 27.624C25.625 27.0737 25.9499 26.067 25.5709 25.114C25.1783 24.1609 24.2443 23.6374 23.2291 23.8254ZM33.9499 25.1005C33.5709 24.1475 32.6369 23.6374 31.6216 23.8119L29.5506 24.1878C29.2122 24.2549 28.982 24.577 29.0362 24.9126C29.1039 25.2482 29.4287 25.4764 29.7672 25.4227L31.8382 25.0468C32.3255 24.9529 32.6369 25.2482 32.7587 25.5569C32.8805 25.8656 32.8535 26.2817 32.4338 26.5502L29.4017 28.5234C29.1174 28.7113 28.779 28.7113 28.4812 28.5636C28.1834 28.4025 28.0074 28.1072 28.0074 27.7717V21.4227C28.0074 21.0737 27.7232 20.7918 27.3712 20.7918C27.0193 20.7918 26.735 21.0737 26.735 21.4227V27.7717C26.735 28.577 27.1546 29.275 27.8721 29.6643C28.1969 29.8388 28.5624 29.9328 28.9144 29.9328C29.3205 29.9328 29.7265 29.8119 30.092 29.5838L33.1377 27.624C34.004 27.0603 34.3289 26.0536 33.9499 25.1005Z" fill="white"/>
</g>
<defs>
<clipPath id="clip0_1_1464">
<rect width="26.6667" height="20" fill="white" transform="translate(7.5 10)"/>
</clipPath>
</defs>
</svg>
