<svg width="40" height="40" viewBox="0 0 40 40" fill="none" xmlns="http://www.w3.org/2000/svg">
<rect width="40" height="40" fill="#EE3524"/>
<path d="M20 6.66666C21.7605 6.66666 22.3278 7.97089 22.7973 9.27513C22.9929 9.81689 27.5899 22.7389 27.7269 23.1201C27.766 23.2205 27.7464 23.401 27.5704 23.4612C27.3943 23.5214 25.0273 24.4846 24.8904 24.5247C24.7535 24.5648 24.6165 24.5046 24.5579 24.3642C24.4992 24.2237 23.5211 21.4146 23.4037 21.1136C23.0712 21.1136 16.9288 21.1136 16.5962 21.1136C16.4788 21.4347 15.4812 24.2438 15.4421 24.3642C15.4029 24.4846 15.2464 24.5849 15.1095 24.5247C14.9726 24.4645 12.5665 23.5214 12.4295 23.4612C12.2926 23.401 12.2339 23.2405 12.273 23.1201C12.4491 22.6386 16.9679 9.93729 17.2026 9.27513C17.6525 7.99096 18.2394 6.66666 20 6.66666ZM11.9209 29.7617C11.784 29.7617 11.6666 29.8821 11.6666 30.0426V33.0524C11.6666 33.2129 11.784 33.3333 11.9209 33.3333H28.079C28.2159 33.3333 28.3333 33.2129 28.3333 33.0524V30.0426C28.3333 29.8821 28.2159 29.7617 28.079 29.7617H11.9209ZM20 10.8804L17.6917 17.9634H22.3278L20.0195 10.8804H20Z" fill="white"/>
</svg>
