<svg width="40" height="40" viewBox="0 0 40 40" fill="none" xmlns="http://www.w3.org/2000/svg">
<rect width="40" height="40" fill="#016E89"/>
<path fill-rule="evenodd" clip-rule="evenodd" d="M27.7767 17.5366H25.642V17.886H27.604V33.228H12.348V17.8866H18.172V17.5373H12V33.578H27.95V17.5366H27.7767Z" fill="white"/>
<path fill-rule="evenodd" clip-rule="evenodd" d="M27.0919 32.58L25.9719 32.588L26.6806 18.4613L26.7339 18.4573L27.0919 32.58ZM25.6359 32.5906L24.5159 32.6L25.1446 21.0833L25.3446 20.786L25.6359 32.5906ZM24.1799 32.6013L23.0579 32.6093L23.5806 23.058C23.6986 22.9253 23.8173 22.7893 23.9346 22.652L24.1799 32.6013ZM22.7246 32.6146L21.6006 32.6213L22.0406 24.5926C22.2006 24.4486 22.3593 24.302 22.5153 24.152L22.7246 32.6146ZM21.2686 32.6233L20.1453 32.6366L20.5166 25.8386C20.7113 25.6933 20.8993 25.5453 21.0899 25.3953L21.2686 32.6233ZM19.8106 32.6373L18.6859 32.6453L19.0039 26.8686C19.2246 26.73 19.4439 26.5886 19.6606 26.4433L19.8106 32.6373ZM18.3573 32.6473L17.2306 32.6553L17.4999 27.742C17.7453 27.612 17.9866 27.4786 18.2279 27.338L18.3573 32.6473ZM16.9006 32.658L15.7746 32.6686L16.0026 28.4873C16.2673 28.3653 16.5286 28.238 16.7893 28.1086L16.9006 32.658ZM15.4439 32.674L14.3173 32.6806L14.5126 29.1246C14.7926 29.012 15.0726 28.8953 15.3493 28.7773L15.4439 32.674ZM12.9633 32.69L13.0259 29.684V29.672C13.3219 29.5733 13.6166 29.4673 13.9059 29.3573L13.9886 32.6833L12.9633 32.69ZM25.2053 18.4213C24.9899 18.87 24.7519 19.3086 24.4853 19.732L24.7446 14.99C24.8693 14.946 24.9926 14.8986 25.1159 14.8493L25.2053 18.4213ZM23.9093 20.586C23.6321 20.9653 23.3389 21.3328 23.0306 21.6873L23.3793 15.2886C23.5126 15.274 23.6453 15.2566 23.7753 15.2366L23.9093 20.586ZM22.4939 22.2786C22.1719 22.62 21.8359 22.952 21.4893 23.27L21.9273 15.2433C22.0579 15.2646 22.1899 15.2806 22.3226 15.2933L22.4939 22.2786ZM21.0719 23.6433C20.7086 23.9653 20.3373 24.2673 19.9613 24.562L20.4966 14.774C20.6139 14.8353 20.7346 14.892 20.8579 14.9433L21.0713 23.6433H21.0719ZM19.6446 24.8046L19.1566 25.1413L18.4633 25.5566C18.4999 24.9406 18.5613 23.7673 18.6059 22.7393L19.1093 13.5146C19.1913 13.6433 19.2793 13.7633 19.3759 13.8786L19.6446 24.8053V24.8046Z" fill="white"/>
<mask id="mask0_1_1484" style="mask-type:alpha" maskUnits="userSpaceOnUse" x="19" y="3" width="4" height="11">
<path d="M19.2007 3.09009H22.5314V13.9074H19.2007V3.09009Z" fill="white"/>
</mask>
<g mask="url(#mask0_1_1484)">
<path fill-rule="evenodd" clip-rule="evenodd" d="M22.1747 6.81657L22.49 12.7299L22.5314 13.8592C22.264 13.9232 21.9514 13.9232 21.6247 13.8626L21.9414 6.8159C22.02 6.83257 22.098 6.8359 22.1747 6.8159V6.81657ZM21.2867 13.7806C20.9777 13.6886 20.6802 13.5615 20.4 13.4019L20.7514 5.60723C20.83 5.74257 20.9087 5.8679 20.9874 5.98523L21.286 13.7812L21.2867 13.7806ZM20.018 13.1646C19.7166 12.956 19.4421 12.711 19.2007 12.4352L19.634 3.08923L19.6807 3.09123L20.018 13.1652V13.1646Z" fill="white"/>
</g>
</svg>
