<svg width="48" height="48" viewBox="0 0 48 48" fill="none" xmlns="http://www.w3.org/2000/svg">
<rect width="48" height="48" fill="#354148"/>
<path fill-rule="evenodd" clip-rule="evenodd" d="M18.9475 24.48H23.9999V12.3197H18.9475V24.48ZM20.2665 23.1312H22.6809V13.6675H20.2665V23.1312ZM12.8841 27.5203H36.1257V26.5056H12.8841V27.5203ZM12.8841 36.6403H14.2377V35.0467H21.9791V29.5459H12.8831V36.6403H12.8841ZM14.2377 33.6403H20.6255V30.9533H14.2367V33.6403H14.2377ZM27.3868 16.3651L29.8857 13.6675V24.48H31.2508V16.3642L33.7497 13.6685V24.48H35.1158V12.3197H33.1967L31.2499 14.4144V12.3197H29.3327L26.0207 15.8544V24.48H27.3859L27.3868 16.3651ZM22.9891 35.0458H28.3065V36.6394H29.7705V35.0458H35.1158V29.5469H22.9891V35.0458ZM29.7705 33.6403H33.7123V30.9533H29.7705V33.6403ZM24.3945 33.6403H28.3065V30.9533H24.3935V33.6403H24.3945ZM16.6175 24.48H17.9366V12.3197H16.0838L12.8841 15.8544V24.48H16.6175ZM14.2041 16.3651L16.6175 13.6675V23.1312H14.2041V16.3651Z" fill="#FEFEFE"/>
</svg>
