<svg width="40" height="40" viewBox="0 0 40 40" fill="none" xmlns="http://www.w3.org/2000/svg">
<rect width="40" height="40" fill="#1E4679"/>
<path fill-rule="evenodd" clip-rule="evenodd" d="M18.2316 14.1667C18.3167 14.1667 18.3565 14.09 18.3196 13.9941L18.1308 13.506C18.0939 13.4118 17.9946 13.3334 17.9094 13.3334H10.9352C10.85 13.3334 10.8103 13.4101 10.8472 13.506L11.0359 13.9941C11.0728 14.0883 11.1722 14.1667 11.2573 14.1667H18.2316Z" fill="#FEFEFE"/>
<path fill-rule="evenodd" clip-rule="evenodd" d="M18.1532 15.1726C18.1204 15.0785 18.0321 15 17.9564 15H11.7571C11.6814 15 11.6461 15.0785 11.6789 15.1726L11.8467 15.6607C11.8795 15.7549 11.9678 15.8333 12.0435 15.8333H18.2428C18.3185 15.8333 18.3538 15.7566 18.321 15.6607L18.1532 15.1726Z" fill="#FEFEFE"/>
<path fill-rule="evenodd" clip-rule="evenodd" d="M20.6083 16.8392C20.5673 16.7451 20.457 16.6666 20.3624 16.6666H12.6131C12.5185 16.6666 12.4743 16.7433 12.5153 16.8392L12.7266 17.3274C12.7676 17.4215 12.878 17.5 12.9726 17.5H20.7203C20.8149 17.5 20.859 17.4233 20.818 17.3274L20.6083 16.8392Z" fill="#FEFEFE"/>
<path fill-rule="evenodd" clip-rule="evenodd" d="M21.4416 18.506C21.4006 18.4118 21.2903 18.3334 21.1956 18.3334H13.4465C13.3519 18.3334 13.3077 18.4101 13.3487 18.506L13.5584 18.9941C13.5994 19.0883 13.7098 19.1667 13.8044 19.1667H21.5536C21.6482 19.1667 21.6924 19.09 21.6514 18.9941L21.4416 18.506Z" fill="#FEFEFE"/>
<path fill-rule="evenodd" clip-rule="evenodd" d="M22.2749 20.3459C22.2339 20.1572 22.1235 20 22.0289 20H14.2797C14.1851 20 14.141 20.1537 14.182 20.3459L14.3917 21.3243C14.4327 21.5129 14.5431 21.6667 14.6377 21.6667H22.3869C22.4815 21.6667 22.5256 21.5129 22.4846 21.3243L22.2749 20.3459Z" fill="#FEFEFE"/>
<path fill-rule="evenodd" clip-rule="evenodd" d="M29.1667 21.6667C30.0859 21.6667 30.8333 20.9193 30.8333 20C30.8333 19.0808 30.0873 18.3334 29.1667 18.3334C28.246 18.3334 27.5 19.0794 27.5 20C27.5 20.9193 28.2446 21.6667 29.1667 21.6667Z" fill="#EE3142"/>
<path fill-rule="evenodd" clip-rule="evenodd" d="M20.6712 11.6667C20.7604 11.6667 20.8333 11.5811 20.8333 11.4763V11.0238C20.8333 10.919 20.7604 10.8334 20.6712 10.8334H9.32877C9.23951 10.8334 9.16663 10.919 9.16663 11.0238V11.4763C9.16663 11.5811 9.23951 11.6667 9.32877 11.6667H20.6712Z" fill="#FEFEFE"/>
<path fill-rule="evenodd" clip-rule="evenodd" d="M15.1041 22.5C15.017 22.5 14.9764 22.5558 15.0141 22.6243L19.5212 30.782C19.559 30.8504 19.6504 30.8504 19.6882 30.782L23.8063 23.2303C23.844 23.1618 23.9456 23.1048 24.0327 23.1048H30.6751C30.7622 23.1048 30.8333 23.0427 30.8333 22.9666V22.6382C30.8333 22.5621 30.7622 22.5 30.6751 22.5H15.1041Z" fill="#FEFEFE"/>
<path fill-rule="evenodd" clip-rule="evenodd" d="M30.6838 10.8334H25.2393C25.1562 10.8334 25.0884 10.9076 25.0884 10.9985V11.3907C25.0884 11.4816 25.1562 11.5558 25.2393 11.5558H26.0468C26.2476 11.5694 27.4069 11.5755 26.965 13.0552L23.346 21.5168C23.3114 21.5986 23.3502 21.6667 23.4333 21.6667H24.6701C24.7532 21.6667 24.8501 21.5986 24.8862 21.5168L28.7932 12.5826C28.9719 12.1798 29.1866 11.9072 29.4373 11.7663C29.688 11.627 30.0148 11.5543 30.4414 11.5543H30.6824C30.7655 11.5543 30.8334 11.4801 30.8334 11.3892V10.9969C30.8347 10.9076 30.7669 10.8334 30.6838 10.8334Z" fill="#FEFEFE"/>
</svg>
