<svg width="48" height="48" viewBox="0 0 48 48" fill="none" xmlns="http://www.w3.org/2000/svg">
<rect width="48" height="48" fill="#445176"/>
<path fill-rule="evenodd" clip-rule="evenodd" d="M23.877 17.4681C30.6354 17.5027 38.1676 22.3593 38.1638 24.9081C38.159 28.6185 34.007 28.8537 24.5375 28.4237C16.3161 28.0512 14.7791 28.9977 14.7398 31.6205C14.7042 34.0205 20.423 36.5865 27.9926 36.4761C25.9305 37.0425 23.782 37.2105 21.6124 36.7219C17.8722 35.879 13.6828 33.2966 13.6521 31.2019C13.5849 26.7686 20.8175 26.3059 24.622 26.4499C29.2444 26.6227 36.1996 26.8589 36.3148 24.5683C36.4809 21.3177 28.0425 18.2688 23.9327 18.2803L23.8751 17.4681H23.877Z" fill="white"/>
<path fill-rule="evenodd" clip-rule="evenodd" d="M17.8531 12.6192C18.9263 11.7917 21.0499 11.0467 24.1535 11.04C31.0636 11.0237 34.5023 14.087 34.6415 16.1645C34.8143 18.744 31.7366 19.632 24.3791 19.2077C16.8047 18.7718 12.0047 19.2077 11.9663 21.4061C11.9251 23.832 21.3983 29.6889 28.3027 29.6889C33.0547 29.6889 35.6985 28.7712 37.1279 28.0531C36.8937 28.7443 36.5999 29.4105 36.2524 30.0422C34.3132 30.4166 31.7039 30.839 28.2652 30.6912C22.6108 30.4483 11.0236 25.3728 11.0236 21.4051C11.0236 17.4365 20.23 16.9353 24.2668 16.9353C28.3036 16.9353 33.2457 17.8224 33.0191 15.3945C32.7926 12.9677 28.3785 12.1593 25.7001 11.927C23.0217 11.6966 20.0419 12.119 17.854 12.6201" fill="white"/>
<path fill-rule="evenodd" clip-rule="evenodd" d="M13.7029 16.0061C14.4018 15.1881 14.8703 14.6813 15.8216 13.9574C16.8834 13.4726 19.7692 12.6691 24.3887 12.6921C31.4543 12.7257 36.5951 16.2787 36.6335 18.6729C36.6815 21.7565 32.8837 22.7885 24.4348 22.343C16.5224 21.9254 12.3292 22.4486 12.2888 24.7574C12.2466 27.311 20.9672 32.5526 28.1768 32.376C31.676 32.2896 33.9244 31.8192 35.4757 31.2845C35.036 31.9046 34.5407 32.4845 34.0002 33.0221C32.3586 33.3005 30.429 33.5212 28.2901 33.4291C22.3832 33.1728 11.0485 28.5139 11.0485 24.3398C11.0485 20.1638 20.3605 20.3299 24.573 20.4729C29.1973 20.6294 34.8258 20.5209 34.8373 18.2265C34.8498 15.2889 27.3301 13.6473 24.2418 13.6589C19.3141 13.6781 16.8018 14.5824 13.7048 16.0041" fill="white"/>
<path fill-rule="evenodd" clip-rule="evenodd" d="M11.928 18.8947C12.2352 18.2573 12.456 17.8032 12.8592 17.1859C15.6557 15.816 19.0531 15.1718 23.6726 15.1958C30.431 15.2285 37.7078 19.199 37.704 21.7488C37.6992 25.4582 33.9561 25.7443 24.4848 25.3152C16.2643 24.9437 13.1443 25.8384 13.1049 28.4611C13.0665 31.0147 20.9654 34.7434 28.1741 34.5667C29.9837 34.5226 31.4592 34.3747 32.6765 34.1693C31.9421 34.729 31.1481 35.2157 30.3091 35.6208C29.6592 35.6496 28.9843 35.6515 28.2873 35.6208C22.3805 35.3654 11.8646 32.2186 11.8646 28.0435C11.8646 23.6083 20.4086 23.304 24.623 23.447C29.2464 23.6035 35.8454 23.7024 35.855 21.409C35.8694 18.4714 27.839 15.9965 23.7302 16.008C18.8016 16.0214 14.7696 17.3693 11.927 18.8957" fill="white"/>
</svg>
