<svg width="40" height="40" viewBox="0 0 40 40" fill="none" xmlns="http://www.w3.org/2000/svg">
<rect width="40" height="40" fill="#E95A0C"/>
<path fill-rule="evenodd" clip-rule="evenodd" d="M16.208 24.032L18.8 26.7088V20.616C18.8 19.432 18.1656 17.984 17.36 17.168L14.8016 14.5232V20.616C14.8016 21.7872 15.4368 23.2496 16.2096 24.032H16.208ZM24.8 32.8L20.288 28.24C19.392 27.3312 17.84 26.7088 16.56 26.7088H12.8L17.3072 31.2632C18.232 32.2016 19.6032 32.8 20.904 32.8H24.8ZM18.8 14.6304C18.8 13.3088 19.3896 11.9136 20.3136 10.9744L24.8 6.39999V10.2176C24.8 11.5176 24.1856 13.0944 23.2912 14.004L18.8 18.584V14.632V14.6304Z" fill="white"/>
</svg>
