<?xml version="1.0" encoding="utf-8"?><svg viewBox="0 0 118 48" xmlns="http://www.w3.org/2000/svg" xmlns:xlink="http://www.w3.org/1999/xlink"><style>:root>svg{display:none}:root>svg:target{display:block}</style><svg fill="none" viewBox="0 0 16 16" id="afoot" xmlns="http://www.w3.org/2000/svg"><path d="M8.667 4a1.333 1.333 0 100-2.667 1.333 1.333 0 000 2.667zM9.319 8.18c.163.245.407.431.687.525l1.783.594.422-1.264-1.783-.594-1.109-1.664a1.344 1.344 0 00-.512-.452l-.956-.478a1.326 1.326 0 00-.919-.1l-2.129.532a1.335 1.335 0 00-.87.697L2.737 8.369l1.192.596 1.196-2.392 1.482-.371-1.202 5.564-2.45 1.685.756 1.098 2.45-1.685c.28-.193.475-.483.546-.817l.345-1.592 1.678 1.259.617 3.083 1.307-.262-.617-3.084a1.333 1.333 0 00-.508-.804L8.082 9.56l.431-2.59.806 1.209z" fill="#F7F8FC" fill-opacity=".54"/></svg><svg fill="none" viewBox="0 0 14 14" id="bell" xmlns="http://www.w3.org/2000/svg"><path d="M13.365 10.855l-3.049-2.772a.75.75 0 00-1.043.032L7.48 9.961c-.433-.082-1.301-.353-2.195-1.245-.894-.895-1.165-1.765-1.245-2.194l1.844-1.796a.75.75 0 00.032-1.043L3.145.635A.75.75 0 002.1.57L.473 1.965a.75.75 0 00-.217.487C.245 2.64.03 7.081 3.474 10.527c3.005 3.003 6.768 3.223 7.805 3.223.151 0 .244-.005.269-.006a.744.744 0 00.486-.218l1.395-1.628a.748.748 0 00-.064-1.043z" fill="#38424E"/></svg><svg fill="none" viewBox="0 0 24 24" id="btn-input" xmlns="http://www.w3.org/2000/svg"><rect width="24" height="24" rx="12" fill="#F7F8FC"/><path d="M8.195 11.138L12 14.943l3.805-3.805-.943-.943L12 13.057l-2.862-2.862-.943.943z" fill="#38424E"/></svg><svg fill="none" viewBox="0 0 8 12" id="btn_next" xmlns="http://www.w3.org/2000/svg"><path d="M1.707 11.707L7.414 6 1.707.293.293 1.707 4.586 6 .293 10.293l1.414 1.414z" fill="#38424E"/></svg><svg fill="none" viewBox="0 0 8 12" id="btn_prev" xmlns="http://www.w3.org/2000/svg"><path d="M6.293 11.707L.586 6 6.293.293l1.414 1.414L3.414 6l4.293 4.293-1.414 1.414z" fill="#38424E"/></svg><svg fill="none" viewBox="0 0 25 25" id="chat" xmlns="http://www.w3.org/2000/svg"><path d="M5.913 18.002v3.766l1.515-.909 4.762-2.857h4.723c1.103 0 2-.897 2-2v-8c0-1.103-.897-2-2-2h-12c-1.103 0-2 .897-2 2v8c0 1.103.897 2 2 2h1zm-1-10h12v8h-5.277l-3.723 2.234v-2.234h-3v-8z" fill="#F7F8FC"/><path d="M20.913 2.002h-12c-1.103 0-2 .897-2 2h12c1.103 0 2 .897 2 2v8c1.103 0 2-.897 2-2v-8c0-1.103-.897-2-2-2z" fill="#F7F8FC"/></svg><svg fill="none" viewBox="0 0 16 15" id="daw-green" xmlns="http://www.w3.org/2000/svg"><path d="M13.974 4.89A2.99 2.99 0 0014 4.5c0-1.784-1.607-3.216-3.39-2.974A2.996 2.996 0 008 0C6.9 0 5.91.602 5.39 1.526 3.605 1.284 2 2.716 2 4.5c0 .13.009.26.026.39A2.998 2.998 0 00.5 7.5c0 1.099.601 2.089 1.526 2.61A2.98 2.98 0 002 10.5c0 1.784 1.603 3.212 3.39 2.974A2.996 2.996 0 008 15c1.1 0 2.09-.601 2.61-1.526 1.783.238 3.39-1.19 3.39-2.974 0-.13-.009-.26-.026-.39A2.998 2.998 0 0015.5 7.5a2.998 2.998 0 00-1.526-2.61zm-6.758 5.922l-2.75-2.785 1.068-1.053 1.693 1.714 3.245-3.22 1.056 1.064-4.312 4.28z" fill="#5AB677"/></svg><svg fill="none" viewBox="0 0 10 7" id="green-arrow" xmlns="http://www.w3.org/2000/svg"><path d="M.244 1.422L5 6.178l4.756-4.756L8.578.244 5 3.822 1.423.244.244 1.422z" fill="#5AB677"/></svg><svg fill="none" viewBox="0 0 20 19" id="like" xmlns="http://www.w3.org/2000/svg"><path d="M18.205 1.791A5.938 5.938 0 0013.996.037 5.906 5.906 0 0010 1.595 5.904 5.904 0 006.004.037a5.942 5.942 0 00-4.213 1.758c-2.353 2.363-2.352 6.06.002 8.412L10 18.414l8.207-8.207c2.354-2.353 2.355-6.049-.002-8.416z" fill="#EC6B60"/></svg><svg fill="none" viewBox="0 0 32 32" id="like-card" xmlns="http://www.w3.org/2000/svg"><rect opacity=".9" width="32" height="32" rx="16" fill="#F7F8FC"/><path d="M15.326 10.568l.674.614.674-.614a3.922 3.922 0 012.656-1.037c1.045 0 2.037.41 2.8 1.169 1.576 1.583 1.572 4.03.002 5.599h0L16 22.43l-6.132-6.132h0c-1.57-1.57-1.573-4.016-.002-5.596a3.951 3.951 0 012.804-1.172 3.92 3.92 0 012.656 1.037z" stroke="#78859B" stroke-width="2"/></svg><svg fill="none" viewBox="0 0 20 20" id="login" xmlns="http://www.w3.org/2000/svg"><path d="M10 0C4.579 0 0 4.579 0 10s4.579 10 10 10 10-4.579 10-10S15.421 0 10 0zm0 5c1.727 0 3 1.272 3 3s-1.273 3-3 3c-1.726 0-3-1.272-3-3s1.274-3 3-3zm-5.106 9.772c.897-1.32 2.393-2.2 4.106-2.2h2c1.714 0 3.209.88 4.106 2.2A6.969 6.969 0 0110 17a6.969 6.969 0 01-5.106-2.228z" fill="#38424E"/></svg><svg fill="none" viewBox="0 0 48 48" id="logo-1" xmlns="http://www.w3.org/2000/svg"><path fill="#354148" d="M0 0h48v48H0z"/><path fill-rule="evenodd" clip-rule="evenodd" d="M18.947 24.48H24V12.32h-5.053v12.16zm1.32-1.349h2.414v-9.463h-2.415v9.463zm-7.383 4.39h23.242v-1.015H12.884v1.014zm0 9.12h1.354v-1.594h7.741v-5.501h-9.096v7.094h.001zm1.354-3h6.387v-2.688h-6.388v2.687zm13.149-17.276l2.499-2.697V24.48h1.365v-8.116l2.499-2.696V24.48h1.366V12.32h-1.92l-1.946 2.094V12.32h-1.917l-3.312 3.534v8.626h1.365v-8.115zm-4.398 18.68h5.317v1.594h1.464v-1.593h5.346v-5.5H22.989v5.5zm6.781-1.405h3.942v-2.687H29.77v2.687zm-5.375 0h3.912v-2.687h-3.913v2.687zm-7.777-9.16h1.319V12.32h-1.853l-3.2 3.534v8.626h3.733zm-2.414-8.115l2.413-2.697v9.463h-2.413v-6.766z" fill="#FEFEFE"/></svg><svg fill="none" viewBox="0 0 12 12" id="payment" xmlns="http://www.w3.org/2000/svg"><path d="M6 3a1.97 1.97 0 00-1.967 1.967h1a.968.968 0 011.934 0c0 .299-.24.516-.608.813a4.604 4.604 0 00-.345.3c-.5.498-.514 1.027-.514 1.087V7.5h1v-.316c0-.008.016-.194.22-.397.075-.075.17-.15.268-.229.389-.316.979-.792.979-1.591A1.969 1.969 0 006 3zm-.5 5h1v1h-1V8z" fill="#38424E"/><path d="M6 1C3.243 1 1 3.243 1 6s2.243 5 5 5 5-2.243 5-5-2.243-5-5-5zm0 9c-2.205 0-4-1.794-4-4 0-2.205 1.795-4 4-4 2.206 0 4 1.795 4 4 0 2.206-1.794 4-4 4z" fill="#38424E"/></svg><svg fill="none" viewBox="0 0 16 4" id="points" xmlns="http://www.w3.org/2000/svg"><path d="M8 0C6.9 0 6 .9 6 2s.9 2 2 2 2-.9 2-2-.9-2-2-2zm6 0c-1.1 0-2 .9-2 2s.9 2 2 2 2-.9 2-2-.9-2-2-2zM2 0C.9 0 0 .9 0 2s.9 2 2 2 2-.9 2-2-.9-2-2-2z" fill="#38424E"/></svg><svg fill="none" viewBox="0 0 118 32" id="qayli-logo-1" xmlns="http://www.w3.org/2000/svg"><path d="M0 4.139a4 4 0 014-4h20.031a4 4 0 014 4V24.17a4 4 0 01-4 4H4a4 4 0 01-4-4V4.14z" fill="#5AB677"/><rect x="14.016" y="19.473" width="8.76" height="17.52" rx="2" transform="rotate(-45 14.016 19.473)" fill="#5AB677"/><path fill-rule="evenodd" clip-rule="evenodd" d="M21.024 12.206L15.4 6.908a2 2 0 00-2.74-.003l-5.652 5.301v6.962a2 2 0 002 2h10.016a2 2 0 002-2v-6.962z" fill="#fff"/><path d="M43.6 13.368l5.736-7.464h5.808l-7.176 8.568L55.816 24H49.72l-6.12-7.848V24h-4.704V5.904H43.6v7.464zm16.054 4.44c0 .4.072.776.216 1.128.144.336.336.632.576.888.256.256.552.456.888.6a2.95 2.95 0 001.128.216c.384 0 .744-.072 1.08-.216a2.49 2.49 0 00.888-.6c.256-.256.456-.552.6-.888.16-.336.24-.696.24-1.08 0-.384-.08-.744-.24-1.08a2.742 2.742 0 00-.6-.912 2.49 2.49 0 00-.888-.6 2.712 2.712 0 00-1.08-.216c-.4 0-.776.072-1.128.216a2.808 2.808 0 00-.888.6c-.24.256-.432.552-.576.888-.144.32-.216.672-.216 1.056zm5.472-6.12h4.368V24h-4.368v-1.368c-.928 1.168-2.184 1.752-3.768 1.752-.896 0-1.72-.16-2.472-.48a6.115 6.115 0 01-1.968-1.392c-.56-.592-1-1.288-1.32-2.088a7.306 7.306 0 01-.456-2.616c0-.88.152-1.712.456-2.496a6.42 6.42 0 011.272-2.088 5.85 5.85 0 011.944-1.392c.752-.352 1.584-.528 2.496-.528 1.536 0 2.808.536 3.816 1.608v-1.224zm10.708 0v6.888l5.16-6.888h4.344V24h-4.344v-6.864L75.81 24h-4.32V11.688h4.344zm7.272-6.528c-.144 3.024-1.72 4.536-4.728 4.536-3.024 0-4.608-1.512-4.752-4.536h2.784c.16 1.312.816 1.968 1.968 1.968 1.12 0 1.776-.656 1.968-1.968h2.76zm3.676 15.264c.048.016.12.024.216.024.208 0 .392-.016.552-.048a.73.73 0 00.384-.192c.096-.112.168-.272.216-.48a3.75 3.75 0 00.072-.816v-7.224h12V24h-4.344v-8.688h-3.312v4.08c0 .88-.136 1.64-.408 2.28a4.164 4.164 0 01-1.08 1.584c-.464.416-1.032.72-1.704.912a7.117 7.117 0 01-2.16.312h-.432v-4.056zm19.804-8.736v6.888l5.16-6.888h4.344V24h-4.344v-6.864L106.562 24h-4.32V11.688h4.344z" fill="#38424E"/></svg><svg fill="none" viewBox="0 0 97 33" id="qayli-logo-2" xmlns="http://www.w3.org/2000/svg"><path d="M53.267 19.913l2.848 2.92-3.937.593-1.387-1.583c-1.304.709-2.748 1.064-4.333 1.064-2.905 0-5.2-.907-6.883-2.722-1.552-1.65-2.328-3.637-2.328-5.963 0-1.154.223-2.26.669-3.315a8.302 8.302 0 011.882-2.747c1.716-1.666 3.895-2.499 6.536-2.499 1.222 0 2.41.215 3.566.644a8.29 8.29 0 012.996 1.83c1.7 1.634 2.55 3.704 2.55 6.21a8.322 8.322 0 01-.668 3.316 6.677 6.677 0 01-1.51 2.252zm-8.245-3.959l4.036-.52 1.14 1.238a4.11 4.11 0 00.767-2.425c0-.511-.124-1.047-.372-1.608a4.42 4.42 0 00-.965-1.46 4.352 4.352 0 00-1.56-.99c-.595-.247-1.172-.371-1.733-.371-1.305 0-2.394.454-3.269 1.36-.891.924-1.337 2.03-1.337 3.316 0 1.204.413 2.202 1.238 2.994.875.841 1.99 1.262 3.343 1.262.429 0 .875-.058 1.337-.173l-2.625-2.623zM65.906 12.54v-1.064h3.961v11.06h-3.962v-1.213c-.759 1.056-1.906 1.584-3.441 1.584-1.552 0-2.88-.586-3.987-1.757-1.056-1.122-1.584-2.474-1.584-4.058 0-1.814.57-3.29 1.708-4.429 1.04-1.039 2.369-1.558 3.987-1.558 1.353 0 2.46.478 3.318 1.435zm-2.427 1.93c-.66 0-1.238.239-1.733.717-.529.511-.793 1.114-.793 1.806 0 .726.256 1.328.768 1.806.528.495 1.122.743 1.783.743.676 0 1.27-.256 1.783-.767a2.428 2.428 0 00.742-1.782c0-.709-.255-1.311-.767-1.806-.512-.478-1.106-.717-1.783-.717zM72.373 28.201l3.714-7.175-5.348-9.55h4.606l2.946 5.666 2.872-5.666h4.532L76.805 28.2h-4.432zM86.55 4.498h3.96v18.038h-3.96V4.498zM92.704 11.476h3.961v11.06h-3.961v-11.06zm.396-3.019a2.205 2.205 0 01-.644-1.583c0-.61.215-1.13.644-1.56.446-.444.974-.667 1.585-.667.61 0 1.13.223 1.56.668.445.429.668.948.668 1.559 0 .61-.223 1.138-.669 1.583-.429.429-.949.643-1.56.643-.61 0-1.138-.214-1.584-.643z" fill="#F7F8FC"/><path d="M0 4.002a4 4 0 014-4h20.298a4 4 0 014 4V24.28a4 4 0 01-4 4H4a4 4 0 01-4-4V4.002z" fill="#5AB677"/><rect width="8.84" height="17.68" rx="2" transform="rotate(-44.979 30.632 -7.336)" fill="#3BC875"/><path fill-rule="evenodd" clip-rule="evenodd" d="M21.223 12.175l-5.69-5.357a2 2 0 00-2.74-.003l-5.718 5.36v7.04a2 2 0 002 2h10.149a2 2 0 002-2v-7.04z" fill="#fff"/></svg><svg fill="none" viewBox="0 0 12 12" id="transition-ad" xmlns="http://www.w3.org/2000/svg"><path d="M6.5 1.5l1.646 1.647-3.5 3.5.707.707 3.5-3.5L10.5 5.5v-4h-4z" fill="#fff"/><path d="M9.5 9.5h-7v-7H6l-1-1H2.5c-.552 0-1 .448-1 1v7c0 .552.448 1 1 1h7c.552 0 1-.448 1-1V7l-1-1v3.5z" fill="#fff"/></svg><svg fill="none" viewBox="0 0 14 14" id="transport" xmlns="http://www.w3.org/2000/svg"><path d="M13.003 4.317V3A2.67 2.67 0 0010.336.333H3.669A2.67 2.67 0 001.003 3v1.332l-.051.003A.666.666 0 00.333 5v1.333C.333 6.701.631 7 1 7h.003v4c0 .49.268.915.664 1.147V13c0 .369.298.667.666.667H3A.666.666 0 003.667 13v-.667h6.666V13c0 .369.298.667.667.667h.667a.666.666 0 00.666-.667v-.85a1.33 1.33 0 00.67-1.15V7a.666.666 0 00.666-.667V5.041a.67.67 0 00-.048-.303c-.135-.325-.423-.403-.618-.421zM11.67 11H2.336V7.667h9.334V11zM6.336 3.667v2.666h-4V3.667h4zm5.333 0v2.666h-4V3.667h4zm-8-2h6.667c.49 0 .917.27 1.148.666H2.521a1.33 1.33 0 011.148-.666z" fill="#F7F8FC" fill-opacity=".54"/></svg></svg>