<svg width="16" height="16" viewBox="0 0 16 16" fill="none" xmlns="http://www.w3.org/2000/svg">
<path d="M8.66668 3.99998C9.40306 3.99998 10 3.40303 10 2.66665C10 1.93027 9.40306 1.33331 8.66668 1.33331C7.9303 1.33331 7.33334 1.93027 7.33334 2.66665C7.33334 3.40303 7.9303 3.99998 8.66668 3.99998Z" fill="#F7F8FC" fill-opacity="0.54"/>
<path d="M9.31866 8.18001C9.482 8.42534 9.726 8.61134 10.006 8.70467L11.7893 9.29934L12.2113 8.03534L10.428 7.44067L9.31933 5.77734C9.19133 5.58534 9.01466 5.43001 8.80666 5.32467L7.85066 4.84667C7.56733 4.70534 7.242 4.66867 6.932 4.74734L4.80333 5.27867C4.426 5.37267 4.10866 5.62601 3.93266 5.97601L2.73666 8.36867L3.92933 8.96534L5.12533 6.57267L6.60733 6.20201L5.40466 11.766L2.95533 13.4507L3.71066 14.5493L6.16066 12.864C6.44133 12.6707 6.636 12.3807 6.70733 12.0473L7.052 10.4553L8.73 11.714L9.34666 14.7973L10.654 14.5353L10.0373 11.4507C9.97133 11.128 9.79133 10.842 9.52933 10.6467L8.082 9.56134L8.51333 6.97134L9.31866 8.18001Z" fill="#F7F8FC" fill-opacity="0.54"/>
</svg>
