<?xml version="1.0" encoding="utf-8"?><svg viewBox="0 0 118 64" xmlns="http://www.w3.org/2000/svg" xmlns:xlink="http://www.w3.org/1999/xlink"><style>:root>svg{display:none}:root>svg:target{display:block}</style><svg fill="none" viewBox="0 0 16 16" id="afoot" xmlns="http://www.w3.org/2000/svg"><path d="M8.667 4a1.333 1.333 0 100-2.667 1.333 1.333 0 000 2.667zM9.319 8.18c.163.245.407.431.687.525l1.783.594.422-1.264-1.783-.594-1.109-1.664a1.344 1.344 0 00-.512-.452l-.956-.478a1.326 1.326 0 00-.919-.1l-2.129.532a1.335 1.335 0 00-.87.697L2.737 8.369l1.192.596 1.196-2.392 1.482-.371-1.202 5.564-2.45 1.685.756 1.098 2.45-1.685c.28-.193.475-.483.546-.817l.345-1.592 1.678 1.259.617 3.083 1.307-.262-.617-3.084a1.333 1.333 0 00-.508-.804L8.082 9.56l.431-2.59.806 1.209z" fill="#F7F8FC" fill-opacity=".54"/></svg><svg fill="none" viewBox="0 0 14 14" id="bell" xmlns="http://www.w3.org/2000/svg"><path d="M13.365 10.855l-3.049-2.772a.75.75 0 00-1.043.032L7.48 9.961c-.433-.082-1.301-.353-2.195-1.245-.894-.895-1.165-1.765-1.245-2.194l1.844-1.796a.75.75 0 00.032-1.043L3.145.635A.75.75 0 002.1.57L.473 1.965a.75.75 0 00-.217.487C.245 2.64.03 7.081 3.474 10.527c3.005 3.003 6.768 3.223 7.805 3.223.151 0 .244-.005.269-.006a.744.744 0 00.486-.218l1.395-1.628a.748.748 0 00-.064-1.043z" fill="#38424E"/></svg><svg fill="none" viewBox="0 0 24 24" id="btn-input" xmlns="http://www.w3.org/2000/svg"><rect width="24" height="24" rx="12" fill="#F7F8FC"/><path d="M8.195 11.138L12 14.943l3.805-3.805-.943-.943L12 13.057l-2.862-2.862-.943.943z" fill="#38424E"/></svg><svg fill="none" viewBox="0 0 8 12" id="btn_next" xmlns="http://www.w3.org/2000/svg"><path d="M1.707 11.707L7.414 6 1.707.293.293 1.707 4.586 6 .293 10.293l1.414 1.414z" fill="#38424E"/></svg><svg fill="none" viewBox="0 0 8 12" id="btn_prev" xmlns="http://www.w3.org/2000/svg"><path d="M6.293 11.707L.586 6 6.293.293l1.414 1.414L3.414 6l4.293 4.293-1.414 1.414z" fill="#38424E"/></svg><svg fill="none" viewBox="0 0 25 25" id="chat" xmlns="http://www.w3.org/2000/svg"><path d="M5.913 18.002v3.766l1.515-.909 4.762-2.857h4.723c1.103 0 2-.897 2-2v-8c0-1.103-.897-2-2-2h-12c-1.103 0-2 .897-2 2v8c0 1.103.897 2 2 2h1zm-1-10h12v8h-5.277l-3.723 2.234v-2.234h-3v-8z" fill="#F7F8FC"/><path d="M20.913 2.002h-12c-1.103 0-2 .897-2 2h12c1.103 0 2 .897 2 2v8c1.103 0 2-.897 2-2v-8c0-1.103-.897-2-2-2z" fill="#F7F8FC"/></svg><svg fill="none" viewBox="0 0 16 15" id="daw-green" xmlns="http://www.w3.org/2000/svg"><path d="M13.974 4.89A2.99 2.99 0 0014 4.5c0-1.784-1.607-3.216-3.39-2.974A2.996 2.996 0 008 0C6.9 0 5.91.602 5.39 1.526 3.605 1.284 2 2.716 2 4.5c0 .13.009.26.026.39A2.998 2.998 0 00.5 7.5c0 1.099.601 2.089 1.526 2.61A2.98 2.98 0 002 10.5c0 1.784 1.603 3.212 3.39 2.974A2.996 2.996 0 008 15c1.1 0 2.09-.601 2.61-1.526 1.783.238 3.39-1.19 3.39-2.974 0-.13-.009-.26-.026-.39A2.998 2.998 0 0015.5 7.5a2.998 2.998 0 00-1.526-2.61zm-6.758 5.922l-2.75-2.785 1.068-1.053 1.693 1.714 3.245-3.22 1.056 1.064-4.312 4.28z" fill="#5AB677"/></svg><svg fill="none" viewBox="0 0 10 7" id="green-arrow" xmlns="http://www.w3.org/2000/svg"><path d="M.244 1.422L5 6.178l4.756-4.756L8.578.244 5 3.822 1.423.244.244 1.422z" fill="#5AB677"/></svg><svg fill="none" viewBox="0 0 20 19" id="like" xmlns="http://www.w3.org/2000/svg"><path d="M18.205 1.791A5.938 5.938 0 0013.996.037 5.906 5.906 0 0010 1.595 5.904 5.904 0 006.004.037a5.942 5.942 0 00-4.213 1.758c-2.353 2.363-2.352 6.06.002 8.412L10 18.414l8.207-8.207c2.354-2.353 2.355-6.049-.002-8.416z" fill="#EC6B60"/></svg><svg fill="none" viewBox="0 0 32 32" id="like-card" xmlns="http://www.w3.org/2000/svg"><rect opacity=".9" width="32" height="32" rx="16" fill="#F7F8FC"/><path d="M15.326 10.568l.674.614.674-.614a3.922 3.922 0 012.656-1.037c1.045 0 2.037.41 2.8 1.169 1.576 1.583 1.572 4.03.002 5.599h0L16 22.43l-6.132-6.132h0c-1.57-1.57-1.573-4.016-.002-5.596a3.951 3.951 0 012.804-1.172 3.92 3.92 0 012.656 1.037z" stroke="#78859B" stroke-width="2"/></svg><svg fill="none" viewBox="0 0 20 20" id="login" xmlns="http://www.w3.org/2000/svg"><path d="M10 0C4.579 0 0 4.579 0 10s4.579 10 10 10 10-4.579 10-10S15.421 0 10 0zm0 5c1.727 0 3 1.272 3 3s-1.273 3-3 3c-1.726 0-3-1.272-3-3s1.274-3 3-3zm-5.106 9.772c.897-1.32 2.393-2.2 4.106-2.2h2c1.714 0 3.209.88 4.106 2.2A6.969 6.969 0 0110 17a6.969 6.969 0 01-5.106-2.228z" fill="#38424E"/></svg><svg fill="none" viewBox="0 0 48 48" id="logo-1" xmlns="http://www.w3.org/2000/svg"><path fill="#354148" d="M0 0h48v48H0z"/><path fill-rule="evenodd" clip-rule="evenodd" d="M18.947 24.48H24V12.32h-5.053v12.16zm1.32-1.349h2.414v-9.463h-2.415v9.463zm-7.383 4.39h23.242v-1.015H12.884v1.014zm0 9.12h1.354v-1.594h7.741v-5.501h-9.096v7.094h.001zm1.354-3h6.387v-2.688h-6.388v2.687zm13.149-17.276l2.499-2.697V24.48h1.365v-8.116l2.499-2.696V24.48h1.366V12.32h-1.92l-1.946 2.094V12.32h-1.917l-3.312 3.534v8.626h1.365v-8.115zm-4.398 18.68h5.317v1.594h1.464v-1.593h5.346v-5.5H22.989v5.5zm6.781-1.405h3.942v-2.687H29.77v2.687zm-5.375 0h3.912v-2.687h-3.913v2.687zm-7.777-9.16h1.319V12.32h-1.853l-3.2 3.534v8.626h3.733zm-2.414-8.115l2.413-2.697v9.463h-2.413v-6.766z" fill="#FEFEFE"/></svg><svg fill="none" viewBox="0 0 64 64" id="logo-10" xmlns="http://www.w3.org/2000/svg"><path fill="#194F2E" d="M0 0h64v64H0z"/><path fill-rule="evenodd" clip-rule="evenodd" d="M34.836 24.084a1.222 1.222 0 00-1.229 1.216c0 .238.072.471.204.669l.346.573a1.002 1.002 0 00-.003 1.517l-.343.572a1.202 1.202 0 00-.202.668c0 .674.55 1.218 1.227 1.218.679 0 1.228-.544 1.228-1.216 0-.5-.579-1.679-.579-1.679v-.642s.579-1.183.579-1.678c0-.672-.55-1.218-1.228-1.218zm0-1.144a2.373 2.373 0 012.381 2.362c0 .458-.134.884-.365 1.247H47.9c.312 0 .572.26.572.576v.352c0 .316-.26.575-.572.575h-1.63v.496h.813v.694h-.813v.723h.813v1.325h-.813v-.6h-1.2v.6h-.812v-1.325h.812v-.723h-.812v-.694h.812v-.495h-8.217c.23.362.365.787.365 1.246a2.371 2.371 0 01-2.38 2.362 2.369 2.369 0 01-2.382-2.362c0-.512.168-.982.448-1.368a.75.75 0 010-1.26 2.33 2.33 0 01-.448-1.37 2.37 2.37 0 012.381-2.36zm-14.002 1.271l4.544 4.427v-2.859l-4.544-4.403v2.835zm0-3.708l4.544 4.425v-2.857l-4.544-4.403v2.835zm0-3.71l4.544 4.43v-2.859l-4.544-4.403v2.833zM29.852 6.4v4.516l-.6.583V6.4h-.685v5.764l-.602.582V6.4h-.683v7.01l-.602.583V6.4h-.685v11.113l4.542-4.426V6.4h-.685zm-9.018 21.603l4.544 4.427v-3.028L20.834 25v3.003zm5.161.634l4.542-4.426v-2.835l-4.542 4.403v2.859zM24.695 6.4v7.594l-.604-.585V6.4h-.684v6.346l-.602-.583V6.4h-.683v5.1l-.604-.584V6.4h-.684v6.687l4.544 4.426V6.4h-.683zm1.3 18.528l4.542-4.425v-2.835l-4.542 4.403v2.857zm0-3.707l4.542-4.427V13.96l-4.542 4.403v2.857zm0 8.18L30.537 25v3.003l-4.542 4.427V29.4z" fill="#FFCB05"/><path fill-rule="evenodd" clip-rule="evenodd" d="M40.3 48.331a19.4 19.4 0 00.826-.428v-6.434H40.3V48.332zm-11.46-3.927h.802V36.34h-.801v8.064zm17.895-1.28c.318-.405.617-.825.899-1.258v-3.261h-.899v4.52zm2.652-5.474c.086.101.16.132.224.116.146-.436.277-.88.388-1.33h-3.264v.724h.45c.807-.026 1.712-.036 2.202.49zm-5.665-2.446l-.87 4.457.87.822v-5.28zm-16.73 14.173a17.03 17.03 0 01-.798-.26V34.002h3.448c1.407 0 2.253.547 2.538 1.649.307-1.052 1.118-1.58 2.455-1.58h.784c1.112 0 1.867.366 2.267 1.09l-.177-.895h12.89c-.029.243-.063.482-.103.723h-5.678v10.42c-.489.445-1.005.863-1.541 1.255v-4.972c0-.862-.169-1.392-1.04-1.697l1.04-4.965H41.14l-.307 5.425h-.225l-.309-5.425h-1.838l.913 4.966c-.827.278-1.024.889-1.024 1.696v7.446c-.364.128-.732.243-1.107.348v-8.1h-1.824v8.509c-.259.044-.521.083-.784.116V36.48h.784v4.13h1.824v-3.868c0-.695-.128-1.181-.393-1.46-.519-.515-1.529-.416-2.215-.416-.673 0-1.152.14-1.417.416-.266.279-.408.765-.408 1.46v13.41c-.166.005-.335.009-.506.009l-.265-.004V45.5c-.375.828-1.175 1.242-2.397 1.242v3.225a16.867 16.867 0 01-.801-.135v-3.866c.128 0 .267 0 .408.013.646 0 1.416 0 1.837-.42.282-.264.407-.735.407-1.416v-7.54c0-.68-.127-1.153-.407-1.416-.28-.266-.757-.404-1.444-.404h-2.65v14.596-.002zm5.312-37.53c-.326 0-.651.01-.972.024v1.376c.321-.016.646-.022.972-.022 10.502 0 19.015 8.441 19.015 18.856 0 10.415-8.513 18.858-19.015 18.858-10.5 0-19.013-8.443-19.013-18.858 0-5.78 2.623-10.95 6.751-14.41v-1.76c-4.942 3.692-8.138 9.562-8.138 16.17 0 11.174 9.134 20.234 20.4 20.234 11.268 0 20.402-9.06 20.402-20.234 0-11.175-9.135-20.233-20.402-20.233zm-9.363 27.787c-1.781-1.726-2.976-2.857-3.933-3.806-1.822-1.808-2.303-3.033-2.303-3.033v2.54c0 2.812 1.287 4.609 1.943 5.342l4.704 4.565c1.31 1.273 1.543 1.879 1.834 2.603V44.4c0-2.901-1.484-4.028-2.245-4.765zm-3.933-11.085c.957.947 2.15 2.08 3.933 3.807.76.736 2.245 1.862 2.245 4.764v3.261c-.291-.724-.524-1.147-1.834-2.419l-4.701-4.582c-.712-.707-1.946-2.514-1.946-5.325v-2.941s.481 1.627 2.304 3.435h-.001z" fill="#fff"/></svg><svg fill="none" viewBox="0 0 64 64" id="logo-11" xmlns="http://www.w3.org/2000/svg"><path fill="#0294F0" d="M0 0h36v64H0z"/><path fill="#F3EA14" d="M36 0h28v44H36z"/><path fill="#21A038" d="M12 33.333h52V64H12z"/><g filter="url(#anfilter0_b)"><path fill="url(#anpaint0_angular)" fill-opacity=".01" d="M0 0h64v64H0z"/></g><path d="M45.61 21.405c.818 1.055 1.5 2.212 2.079 3.437L31.94 36.447l-6.613-4.152v-4.968l6.579 4.117 13.702-10.039zM18.613 31.955c0-.238 0-.442.034-.68l-3.988-.205c0 .272-.034.579-.034.85 0 4.765 1.943 9.087 5.079 12.218l2.829-2.824a13.07 13.07 0 01-3.92-9.36zM31.907 18.682c.238 0 .443 0 .682.034l.204-3.981c-.273 0-.58-.034-.852-.034-4.772 0-9.101 1.94-12.237 5.07l2.829 2.825a13.171 13.171 0 019.374-3.914zM31.907 45.227c-.239 0-.443 0-.682-.034l-.205 3.982c.273 0 .58.034.853.034 4.772 0 9.1-1.94 12.237-5.07l-2.83-2.825c-2.386 2.45-5.692 3.913-9.373 3.913z" fill="#fff"/><path d="M39.406 20.997l3.374-2.485c-2.965-2.382-6.749-3.845-10.873-3.845v3.981c2.795.034 5.385.885 7.499 2.349zM49.223 31.955c0-1.055-.103-2.076-.273-3.097l-3.715 2.756v.34c0 3.914-1.705 7.42-4.398 9.836l2.693 2.96a17.227 17.227 0 005.693-12.795zM31.907 45.227c-3.92 0-7.431-1.701-9.851-4.39l-2.966 2.689a17.212 17.212 0 0012.817 5.683v-3.982zM23.01 22.12l-2.693-2.961a17.16 17.16 0 00-5.692 12.796h3.988c0-3.88 1.704-7.42 4.397-9.835z" fill="#fff"/><defs><radialGradient id="anpaint0_angular" cx="0" cy="0" r="1" gradientUnits="userSpaceOnUse" gradientTransform="matrix(0 32 -32 0 32 32)"><stop offset=".328" stop-color="#0199F9"/><stop offset=".51" stop-color="#EFE815"/><stop offset="1" stop-color="#21A038"/></radialGradient><filter id="anfilter0_b" x="-32" y="-32" width="128" height="128" filterUnits="userSpaceOnUse" color-interpolation-filters="sRGB"><feFlood flood-opacity="0" result="BackgroundImageFix"/><feGaussianBlur in="BackgroundImage" stdDeviation="16"/><feComposite in2="SourceAlpha" operator="in" result="effect1_backgroundBlur"/><feBlend in="SourceGraphic" in2="effect1_backgroundBlur" result="shape"/></filter></defs></svg><svg fill="none" viewBox="0 0 64 64" id="logo-12" xmlns="http://www.w3.org/2000/svg"><path fill="#009B3A" d="M0 0h64v64H0z"/><g clip-path="url(#aoclip0)" fill="#fff"><path d="M16.636 20.768c0-.065-.022-.13-.043-.236l-1.365-3.695c-.173-.45-.411-.644-.78-.644-.39 0-.628.194-.78.644l-1.385 3.695a.97.97 0 00-.065.236c0 .193.151.343.368.343.173 0 .303-.085.39-.3l.454-1.267h2.036l.455 1.267c.065.215.195.3.368.3.195.022.347-.15.347-.343zm-2.989-1.869l.671-1.911c.022-.065.044-.086.109-.086.043 0 .065.021.086.086l.672 1.911h-1.538zm9.205 2.19h1.473c.953 0 1.537-.557 1.537-1.524 0-.923-.563-1.439-1.537-1.439h-1.3v-1.181h2.166c.238 0 .39-.129.39-.365 0-.215-.152-.344-.39-.344h-2.36c-.369 0-.586.194-.586.58v3.694c.044.387.239.58.607.58zm.195-2.297h1.213c.563 0 .823.3.823.794 0 .516-.26.817-.823.817h-1.213v-1.611zm-8.512 6.722h-1.451v-1.503h2.404c.152 0 .282-.086.282-.237 0-.15-.109-.236-.282-.236h-2.469c-.281 0-.433.15-.433.43v4.016c0 .279.152.43.433.43h1.516c.931 0 1.473-.538 1.473-1.461 0-.924-.542-1.439-1.473-1.439zm-.065 2.405h-1.386v-1.954h1.386c.715 0 1.018.344 1.018.966 0 .623-.281.988-1.018.988zm3.574-3.221c-.434 0-.845.107-1.061.215-.152.064-.217.129-.217.257 0 .13.108.215.217.215.064 0 .13-.021.194-.064.174-.065.498-.172.823-.172.628 0 .932.258.932.816v.344a3.544 3.544 0 00-1.018-.15c-.931 0-1.386.536-1.386 1.116 0 .709.541 1.16 1.364 1.16.693 0 1.235-.236 1.43-.387.086-.064.108-.107.108-.214v-1.89c-.022-.838-.542-1.246-1.386-1.246zm.866 3.05c-.282.15-.65.257-.975.257-.606 0-.952-.257-.952-.708 0-.409.303-.688.952-.688.325 0 .607.043.975.15v.989zm12.908-10.352c-.65 0-1.17.236-1.364.343-.173.108-.195.172-.195.452v3.736c0 .237.151.387.368.387s.368-.15.368-.387v-.966c.217.107.563.193.888.193.867 0 1.451-.558 1.516-1.374a7.87 7.87 0 000-1.01c-.065-.816-.65-1.374-1.58-1.374zm.845 2.276c-.043.473-.346.774-.866.774-.282 0-.628-.086-.802-.215v-1.933c.174-.129.52-.215.802-.215.541 0 .823.322.866.773.022.258.022.559 0 .816zm-12.453.816l-1.278-1.267 1.213-1.202c.086-.086.151-.193.151-.3 0-.173-.13-.302-.325-.302-.108 0-.195.043-.281.15l-1.256 1.225a.312.312 0 01-.239.107h-.26v-1.073c0-.237-.151-.387-.368-.387-.216 0-.368.15-.368.387v2.899c0 .236.152.386.368.386.217 0 .368-.15.368-.386v-1.16h.217a.35.35 0 01.238.107l1.321 1.31c.109.108.195.15.304.15.194 0 .325-.128.325-.321 0-.13-.044-.215-.13-.323zm16.633-.73c-.173 0-.26.108-.325.215-.13.28-.39.473-.78.473-.52 0-.844-.323-.888-.774a4.858 4.858 0 010-.794c.044-.473.347-.773.889-.773.368 0 .65.193.78.472.064.107.15.215.324.215.217 0 .368-.129.368-.344 0-.107-.043-.215-.108-.343-.217-.408-.693-.71-1.364-.71-.91 0-1.517.58-1.603 1.397-.022.28-.022.73 0 .988.086.816.693 1.396 1.602 1.396.672 0 1.148-.322 1.365-.73.065-.13.108-.237.108-.344-.021-.215-.151-.344-.368-.344zm-8.945-2.362c-.411 0-.78.107-1.018.193-.195.086-.281.194-.281.344 0 .172.13.322.303.322.087 0 .173-.043.281-.064.152-.065.412-.13.672-.13.563 0 .801.215.801.645v.3a3.443 3.443 0 00-.91-.128c-.93 0-1.386.537-1.386 1.095 0 .666.52 1.181 1.408 1.181.693 0 1.235-.236 1.451-.386.109-.065.13-.13.13-.28v-1.782c.022-.902-.52-1.31-1.45-1.31zm.758 2.942c-.216.108-.52.194-.801.194-.477 0-.78-.215-.78-.559 0-.322.26-.58.78-.58.281 0 .52.043.823.13v.815h-.022zm-3.075 6.207l1.407-1.396a.261.261 0 00.087-.193.216.216 0 00-.216-.215.266.266 0 00-.195.086L25.278 26.2c-.087.086-.152.13-.26.13h-.239v-1.31c0-.173-.086-.259-.238-.259-.151 0-.238.086-.238.258V28.2c0 .171.087.257.238.257.152 0 .238-.086.238-.257V26.78h.26a.31.31 0 01.26.129l1.473 1.46c.065.065.13.086.195.086.13 0 .216-.107.216-.214 0-.086-.021-.13-.108-.215l-1.494-1.482zm-2.513-1.826c-.151 0-.238.086-.238.258v1.31h-2.036v-1.31c0-.172-.086-.258-.238-.258s-.238.086-.238.258v3.179c0 .172.086.257.238.257s.238-.085.238-.257v-1.418h2.036v1.418c0 .172.087.257.238.257.152 0 .239-.085.239-.257v-3.179c0-.15-.087-.258-.239-.258zM37.167 38.12l-3.314.602c-.542.107-.91.623-.823 1.16.108.537.628.902 1.17.816l3.313-.602c.78-.15 1.278.323 1.473.817.195.493.152 1.16-.52 1.589l-4.851 3.135c-.455.301-.997.301-1.473.065a1.42 1.42 0 01-.758-1.267v-7.71c0-1.289-.672-2.406-1.82-3.029-1.126-.622-2.468-.558-3.551.13l-12.259 7.881c-1.386.88-1.906 2.491-1.3 4.016.607 1.525 2.101 2.341 3.726 2.062l10.699-1.911c.541-.108.91-.623.823-1.16a1.036 1.036 0 00-1.17-.816l-10.699 1.911c-.801.15-1.278-.322-1.473-.816-.194-.494-.151-1.16.52-1.59l12.259-7.881c.455-.3.996-.3 1.473-.064.476.257.758.73.758 1.267v7.71c0 1.288.671 2.405 1.819 3.028.52.279 1.105.43 1.668.43.65 0 1.3-.194 1.884-.559l4.873-3.136c1.386-.88 1.906-2.49 1.3-4.016-.629-1.525-2.123-2.362-3.747-2.062zm17.153 2.04c-.607-1.524-2.101-2.34-3.725-2.06l-3.314.6c-.541.108-.91.623-.823 1.16.108.537.628.902 1.17.816l3.313-.601c.78-.15 1.278.322 1.473.816.195.494.151 1.16-.52 1.59l-4.851 3.156c-.455.301-.997.301-1.473.065a1.42 1.42 0 01-.758-1.267V34.276c0-.558-.455-1.01-1.018-1.01s-1.018.452-1.018 1.01v10.159c0 1.288.671 2.405 1.82 3.028.52.279 1.104.43 1.667.43.65 0 1.3-.194 1.884-.559l4.873-3.136c1.386-.902 1.906-2.512 1.3-4.037z"/></g><defs><clipPath id="aoclip0"><path fill="#fff" transform="translate(12 16)" d="M0 0h42.667v32H0z"/></clipPath></defs></svg><svg fill="none" viewBox="0 0 64 64" id="logo-13" xmlns="http://www.w3.org/2000/svg"><path fill="#EE3524" d="M0 0h64v64H0z"/><path d="M32 10.667c2.817 0 3.725 2.086 4.476 4.173.313.867 7.668 21.542 7.887 22.152.063.16.031.45-.25.546-.282.096-4.07 1.637-4.288 1.702a.429.429 0 01-.532-.257c-.094-.225-1.66-4.72-1.847-5.201H26.554c-.188.513-1.784 5.008-1.847 5.2-.062.193-.313.354-.532.258-.219-.097-4.069-1.606-4.288-1.702a.461.461 0 01-.25-.546c.282-.77 7.512-21.092 7.887-22.152.72-2.054 1.66-4.173 4.476-4.173zM19.074 47.619c-.22 0-.407.192-.407.45v4.815c0 .257.188.45.407.45h25.852c.22 0 .407-.193.407-.45v-4.816c0-.257-.188-.45-.407-.45H19.074zM32 17.409L28.307 28.74h7.418L32.03 17.41H32z" fill="#fff"/></svg><svg fill="none" viewBox="0 0 64 64" id="logo-14" xmlns="http://www.w3.org/2000/svg"><path fill="#E95A0C" d="M0 0h64v64H0z"/><path fill-rule="evenodd" clip-rule="evenodd" d="M25.933 38.451l4.147 4.283v-9.748c0-1.895-1.015-4.212-2.304-5.517l-4.093-4.232v9.749c0 1.873 1.016 4.213 2.252 5.465h-.002zM39.68 52.48l-7.22-7.296c-1.433-1.454-3.916-2.45-5.964-2.45H20.48l7.212 7.287c1.48 1.502 3.673 2.459 5.754 2.459h6.234zm-9.6-29.071c0-2.115.943-4.347 2.422-5.85l7.178-7.319v6.108c0 2.08-.983 4.603-2.414 6.058l-7.186 7.328V23.41z" fill="#fff"/></svg><svg fill="none" viewBox="0 0 48 48" id="logo-2" xmlns="http://www.w3.org/2000/svg"><path fill="#F7F8FC" d="M0 0h48v48H0z"/><g clip-path="url(#arclip0)"><path d="M33.333 20.5c-1.827 4.887-7.506 7.45-12.688 5.727-5.183-1.725-7.903-7.077-6.074-11.966 1.826-4.886 7.506-7.449 12.688-5.726 5.18 1.724 7.9 7.08 6.074 11.965z" fill="url(#arpaint0_linear)"/><path d="M33.897 32.658l.003.949c.006 1.802-4.438 3.28-9.935 3.3-5.494.02-9.95-1.428-9.96-3.23l-.002-.947 19.894-.072z" fill="url(#arpaint1_linear)"/><path d="M33.897 32.659c.006 1.805-4.441 3.28-9.935 3.297-5.494.016-9.956-1.428-9.959-3.228-.006-1.805 4.441-3.283 9.938-3.303 5.491-.014 9.95 1.431 9.956 3.234z" fill="url(#arpaint2_linear)"/><path d="M14.003 39.91c0-.263 4.453-.527 9.95-.527 5.494 0 9.947.261 9.947.527v.563c0 .26-4.453.524-9.947.524-5.494 0-9.95-.26-9.95-.524v-.563z" fill="url(#arpaint3_linear)"/></g><defs><linearGradient id="arpaint0_linear" x1="21.528" y1="20.449" x2="35.53" y2=".513" gradientUnits="userSpaceOnUse"><stop stop-color="#DB1E33"/><stop offset="1" stop-color="#F57E21"/></linearGradient><linearGradient id="arpaint1_linear" x1="27.322" y1="34.751" x2="35.901" y2="34.988" gradientUnits="userSpaceOnUse"><stop stop-color="#A11C34"/><stop offset="1" stop-color="#C22034"/></linearGradient><linearGradient id="arpaint2_linear" x1="22.702" y1="33.282" x2="42.77" y2="22.648" gradientUnits="userSpaceOnUse"><stop stop-color="#DB1E33"/><stop offset=".81" stop-color="#F08128"/><stop offset="1" stop-color="#F79421"/></linearGradient><linearGradient id="arpaint3_linear" x1="21.866" y1="40.27" x2="9.054" y2="40.812" gradientUnits="userSpaceOnUse"><stop stop-color="#A11C34"/><stop offset="1" stop-color="#C22034"/></linearGradient><clipPath id="arclip0"><path fill="#fff" transform="translate(14 8)" d="M0 0h20v33H0z"/></clipPath></defs></svg><svg fill="none" viewBox="0 0 48 48" id="logo-3" xmlns="http://www.w3.org/2000/svg"><path fill="#D93832" d="M0 0h48v48H0z"/><path fill-rule="evenodd" clip-rule="evenodd" d="M14 26.956C14 32.455 17.087 38 24 38c6.907 0 10-5.545 10-11.044 0-3.757-1.269-8.082-3.386-11.575C28.555 12.006 26.081 10 24 10c-2.087 0-4.562 2.007-6.603 5.38C15.269 18.875 14 23.2 14 26.956z" fill="#fff"/></svg><svg fill="none" viewBox="0 0 48 48" id="logo-4" xmlns="http://www.w3.org/2000/svg"><path fill="#445176" d="M0 0h48v48H0z"/><path fill-rule="evenodd" clip-rule="evenodd" d="M23.877 17.468c6.758.035 14.29 4.891 14.287 7.44-.005 3.71-4.157 3.946-13.627 3.516-8.22-.373-9.758.574-9.797 3.197-.036 2.4 5.683 4.966 13.253 4.855-2.063.566-4.211.735-6.38.246-3.74-.843-7.93-3.425-7.96-5.52-.068-4.433 7.164-4.896 10.969-4.752 4.622.173 11.578.409 11.693-1.882.166-3.25-8.272-6.3-12.382-6.288l-.058-.812h.002z" fill="#fff"/><path fill-rule="evenodd" clip-rule="evenodd" d="M17.853 12.62c1.073-.828 3.197-1.573 6.3-1.58 6.91-.016 10.35 3.047 10.489 5.125.172 2.579-2.905 3.467-10.263 3.043-7.574-.436-12.374 0-12.413 2.198-.04 2.426 9.432 8.283 16.337 8.283 4.752 0 7.396-.918 8.825-1.636a12.355 12.355 0 01-.876 1.99c-1.939.374-4.548.796-7.987.648-5.654-.243-17.241-5.318-17.241-9.286 0-3.969 9.206-4.47 13.243-4.47 4.037 0 8.979.887 8.752-1.54-.226-2.427-4.64-3.236-7.319-3.468-2.678-.23-5.658.192-7.846.693" fill="#fff"/><path fill-rule="evenodd" clip-rule="evenodd" d="M13.703 16.006c.699-.818 1.167-1.325 2.119-2.049 1.061-.484 3.947-1.288 8.567-1.265 7.065.034 12.206 3.587 12.244 5.98.048 3.084-3.75 4.116-12.198 3.671-7.913-.418-12.106.106-12.146 2.414-.042 2.554 8.678 7.796 15.888 7.619 3.499-.086 5.747-.557 7.299-1.091-.44.62-.935 1.2-1.476 1.737-1.641.279-3.571.5-5.71.407-5.907-.256-17.241-4.915-17.241-9.09s9.311-4.01 13.524-3.866c4.624.156 10.253.048 10.264-2.246.013-2.938-7.507-4.58-10.595-4.568-4.928.02-7.44.923-10.537 2.345" fill="#fff"/><path fill-rule="evenodd" clip-rule="evenodd" d="M11.928 18.895c.307-.638.528-1.092.931-1.71 2.797-1.369 6.194-2.013 10.814-1.99 6.758.034 14.035 4.004 14.031 6.554-.005 3.71-3.748 3.995-13.22 3.566-8.22-.371-11.34.523-11.38 3.146-.037 2.554 7.861 6.282 15.07 6.106 1.81-.044 3.285-.192 4.502-.398a13.82 13.82 0 01-2.367 1.452c-.65.029-1.325.03-2.022 0-5.906-.256-16.422-3.402-16.422-7.578 0-4.435 8.544-4.739 12.758-4.596 4.623.157 11.222.255 11.232-2.038.014-2.938-8.016-5.412-12.125-5.401-4.928.013-8.96 1.361-11.803 2.888" fill="#fff"/></svg><svg fill="none" viewBox="0 0 48 48" id="logo-5" xmlns="http://www.w3.org/2000/svg"><path fill="#2051B2" d="M0 0h48v48H0z"/><path d="M38.194 16.857c0-3.79-3.116-6.862-6.959-6.862h-9.828c-3.171 0-5.876 2.108-6.696 5.02h11.88c4.571 0 6.51 2.098 6.51 7.02v11.121c2.948-.811 5.093-3.487 5.093-6.604v-9.695zM9.6 31.316c0 3.79 3.114 6.86 6.958 6.86h9.828c3.171 0 5.876-2.106 6.697-5.02h-11.88c-4.571 0-6.51-2.098-6.51-7.019V15.016c-2.949.81-5.093 3.488-5.093 6.604v9.696z" fill="#fff"/><path d="M28.037 23.693h-.92v-2.206h.92c1.123 0 1.428.534 1.428 1.1 0 .563-.408 1.106-1.428 1.106zm-.92-5.418h.735c1.246 0 1.308.753 1.308.985 0 .342-.184.978-1.247.978h-.797V18.275zm-1.613 3.847v1.922c-.39-.229-.837-.411-1.306-.612-.511-.223-1.062-.505-1.062-1.14 0-.325.204-.805 1.184-.805h1.817l-.633.635zm-6.25 4.916h-.756v-2.59h.756c.94 0 1.368.562 1.368 1.248 0 .636-.386 1.342-1.368 1.342zm10.254-6.206v-.03c.55-.172 1.286-.624 1.286-1.814 0-1.338-1.104-1.953-2.655-1.953h-2.635v3.204h-1.552c-2.083 0-2.512 1.44-2.512 2.226 0 1.116.654 1.61 1.86 2.205.732.36 1.61.583 1.61 1.41 0 .434-.407.958-1.284.958h-1.634c.245-.414.346-.867.346-1.26 0-.513-.184-2.569-3.084-2.569h-2.37v7.926h1.614v-3.453l.653.644h4.413c2.06 0 3.041-1.046 3.041-2.296 0-.442-.081-.798-.224-1.087h1.655c2.552 0 3.144-1.25 3.144-2.228 0-.996-.653-1.732-1.673-1.883h.001z" fill="#fff"/></svg><svg fill="none" viewBox="0 0 48 48" id="logo-6" xmlns="http://www.w3.org/2000/svg"><path fill="#E9041E" d="M0 0h48v24H0z"/><path fill="#000" d="M0 48h48V24H0z"/><path d="M8 22h31v4H8v-4z" fill="#fff"/></svg><svg fill="none" viewBox="0 0 48 48" id="logo-7" xmlns="http://www.w3.org/2000/svg"><path fill="#3C5186" d="M0 0h48v48H0z"/><path fill-rule="evenodd" clip-rule="evenodd" d="M24.624 17.194c.269-.023.536.017.785.115l-.057-7.525h.9a73.8 73.8 0 00.279 7.694 11.09 11.09 0 013.49 20.047c-.057-.058-.169-.228-.278-.344-3.2-4.193-3.99-10.468-4.212-15.911.445.105.896.182 1.35.232a23.592 23.592 0 005.793 12.405 7.562 7.562 0 00-.448-9.888 10.62 10.62 0 00-5.165-3.156 11.578 11.578 0 00-2.86-.344c-.964.002-1.925.117-2.861.344-4.159 1.094-7.246 4.425-7.246 8.385a8.1 8.1 0 001.57 4.653 23.183 23.183 0 005.786-12.405c.47-.053.938-.131 1.402-.232-.228 5.455-1.012 11.631-4.21 15.854v-.058a3.102 3.102 0 01-.339.459A11.15 11.15 0 0121.9 17.472c.278-5.63.225-7.693.225-7.693h.896l-.058 7.526c.23-.096.48-.134.727-.118V6.109h.936v11.085zm.058 4.017c.111 5.234.448 11.777 2.135 16.195.169.461.448.98.675 1.438-1.079.317-2.193.49-3.315.519a12.2 12.2 0 01-3.315-.519c.28-.581.507-1.094.733-1.605 1.57-4.368 2.024-10.857 2.077-16.027h1.012-.002z" fill="#fff"/></svg><svg fill="none" viewBox="0 0 48 49" id="logo-8" xmlns="http://www.w3.org/2000/svg"><g clip-path="url(#axclip0)"><path fill="#C20018" d="M0 .5h48v48H0z"/><path fill-rule="evenodd" clip-rule="evenodd" d="M26.116 18.154L19.58 24.8 16.3 21.464l3.281-3.336h-6.562l-3.2 3.336 9.817 10.009 8.394-8.62h5.03l4.65-4.698H26.117zm-5.114 13.152l.931-.946 6.48-6.56h9.297l-4.648 4.697h-2.736l-2.762 2.808h-6.562v.001z" fill="#fff"/></g><defs><clipPath id="axclip0"><rect y=".5" width="48" height="48" rx="4" fill="#fff"/></clipPath></defs></svg><svg fill="none" viewBox="0 0 64 64" id="logo-9" xmlns="http://www.w3.org/2000/svg"><path fill="#1E4679" d="M0 0h64v64H0z"/><path fill-rule="evenodd" clip-rule="evenodd" d="M29.17 22.667c.137 0 .2-.123.141-.276l-.302-.781c-.059-.151-.218-.277-.354-.277H17.496c-.136 0-.2.123-.14.277l.301.78c.06.151.218.277.355.277H29.17zM29.045 24.276c-.052-.15-.194-.276-.315-.276h-9.919c-.12 0-.177.125-.125.276l.269.781c.052.15.194.276.315.276h9.919c.12 0 .177-.122.125-.276l-.269-.78zM32.973 26.943c-.065-.15-.242-.276-.393-.276h-12.4c-.15 0-.221.122-.155.276l.338.78c.065.151.242.277.393.277h12.396c.152 0 .222-.123.157-.276l-.336-.781zM34.306 29.61c-.065-.151-.242-.277-.393-.277H21.514c-.151 0-.222.123-.156.277l.335.78c.066.151.243.277.394.277h12.399c.151 0 .222-.123.156-.276l-.336-.781zM35.64 32.553c-.066-.301-.242-.553-.394-.553H22.848c-.152 0-.222.246-.157.553l.336 1.566c.065.302.242.548.393.548h12.4c.15 0 .221-.246.155-.548l-.335-1.566z" fill="#FEFEFE"/><path fill-rule="evenodd" clip-rule="evenodd" d="M46.667 34.667a2.668 2.668 0 10-.002-5.331 2.668 2.668 0 00.002 5.33z" fill="#EE3142"/><path fill-rule="evenodd" clip-rule="evenodd" d="M33.074 18.667c.143 0 .26-.137.26-.305v-.724c0-.168-.117-.305-.26-.305H14.926c-.143 0-.26.137-.26.305v.724c0 .168.117.305.26.305h18.148zM24.167 36c-.14 0-.205.09-.144.199l7.211 13.052c.06.11.207.11.267 0L38.09 37.17c.06-.11.223-.201.362-.201H49.08c.14 0 .253-.1.253-.222v-.525c0-.122-.114-.221-.253-.221H24.167zM49.094 17.333h-8.711c-.133 0-.242.12-.242.265v.627c0 .145.109.264.242.264h1.292c.321.022 2.176.032 1.469 2.4l-5.79 13.538c-.056.13.006.24.14.24h1.978c.133 0 .288-.11.346-.24l6.251-14.295c.286-.644.63-1.08 1.03-1.306.402-.223.925-.34 1.607-.34h.386c.133 0 .241-.118.241-.263v-.628c.003-.143-.106-.262-.239-.262z" fill="#FEFEFE"/></svg><svg fill="none" viewBox="0 0 12 12" id="payment" xmlns="http://www.w3.org/2000/svg"><path d="M6 3a1.97 1.97 0 00-1.967 1.967h1a.968.968 0 011.934 0c0 .299-.24.516-.608.813a4.604 4.604 0 00-.345.3c-.5.498-.514 1.027-.514 1.087V7.5h1v-.316c0-.008.016-.194.22-.397.075-.075.17-.15.268-.229.389-.316.979-.792.979-1.591A1.969 1.969 0 006 3zm-.5 5h1v1h-1V8z" fill="#38424E"/><path d="M6 1C3.243 1 1 3.243 1 6s2.243 5 5 5 5-2.243 5-5-2.243-5-5-5zm0 9c-2.205 0-4-1.794-4-4 0-2.205 1.795-4 4-4 2.206 0 4 1.795 4 4 0 2.206-1.794 4-4 4z" fill="#38424E"/></svg><svg fill="none" viewBox="0 0 16 4" id="points" xmlns="http://www.w3.org/2000/svg"><path d="M8 0C6.9 0 6 .9 6 2s.9 2 2 2 2-.9 2-2-.9-2-2-2zm6 0c-1.1 0-2 .9-2 2s.9 2 2 2 2-.9 2-2-.9-2-2-2zM2 0C.9 0 0 .9 0 2s.9 2 2 2 2-.9 2-2-.9-2-2-2z" fill="#38424E"/></svg><svg fill="none" viewBox="0 0 118 32" id="qayli-logo-1" xmlns="http://www.w3.org/2000/svg"><path d="M0 4.139a4 4 0 014-4h20.031a4 4 0 014 4V24.17a4 4 0 01-4 4H4a4 4 0 01-4-4V4.14z" fill="#5AB677"/><rect x="14.016" y="19.473" width="8.76" height="17.52" rx="2" transform="rotate(-45 14.016 19.473)" fill="#5AB677"/><path fill-rule="evenodd" clip-rule="evenodd" d="M21.024 12.206L15.4 6.908a2 2 0 00-2.74-.003l-5.652 5.301v6.962a2 2 0 002 2h10.016a2 2 0 002-2v-6.962z" fill="#fff"/><path d="M43.6 13.368l5.736-7.464h5.808l-7.176 8.568L55.816 24H49.72l-6.12-7.848V24h-4.704V5.904H43.6v7.464zm16.054 4.44c0 .4.072.776.216 1.128.144.336.336.632.576.888.256.256.552.456.888.6a2.95 2.95 0 001.128.216c.384 0 .744-.072 1.08-.216a2.49 2.49 0 00.888-.6c.256-.256.456-.552.6-.888.16-.336.24-.696.24-1.08 0-.384-.08-.744-.24-1.08a2.742 2.742 0 00-.6-.912 2.49 2.49 0 00-.888-.6 2.712 2.712 0 00-1.08-.216c-.4 0-.776.072-1.128.216a2.808 2.808 0 00-.888.6c-.24.256-.432.552-.576.888-.144.32-.216.672-.216 1.056zm5.472-6.12h4.368V24h-4.368v-1.368c-.928 1.168-2.184 1.752-3.768 1.752-.896 0-1.72-.16-2.472-.48a6.115 6.115 0 01-1.968-1.392c-.56-.592-1-1.288-1.32-2.088a7.306 7.306 0 01-.456-2.616c0-.88.152-1.712.456-2.496a6.42 6.42 0 011.272-2.088 5.85 5.85 0 011.944-1.392c.752-.352 1.584-.528 2.496-.528 1.536 0 2.808.536 3.816 1.608v-1.224zm10.708 0v6.888l5.16-6.888h4.344V24h-4.344v-6.864L75.81 24h-4.32V11.688h4.344zm7.272-6.528c-.144 3.024-1.72 4.536-4.728 4.536-3.024 0-4.608-1.512-4.752-4.536h2.784c.16 1.312.816 1.968 1.968 1.968 1.12 0 1.776-.656 1.968-1.968h2.76zm3.676 15.264c.048.016.12.024.216.024.208 0 .392-.016.552-.048a.73.73 0 00.384-.192c.096-.112.168-.272.216-.48a3.75 3.75 0 00.072-.816v-7.224h12V24h-4.344v-8.688h-3.312v4.08c0 .88-.136 1.64-.408 2.28a4.164 4.164 0 01-1.08 1.584c-.464.416-1.032.72-1.704.912a7.117 7.117 0 01-2.16.312h-.432v-4.056zm19.804-8.736v6.888l5.16-6.888h4.344V24h-4.344v-6.864L106.562 24h-4.32V11.688h4.344z" fill="#38424E"/></svg><svg fill="none" viewBox="0 0 97 33" id="qayli-logo-2" xmlns="http://www.w3.org/2000/svg"><path d="M53.267 19.913l2.848 2.92-3.937.593-1.387-1.583c-1.304.709-2.748 1.064-4.333 1.064-2.905 0-5.2-.907-6.883-2.722-1.552-1.65-2.328-3.637-2.328-5.963 0-1.154.223-2.26.669-3.315a8.302 8.302 0 011.882-2.747c1.716-1.666 3.895-2.499 6.536-2.499 1.222 0 2.41.215 3.566.644a8.29 8.29 0 012.996 1.83c1.7 1.634 2.55 3.704 2.55 6.21a8.322 8.322 0 01-.668 3.316 6.677 6.677 0 01-1.51 2.252zm-8.245-3.959l4.036-.52 1.14 1.238a4.11 4.11 0 00.767-2.425c0-.511-.124-1.047-.372-1.608a4.42 4.42 0 00-.965-1.46 4.352 4.352 0 00-1.56-.99c-.595-.247-1.172-.371-1.733-.371-1.305 0-2.394.454-3.269 1.36-.891.924-1.337 2.03-1.337 3.316 0 1.204.413 2.202 1.238 2.994.875.841 1.99 1.262 3.343 1.262.429 0 .875-.058 1.337-.173l-2.625-2.623zM65.906 12.54v-1.064h3.961v11.06h-3.962v-1.213c-.759 1.056-1.906 1.584-3.441 1.584-1.552 0-2.88-.586-3.987-1.757-1.056-1.122-1.584-2.474-1.584-4.058 0-1.814.57-3.29 1.708-4.429 1.04-1.039 2.369-1.558 3.987-1.558 1.353 0 2.46.478 3.318 1.435zm-2.427 1.93c-.66 0-1.238.239-1.733.717-.529.511-.793 1.114-.793 1.806 0 .726.256 1.328.768 1.806.528.495 1.122.743 1.783.743.676 0 1.27-.256 1.783-.767a2.428 2.428 0 00.742-1.782c0-.709-.255-1.311-.767-1.806-.512-.478-1.106-.717-1.783-.717zM72.373 28.201l3.714-7.175-5.348-9.55h4.606l2.946 5.666 2.872-5.666h4.532L76.805 28.2h-4.432zM86.55 4.498h3.96v18.038h-3.96V4.498zM92.704 11.476h3.961v11.06h-3.961v-11.06zm.396-3.019a2.205 2.205 0 01-.644-1.583c0-.61.215-1.13.644-1.56.446-.444.974-.667 1.585-.667.61 0 1.13.223 1.56.668.445.429.668.948.668 1.559 0 .61-.223 1.138-.669 1.583-.429.429-.949.643-1.56.643-.61 0-1.138-.214-1.584-.643z" fill="#F7F8FC"/><path d="M0 4.002a4 4 0 014-4h20.298a4 4 0 014 4V24.28a4 4 0 01-4 4H4a4 4 0 01-4-4V4.002z" fill="#5AB677"/><rect width="8.84" height="17.68" rx="2" transform="rotate(-44.979 30.632 -7.336)" fill="#3BC875"/><path fill-rule="evenodd" clip-rule="evenodd" d="M21.223 12.175l-5.69-5.357a2 2 0 00-2.74-.003l-5.718 5.36v7.04a2 2 0 002 2h10.149a2 2 0 002-2v-7.04z" fill="#fff"/></svg><svg fill="none" viewBox="0 0 12 12" id="transition-ad" xmlns="http://www.w3.org/2000/svg"><path d="M6.5 1.5l1.646 1.647-3.5 3.5.707.707 3.5-3.5L10.5 5.5v-4h-4z" fill="#fff"/><path d="M9.5 9.5h-7v-7H6l-1-1H2.5c-.552 0-1 .448-1 1v7c0 .552.448 1 1 1h7c.552 0 1-.448 1-1V7l-1-1v3.5z" fill="#fff"/></svg><svg fill="none" viewBox="0 0 14 14" id="transport" xmlns="http://www.w3.org/2000/svg"><path d="M13.003 4.317V3A2.67 2.67 0 0010.336.333H3.669A2.67 2.67 0 001.003 3v1.332l-.051.003A.666.666 0 00.333 5v1.333C.333 6.701.631 7 1 7h.003v4c0 .49.268.915.664 1.147V13c0 .369.298.667.666.667H3A.666.666 0 003.667 13v-.667h6.666V13c0 .369.298.667.667.667h.667a.666.666 0 00.666-.667v-.85a1.33 1.33 0 00.67-1.15V7a.666.666 0 00.666-.667V5.041a.67.67 0 00-.048-.303c-.135-.325-.423-.403-.618-.421zM11.67 11H2.336V7.667h9.334V11zM6.336 3.667v2.666h-4V3.667h4zm5.333 0v2.666h-4V3.667h4zm-8-2h6.667c.49 0 .917.27 1.148.666H2.521a1.33 1.33 0 011.148-.666z" fill="#F7F8FC" fill-opacity=".54"/></svg></svg>