<?xml version="1.0" encoding="UTF-8"?>
<!DOCTYPE svg PUBLIC "-//W3C//DTD SVG 1.1//EN" "http://www.w3.org/Graphics/SVG/1.1/DTD/svg11.dtd">
<svg xmlns="http://www.w3.org/2000/svg" xml:space="preserve" width="170px" height="170px" version="1.1" style="shape-rendering:geometricPrecision; text-rendering:geometricPrecision; image-rendering:optimizeQuality; fill-rule:evenodd; clip-rule:evenodd"
viewBox="0 0 17000 17000"
 xmlns:xlink="http://www.w3.org/1999/xlink">
 <defs>
  <style type="text/css">
   <![CDATA[
    .fil0 {fill:#FEFEFE}
   ]]>
  </style>
 </defs>
 <g id="Слой_x0020_1">
  <metadata id="CorelCorpID_0Corel-Layer"/>
  <path class="fil0" d="M1915 10306l-572 -16 -541 -16c-13,-2 -27,-3 -41,-3 -194,0 -351,158 -351,352l0 2375 1 0c0,170 124,320 297,346l535 84c145,22 320,47 538,79l0 0c10,1 19,2 29,2 125,8 239,-51 307,-146 71,77 157,140 256,188 103,50 217,82 342,98 130,15 249,10 357,-17 36,-9 69,-20 101,-34 -70,65 -114,157 -114,260 1,348 -1,135 -1,619l1 0c0,206 0,411 1,616 0,264 5,521 10,778 2,150 5,299 7,443 -8,184 128,345 314,365l173 19 207 22 0 0c13,1 27,2 40,2 55,-1 107,-14 153,-37 51,41 113,68 183,75l288 29 96 10 0 -1c12,1 25,2 38,2 58,-1 112,-15 160,-40 52,41 116,68 188,74 560,50 -536,-45 191,19l192 16 0 -1c16,2 32,2 49,1 40,-2 78,-11 114,-26 46,29 100,47 158,52l68 5c88,6 177,13 316,23l0 -1c9,0 18,1 27,1 117,-1 220,-60 283,-148 69,62 150,112 241,148 103,41 218,65 346,71 128,7 244,-6 348,-39 117,-36 218,-97 301,-180 133,77 277,219 425,220 230,1 588,7 812,4 176,-2 205,-128 368,-224 53,137 189,231 344,224l89 -4c105,-6 211,-11 294,-15l0 -1c70,-3 134,-27 187,-65 57,31 124,47 194,43l191 -13 193 -15 0 0c65,-5 125,-28 176,-64 55,28 119,41 185,36l192 -17c432,-37 -236,20 186,-17 72,-5 138,-32 191,-74 58,31 125,45 195,39l350 -33c76,0 147,-26 204,-68 56,26 118,38 183,32l189 -18 162 -15c64,0 125,-18 177,-49 47,18 99,25 153,21l189 -17 192 -16 0 0c172,-14 311,-153 322,-330l27 -443c4,-53 10,-151 17,-249l13 -194c13,-192 -14,-364 -78,-514 -37,-84 -84,-158 -141,-224l24 -123 14 -70c144,-44 248,-178 248,-336l0 -329 -1 0c0,-11 0,-23 -2,-34 -6,-67 -31,-128 -70,-178l63 -8c73,-6 140,-35 193,-80 59,29 127,42 197,33l369 -46c70,-6 135,-33 186,-75 57,25 121,35 187,27l353 -46c82,-4 156,-35 214,-84 60,28 128,40 198,30l189 -25 162 -21c186,-9 335,-163 335,-352l0 -2375 -2 0 0 -8c-2,-88 -36,-167 -91,-228l5 -13c35,-89 52,-183 52,-281l0 -49c0,-194 -158,-351 -352,-351l-356 0c-61,0 -119,15 -169,43 -50,-28 -107,-43 -168,-43l-358 0c-194,0 -352,157 -352,351l0 51c0,80 11,157 32,230 -33,-10 -69,-15 -106,-14 -127,3 -239,6 -349,9l-22 -1c-73,0 -142,22 -198,61 -55,-33 -119,-52 -188,-51l-355 8 -22 0c-52,0 -101,11 -145,31 -41,-16 -87,-25 -134,-24l-248 5 -230 5c-62,-2 -121,13 -173,41 -47,-23 -100,-35 -156,-34l-322 6 0 0c238,-162 228,-265 217,-394 0,-4 -1,-8 -1,-13 185,-153 322,-196 469,-241 121,-37 246,-76 405,-163 162,-89 289,-267 376,-468 98,-226 152,-491 150,-680l0 -16c-49,-419 -97,-839 -146,-1259l-4 -15c-157,-712 -342,-1016 -508,-1288 -119,-195 -226,-371 -297,-701l-1 -2c-86,-390 -232,-665 -421,-860 -193,-200 -425,-313 -678,-375 -189,-47 -380,-62 -580,-78 -227,-18 -468,-38 -710,-107l-11 -2c-56,-13 -146,-25 -244,-38 -37,-6 -75,-11 -112,-16l51 -70 -143 -120c-13,-12 -73,-95 -125,-168 -20,-29 -40,-56 -58,-81 -2,-12 -3,-25 -2,-41 0,-8 1,-17 2,-26 43,-26 83,-57 106,-115 25,-63 29,-103 34,-144 2,-16 4,-33 12,-53 33,-85 64,-170 81,-263 18,-104 17,-212 -20,-327l1 0c-33,-103 9,-276 53,-459 78,-319 161,-662 -25,-978 -49,-84 -149,-180 -260,-268 -127,-100 -280,-198 -378,-247 -671,-337 -897,-310 -1273,-264 -132,16 -285,34 -479,36 -47,0 -89,0 -125,-1 -204,-3 -293,-4 -508,117 -47,27 -105,53 -163,80 -98,45 -194,89 -278,152 -207,153 -229,285 -262,483 -6,36 -12,74 -21,116 -52,247 -28,350 3,483 10,46 22,96 29,163 3,24 1,56 0,89 -4,77 -8,157 20,252 22,78 48,114 70,143l-2 -1c-6,-6 -15,-13 -17,-3 -104,542 12,718 129,895 26,38 51,76 70,123 -32,28 -59,58 -83,92 -48,68 -76,142 -105,255l-36 139 92 60c-22,101 -21,197 -19,292l0 13c-182,92 -444,139 -700,184 -141,25 -281,50 -424,87 -39,10 -107,26 -165,39 -174,41 -246,58 -482,180 -281,145 -311,190 -380,294 -21,31 -47,70 -105,133 -545,593 -585,894 -669,1529 -13,96 -27,202 -51,362 -16,104 -31,167 -43,221 -28,123 -48,208 -46,453 -127,156 -423,592 -200,1348 38,130 79,238 121,349 26,70 52,140 86,243 17,52 38,107 63,163 23,55 49,106 75,154 25,43 59,72 96,98 3,35 17,73 51,119 75,97 155,177 249,245 80,59 168,109 270,153l-37 -1 -518 -10c-12,-1 -25,-2 -38,-2 -114,0 -215,54 -279,139 -58,-42 -120,-77 -189,-104 -113,-45 -239,-69 -379,-72 -138,-3 -262,14 -375,51 -71,24 -137,56 -197,95 -61,-88 -163,-146 -278,-149zm9802 150l0 0 0 1 0 0 0 0 0 1 0 0 1 0 0 1 0 0 0 0 0 1 0 0 0 1 0 0 0 0 0 1 0 0 0 0 0 1 0 0 0 0 0 1 1 0 0 0 0 1 0 0 0 0 0 0 0 1 0 0 0 1 0 0 0 0 0 0 0 1 0 0 0 0 0 1 0 0 0 0 0 1 0 0 0 1 1 0 0 0 0 1 0 0 0 0 0 1 0 0 0 0 0 1 0 0 0 0 0 1 0 0 0 1 0 0 0 0 0 1 0 0 0 1 0 0 1 0 0 1 0 0 0 1 0 0 0 0 0 1 0 0 0 0 0 1 0 1 0 0 0 0 0 1 0 0 0 1 0 0 0 1 0 0 1 1 0 0 0 0 0 1 0 1 0 0 0 1 0 0 0 0 0 1 0 1 -946 -2 -178 -1 -1571 -3 -183 -1 -476 -1 -7 0c0,0 0,0 -1,0l0 0c0,0 0,1 0,1l0 0 -1 0 0 0 0 1 0 1 0 0 0 1 0 0 0 1 -1 0 0 1 0 1 0 0 0 2 0 0 0 1 1 1 0 0 0 2 0 1 0 2 0 1 0 1 0 2 0 1 1 2 0 1 0 2 0 2 0 1 1 2 0 2 0 2 0 2 0 2 1 2 0 1 0 3 1 4 0 0 0 2 0 3 0 1 1 3 0 1 0 4 0 1 0 3 1 1 0 4 0 4 0 1 0 1 0 4 0 1 0 4 1 6 0 0 0 5 0 5 0 0 -1 5 0 0 0 5 0 1 0 0c0,4 0,7 0,10l-1 1 0 5 0 0 -1 5 0 1 -1 4 0 2 -1 4 0 1 -1 4 0 2 -1 3 0 2 -1 4 -1 1 -1 4 0 2 -2 3 0 2 -2 3 0 2 -2 3 -1 2 -1 3 -1 2 -2 3 -1 2 -1 3 -2 2 -1 3 -2 2 -1 2 -2 2 -2 3 -1 2 -3 2 -1 2 -2 3 -2 1 -3 3 -1 2c-1,1 -2,1 -3,2l-2 2c-1,0 -2,1 -3,2l-2 2c-1,1 -3,2 -4,3l-1 0c-1,1 -2,2 -4,3l-1 1 0 0c-2,1 -4,2 -6,3l0 0c-2,1 -4,2 -6,3l0 0c-2,1 -4,2 -6,3l0 0 0 0 0 0 0 0 -1 1 0 0c-2,0 -3,1 -5,2l0 0 -1 0 0 0 0 0 0 0 0 0 0 1 -1 0c-2,0 -4,1 -6,2 -30,10 -57,19 -83,27 -30,8 -57,15 -83,20l0 1 0 0 -1 0 0 0 0 0 -1 0 0 0 0 0 0 0 -1 0 0 0 0 0 -1 0 0 0 -1 0 0 1 0 0 -1 0 -1 0 0 0 0 0 -1 0 -2 0 0 0 0 1 0 0 -1 0 0 0 0 0 -1 0 0 0 0 0 -1 0 0 0 -1 0 -1 0 -1 1 0 0 -1 0 0 0 0 0 -1 0 0 0 0 0 0 0 -1 0 0 0 0 0 -1 0 0 0 0 0 -6 1 0 0 -7 1 -1 1 -5 0 -1 0 -4 1 -2 0 -5 1 -1 0 -5 1 -6 1 -1 0 -5 0 -1 0 -4 1 -1 0 -4 0 -1 0 -3 1 -4 0 -6 0 0 0 -6 1 -2 0 -4 0 -3 0 -3 0 -4 0 -2 1 -6 0 0 0 -6 0 -1 0 -5 0 -3 0 -3 0 -4 0 -1 0 -6 0 -1 0 -6 0 -1 0 -5 0 -2 0 -4 0 -4 0 -2 -1 -5 0 -1 0 -6 0 -1 0 -5 0 -3 -1 -3 0 -4 0 -3 0 -5 0 -1 -1 -6 0 -1 0 -6 0 -2 -1 -4 0 -4 0 -3 0 -5 -1 -2 0 -6 -1 -1 0 -6 0 -2 -1 -5 0 -4 0 -3 -1 -5 0 -2 0 -7 -1 0 0 -7 -1 -2 0 -6 -1 -3 0 -4 0 -5 -1 -3 0 -7 -1 0 0 -8 -1 -1 0 -7 -1 -3 0 -5 0 -5 -1 -3 0 -7 -1 -1 0 -8 -1 -1 0 -8 -1 -2 0 -6 -1 -5 0 -4 -1 -7 -1 -2 0 -8 -1 -1 0 -9 -1 -2 0 -7 -1 -5 0 -4 -1 -7 0 -3 -1 -9 -1 -1 0 -1 0 -1 0 0 0 -1 0 -1 0 -1 0 -1 0 0 -1 -1 0 -1 0 -1 0 -1 0 0 0 -1 0 -1 0 -1 -1 0 0 -1 0 -1 0 -1 0 -1 0 0 0 -1 0 -1 0 -1 -1 0 0 -1 0 -1 0 -1 0 0 0 -1 0 0 0 -1 0 -1 -1 -1 0 0 0 -1 0 -1 0 -1 0 -1 0 0 0 -1 0 -1 -1 -1 0 -1 0 0 0 -1 0 -1 0 -1 0 0 0 -1 -1 -1 0 -1 0 -1 0 0 0 -1 0 -1 0 -1 0 -1 0 0 -1 -1 0 0 0 -1 0 -1 0 -1 0 -112 -17 -5 0 -3 -1 -3 0 -6 -1 -6 -1 -6 -1 -5 -1 -1 0 -5 -1 -6 0 -6 -1 -6 -1 -1 0 -5 -1 -6 -1 -6 -1 -6 -1 -3 0 -3 -1 -6 0 -5 -1 -6 -1 -6 -1 0 0 -6 -1 -6 -1 -6 -1 -6 -1 -3 0 -3 -1 -6 0 -7 -1 -6 -1 -4 -1 -2 0 -6 -1 -6 -1 -6 -1 -6 -1 0 0 -6 -1 -6 -1 -6 -1 -6 -1 -3 0 -3 0 -7 -1 -6 -1 -6 -1 -5 -1 -1 0 -6 -1 -6 -1 -6 -1 -7 -1 -1 0 -5 -1 -6 -1 -6 -1 -6 -1 -4 0 -3 -1 -6 -1 -6 -1 -6 -1 -6 -1 0 0 -7 -1 -6 -1 -6 -1 -6 -1 -2 0 -4 0 -7 -2 -6 0 -6 -2 -4 0 -2 0 -7 -1 0 -1 0 0 0 0 0 0 0 0 -1 0 0 0 0 0 0 0 0 0 0 0 0 0 -1 0 0 0 0 0 0 0 0 0 0 0 0 0 -1 0 0 0 0 0 0 0 0 0 0 0 0 0 -1 0 0 0 0 0 0 0 0 0 0 0 0 0 -1 0 0 0 0 0 0 0 0 0 0 0 0 0 0 0 -1 0 0 -1 0 0 0 0 0 0 0 0 -1 0 0 0 0 0 0 0 0 0 0 0 0 0 0 0 -1 0 0 0 0 0 0 0 0 0 0 0 0 0 -1 0 0 0 -10 -2 -2 0 -13 -2 -12 -2 -1 0 -12 -2 -13 -2 -1 0 -12 -2 -12 -3 -4 0 -9 -2 -13 -2 -5 -1 -7 -1 -13 -2 -8 -1 -5 -1 -13 -2 -9 -2 -3 -1 -13 -2 -11 -2 -2 0 -12 -2 -13 -3 -1 0 -24 -4 -3 -1 -10 -1 -12 -3 -5 -1 -8 -1 -12 -2 -8 -2 -5 -1 -21 -4 -1 0 -3 -1 -23 -4 0 0 -2 0 -12 -3 -13 -2 0 0 -3 -1 -20 -4 -1 0 -3 -1 -3 0 -19 -4 -5 -1 -1 0 -19 -4 -6 -2 -6 -1 -12 -3 -8 -1 -4 -1 -18 -4 -4 -1 -2 0 -4 -1 -20 -5 0 0 -24 -5 -2 -1 -2 0 -20 -4 -4 -1 -1 -1 -18 -4 -6 -1 -6 -2 -17 -4 -2 -1 -4 -1 -20 -5 -1 0 -2 0 -20 -6 -2 0 0 0 -3 -1 -20 -5 -2 0 0 0 -23 -7 -1 0 -22 -6 -3 -1 -20 -5 -1 -1 -1 0 0 0 -1 0 -1 -1 -1 0 -18 -5 -1 0 -1 -1 0 0 -1 0 -1 0 -1 -1 -17 -5 -1 0 -1 0 -1 -1 0 0 -1 0c-75,-23 -144,-47 -205,-74 -52,-22 -105,-35 -158,-43l-1 0 -4 -1 0 0 -5 -1 -2 0 -3 0 -5 -1 0 0 -7 -1 -3 0 -5 -1 0 0 -5 -1 -2 0 -3 0 -5 -1 0 0 -5 0 -2 0 -3 -1 -5 0 0 0 -5 -1 -2 0 -3 0 -4 0 -1 0 -5 -1 -2 0 -3 0 -4 -1 -1 0 -4 0 -3 0 -2 0 -5 -1 0 0 -5 0 -2 0 -3 0 -5 0 0 0 -5 -1 -2 0 -3 0 -4 0 -1 0 -5 0 -2 0 -2 -1 -5 0 0 0 -5 0 -2 0 -3 0 -5 0 0 0 -5 -1 -2 0 -2 0 -5 0 0 0 -5 0 -2 0 -3 0 -4 0 0 0 -5 -1 -3 0 -2 0 -5 0 0 0 -4 0 -3 0 -2 0 -5 0 0 0 -5 -1 -2 0 -2 0 -5 0 0 0 -5 0 -2 0 -2 0 -5 0 0 0 -5 -1 -2 0 -2 0 -5 0 0 0 -4 0 -3 0 -2 0 -4 -1 0 0 -5 0 -2 0 -3 0 -4 0 0 0 -4 -1 -3 0 -6 0 -2 0 -2 -1 -1 0 -1 0 -2 0 -2 0 -1 0 -2 0 -1 0 -2 0 0 0 -1 0 -2 -1 -1 0 -2 0 -1 0 -2 0 -1 0 -2 0 -2 0 -1 0 0 0 -2 -1 -1 0 -2 0 -1 0 -2 0 -1 0 -2 0 -1 0 -2 0 -1 0 -1 0 -1 -1 -1 0 -2 0 -2 0 -1 0 -2 0 -1 0 -2 0 -1 0 -2 0 0 -1 -1 0 -2 0 -1 0 -2 0 -3 0 -1 0 -2 0 -1 0 -2 0 -1 0 0 0 -2 -1 -2 0 -1 0 -2 0 -1 0 -2 0 -1 0 -2 0 -1 0 -1 0 -1 0 -1 -1 -2 0 -1 0 0 0c-295,-18 -573,-27 -840,-86 -117,-27 -221,-56 -304,-90 -210,-85 -353,-188 -479,-353 -22,-29 10,-67 -10,-99 -15,-23 -107,-69 -120,-93 -50,-89 -91,-183 -123,-282 -71,-214 -141,-366 -205,-585 -241,-818 199,-1195 208,-1221 -8,-415 36,-388 86,-715 132,-863 73,-1137 670,-1785 204,-222 78,-203 429,-385 276,-142 304,-126 605,-203 412,-106 961,-130 1273,-351 9,-174 -30,-344 76,-527 -9,-9 -58,-3 -118,-42 45,-175 82,-220 220,-319 -52,-397 -368,-327 -228,-1057 31,-165 -21,-114 -56,-233 -30,-104 -1,-209 -12,-307 -27,-243 -98,-283 -35,-583 47,-224 28,-348 205,-479 114,-85 280,-139 420,-219 206,-115 268,-88 537,-90 743,-6 800,-225 1660,207 156,78 476,302 555,437 254,431 -161,1035 -47,1396 51,160 2,307 -57,456 -34,87 -15,119 -46,198 -4,11 -90,52 -94,63 -37,100 -34,213 -8,282 60,77 186,268 238,312 -21,28 -70,50 -72,54 -6,13 -1,102 2,128 93,42 477,76 603,105 471,134 912,91 1296,186 438,108 796,383 952,1084 174,808 533,758 806,1991 48,415 97,831 145,1247 2,300 -157,827 -421,971 -367,200 -566,123 -953,465 -93,183 116,203 -256,419 -111,64 -188,26 -272,117 12,43 17,62 19,75zm-3314 277c0,0 39,1 44,1 139,10 250,54 335,133 16,14 31,30 45,47 100,122 147,287 142,496 -7,279 -16,557 -23,835 -8,277 -13,555 -24,833 -6,187 -58,335 -145,443 -87,108 -217,163 -392,162 -176,-1 -308,-56 -397,-165 -90,-109 -138,-257 -143,-444 -7,-278 -15,-555 -23,-833 -8,-277 -16,-555 -23,-833 -4,-151 20,-278 69,-383 22,-44 81,-139 124,-166 49,7 337,-25 411,-126zm-815 82l0 210 0 545 -383 -5 0 -429 -322 -4 0 1247 0 1248c-129,-6 -256,-12 -383,-18l0 -1433 0 -1433c0,0 0,0 1,0 248,2 445,4 694,5l393 67zm3203 -1590l79 -93c0,0 81,41 92,93 -54,-2 -171,0 -171,0zm-1398 -7731c14,-38 33,-71 76,-84 0,0 74,60 77,60 3,0 0,54 -17,66 -18,12 -136,-42 -136,-42zm-221 -36c0,0 23,-90 41,-101 18,-11 129,12 141,22 -1,-1 -60,84 -52,91 -43,-4 -87,-8 -130,-12zm2227 6919c-28,-144 -7,-39 -79,-148 -2,4 -71,2 -20,91 51,90 8,27 99,57zm-4532 1641c105,-66 125,-25 55,-156 -97,55 -89,4 -55,156zm161 -711c210,-184 -12,-232 -15,-233 -73,264 -4,204 15,233zm251 -6963c12,2 12,21 28,22 59,5 154,-9 195,-2 32,6 -48,60 -27,70 63,29 284,34 336,-17 0,-11 -54,-62 -57,-70 242,-33 181,-19 177,-74 -148,-79 -533,-24 -652,71zm3938 6489c-107,-98 -48,-151 -145,-243 -6,237 69,364 262,433 -32,218 -92,156 -9,384 86,-119 27,-92 58,-228 23,-99 38,-74 68,-167 -90,-121 -134,-88 -234,-179zm-2616 -6560c-2,24 3,25 24,34 11,5 198,9 172,38 -21,23 -59,36 -78,55 21,49 284,48 305,38 22,-17 -34,-69 -13,-87 15,-6 173,21 209,18 -72,-150 -466,-166 -619,-96zm-1477 -283c135,206 234,2 750,32 -32,-271 -635,-91 -750,-32zm-554 5647c339,196 2350,-38 2977,-61 97,-3 224,18 265,-42 101,-150 5,-103 4,-108 -195,-48 -2006,105 -2390,167 -270,44 -580,19 -856,44zm1735 2498c150,-9 288,67 389,150 -128,3 -256,5 -383,8 3,-47 -8,-110 -6,-158zm3503 -7c-121,-346 173,-359 305,-209 10,155 -136,258 -305,209zm-3488 -249c92,-3 1040,210 1240,424 -159,11 -462,-4 -651,-15 -46,-3 -108,-70 -138,-87 -390,-222 -444,-153 -456,-222 -4,-18 10,-60 5,-100zm34 -118c-26,-177 26,-326 50,-329 46,-6 177,1 330,0 125,560 1027,425 1342,858 -133,12 -276,4 -328,5 -113,-49 -109,-142 -496,-279 -226,-80 -738,-143 -898,-255zm470 -332c227,-12 520,-9 639,1 59,5 286,234 619,416 146,79 321,172 649,240 426,89 692,-14 813,60 -11,54 12,147 -3,151 -59,14 -241,7 -611,8 -238,0 -480,-15 -719,-18 -133,-178 -385,-328 -678,-404 -311,-81 -680,-166 -709,-454zm2982 127c-36,-84 -35,-169 10,-253 178,-131 310,-97 343,46 15,64 12,141 -11,176 -58,95 -222,73 -342,31zm-1686 -120c174,-6 399,-1 574,-4 114,-2 215,-6 269,19 51,23 97,68 106,159 -117,40 -297,71 -452,59 -214,-17 -423,-103 -497,-233zm-454 5c88,2 240,1 328,3 132,146 216,219 464,285 318,85 447,-46 700,-37 74,78 65,96 160,154 37,23 61,28 94,50 140,88 89,54 142,140 -360,28 -775,-40 -1115,-118 -144,-33 -262,-115 -375,-181 -63,-38 -131,-73 -178,-106 -105,-72 -178,-102 -220,-190zm1011 -215c-114,1 -258,-5 -372,-5 -6,-190 -14,-420 -70,-586 184,30 211,83 305,236 72,119 164,130 281,210 -46,45 -97,99 -144,145zm-3069 -768c109,112 221,298 298,445 -285,-46 -323,-135 -298,-445zm4266 118c129,16 208,31 234,123 29,99 32,161 -50,208 -59,35 -129,45 -169,53 -239,52 -269,-259 -90,-352 124,78 100,85 158,226 7,-14 80,-36 -35,-177 -34,-54 -13,-15 -48,-81zm-3665 -3c48,-35 126,-76 175,-111 65,56 517,683 550,760 -84,0 -213,0 -297,0 -137,-204 -291,-445 -428,-649zm1929 -177c150,31 401,85 552,116 108,143 120,235 140,441 -221,-37 -170,-114 -283,-268 -54,-72 -70,-86 -163,-112 -248,-69 -162,12 -246,-177zm-3172 229c488,65 352,132 623,287 195,102 349,124 584,305 29,94 26,207 -37,258 -279,6 -446,-180 -731,-200 114,125 400,145 510,265 12,3 -20,74 -9,78 67,23 192,-21 261,-1 15,129 5,235 -33,270 -134,128 -554,-237 -816,-24 97,44 483,23 658,151 34,181 21,280 -38,309 -93,45 -288,-51 -502,-42 52,42 2,28 89,55 298,95 640,65 645,318 -293,109 -1476,-170 -1910,-279 -235,-59 -37,-103 -844,-157 -268,-17 -1003,-189 -1195,-372 -58,-63 -148,-133 -207,-196 -69,-353 72,-538 237,-755 117,-155 312,-345 569,-426 714,-222 1335,115 1372,401 -29,221 -98,442 -11,664 111,-42 85,-46 93,-200 5,-97 1,-214 31,-305 59,-178 212,-170 305,-369 92,-198 143,-186 372,-262 193,-65 314,-197 468,-202 -11,115 -21,230 -32,345 -183,28 -115,-28 -283,-64 -57,49 -113,99 -169,148zm3597 -523c853,203 553,-84 934,-83 30,141 60,282 89,424 133,64 40,25 85,73 -180,355 -138,286 48,603 -7,159 -64,210 -44,390 19,182 93,152 40,337 -382,-33 -679,-614 -697,-710 -68,-377 -95,-706 -455,-1034zm-617 -49c23,4 63,-47 90,-40 217,55 522,175 638,416 -24,0 -114,-20 -136,-21 -240,-9 -377,-96 -454,-140 -69,-40 -99,-156 -138,-215zm-2487 -103c20,0 139,-50 152,-36 55,59 225,349 392,593 145,211 359,459 472,713 -53,-8 -139,21 -173,-6 -147,-116 -302,-456 -384,-595 -145,-225 -314,-443 -459,-669zm2743 -121c181,-91 185,-29 364,251 -80,12 -192,-72 -247,-97 -209,-96 -205,-122 -117,-154zm1581 -4c214,-37 291,41 323,194 -60,172 -341,235 -416,12 -39,-117 -4,-151 28,-160 218,52 90,99 233,205 -15,-185 -73,-159 -168,-251zm489 1725c15,-251 -27,-314 -137,-497 33,-120 82,-214 83,-287 0,-221 -166,-264 -345,-313 -14,-4 1,-36 -12,-44 51,-68 349,-265 370,-390 -32,-241 -164,-280 -422,-307 -321,-33 -422,122 -592,59 8,-289 472,-388 744,-425 245,-33 289,-34 528,-19 117,8 156,7 262,44 152,53 70,-30 235,-23 87,220 -29,165 160,334 109,98 184,228 108,384 -170,-115 -273,-408 -958,-384 86,49 189,45 319,106 338,160 560,362 582,797 17,346 -42,491 -266,654 -47,34 -590,289 -659,311zm-1393 -1471c-206,-69 -197,-183 -355,-322 -108,-95 -403,-182 -504,-8 -26,46 10,104 -11,136 -14,20 -86,17 -97,33 -165,228 -103,7 102,625 101,306 119,294 116,676 -117,5 -922,-3 -987,-16 -2,-1 -406,-514 -421,-536 -196,-287 -236,-390 -301,-382 -49,6 -107,79 -277,149 -86,-104 -173,-264 -250,-359 -97,-118 -175,-205 -252,-309 -172,23 -223,73 -366,106 7,56 70,128 77,184 -534,95 -744,169 -840,151 -109,-21 -160,-92 -176,-178 -12,-70 9,-153 -39,-200 -247,-61 -24,-243 -201,-582 -51,-87 -150,-101 -192,-202 230,-16 406,-67 453,-50 27,10 8,89 41,132 64,83 114,75 232,76 145,1 379,-3 717,-13 724,-20 1571,-102 2303,-166 816,-72 658,-31 795,-444 163,-6 325,-12 487,-18 -21,498 -33,1019 -54,1517zm-4935 -271c-97,111 -140,4 -141,176 74,101 174,70 229,96 40,18 47,78 48,173 -90,37 -186,-2 -309,31 -236,64 -416,-61 -910,86 -229,69 -464,223 -622,372 -93,88 -161,214 -287,288 -52,-67 67,-162 52,-186 -9,-13 -17,-27 -26,-40 -90,80 -122,159 -184,257 -27,-19 -30,3 -91,-117 -207,-427 446,-874 782,-945 168,-48 411,-80 548,-86 -351,-117 -842,69 -1141,233 -177,97 -156,160 -269,219 -441,-262 633,-920 709,-1020 -146,-63 -95,31 -283,112 -65,5 -127,1 -173,-73 -91,-547 5,-1515 271,-1891 62,-88 173,-223 238,-295 46,-53 69,-61 123,-125 44,-51 71,-107 126,-158 135,-124 564,-312 784,-293 28,173 17,714 12,914 -11,352 102,743 102,1279 0,202 -82,255 54,341 201,128 379,217 358,652zm175 -1863c41,273 94,580 135,853 -124,24 -308,32 -432,56 -81,-243 -122,-547 -104,-827 119,-27 282,-56 401,-82zm4351 -401c117,-6 259,-14 377,-20 96,195 131,561 102,822 -168,6 -336,11 -504,17 8,-273 16,-546 25,-819zm-4846 -985c200,-48 268,-108 470,-108 -3,445 -6,889 -9,1334 -140,38 -286,96 -427,78 -102,-137 -49,-1073 -34,-1304zm3036 649c411,24 910,-325 1122,-741 40,-95 62,-154 92,-219 35,-77 33,-150 63,-221 100,1 170,-24 197,5 1,1 94,481 103,531 65,345 63,2165 -134,2241 -127,18 -254,37 -380,55 -687,58 -2568,231 -3014,192 -384,-857 -384,-1675 -370,-2650 136,-36 272,-73 407,-109 114,247 425,539 605,709 78,74 276,194 400,235 259,85 114,119 293,292 73,-33 171,-76 215,-153 85,51 179,59 283,79 52,-72 94,-152 118,-246zm3912 673c99,266 325,477 341,622 -91,-13 -183,-26 -274,-39 63,181 439,166 555,777 -201,-15 -252,-175 -420,34 -223,-39 -508,-135 -744,-142 -255,-7 -638,95 -803,56 -36,-211 70,-156 32,-386 -21,-124 -65,-132 -83,-210 -10,-41 -1,-133 -3,-204 -11,-367 -88,-505 -130,-826 -40,-307 -41,-585 -65,-886 -16,-217 -28,-427 92,-507 63,-42 188,-22 314,-6 667,85 771,423 933,1011 122,441 105,307 255,706zm-4185 -1960c60,-16 110,-30 182,-60 175,343 95,764 1,1085 -45,152 -53,331 -71,392 -269,-25 -249,-385 -228,-689 10,-136 42,-209 73,-350 25,-117 15,-250 43,-378zm2439 1459c-115,11 -253,18 -368,28 4,-855 -2,-649 -148,-1384 168,-38 350,21 511,75 28,267 -16,379 -26,620 -9,214 45,433 31,661zm-2872 -202c-24,-57 -44,-122 -58,-196 -24,-130 -18,-311 3,-446 45,-295 149,-551 242,-592 19,-9 112,-4 172,-5 10,284 -106,486 -127,741 -24,319 131,577 -129,702 -35,-53 -69,-151 -103,-204zm-177 -75c-103,-105 -325,-842 37,-1273 37,19 97,74 215,108 -310,623 -206,810 -208,986 -1,56 1,110 -44,179zm1383 -1373c196,258 299,861 -37,1046 24,-844 -232,-646 -221,-1047 80,-19 177,-12 258,1zm246 702c29,-245 -24,-476 -106,-626 101,2 206,26 249,83 34,44 18,111 11,187 -19,205 -54,299 -154,356zm-479 -378c156,259 240,936 -164,979 -145,-315 126,-751 -133,-1204 45,-25 134,-60 179,-84 30,126 60,215 118,309zm-1577 489c9,-421 -20,-583 185,-859 111,32 115,27 189,104 -202,382 -255,780 -91,1241 -159,-23 -256,-184 -286,-266 1,-74 2,-147 3,-220zm1259 -887c-82,72 -112,130 -366,142 -183,8 -426,-49 -472,-147 268,7 570,-2 838,5zm-1332 -48c64,-10 154,41 156,42 -32,67 -110,202 -132,304 -8,41 -17,96 -30,190 -28,204 -12,366 -14,576 -144,-136 -215,-196 -235,-266 -16,-57 4,-388 20,-452 12,-52 145,-380 235,-394zm-354 667c-154,-83 -126,-267 -115,-489 11,-211 175,-184 341,-191 -128,259 -179,309 -226,680zm866 -767c224,-202 203,-245 216,-339 26,10 101,25 173,25 1,105 11,234 -167,293 -52,17 -122,32 -222,21zm669 -351c71,242 75,201 228,358 -190,1 -344,-52 -405,-121 -29,-39 -47,-140 -23,-197 43,-8 133,-30 200,-40zm-1575 318c23,-196 55,-217 228,-255 32,148 -40,183 -101,245 -19,18 -97,3 -127,10zm2308 -307c16,143 4,160 89,257 19,19 64,41 83,60 -236,-26 -473,-141 -415,-399 77,-7 166,32 243,82zm-2092 302c118,-116 78,-241 98,-278 12,-22 52,-34 128,-45 9,7 63,-29 22,144 -14,59 -44,115 -92,138 -35,16 -126,33 -156,41zm2589 44c-157,3 -202,-22 -282,-87 -98,-80 -137,-108 -147,-250 259,66 313,198 429,337zm-846 -459c-14,299 61,291 215,440 -194,71 -528,-109 -504,-439 87,13 194,9 289,-1zm-1195 15c4,48 26,87 16,130 -36,158 -179,278 -316,280 -4,-151 69,-90 69,-309 0,-39 -13,-68 1,-82 30,-30 116,-19 230,-19zm69 -3c102,-4 176,-6 205,38 51,78 -44,263 -186,346 -55,32 -93,23 -166,35 64,-109 226,-242 147,-419zm1029 -175c-75,33 -106,24 -167,-22 1,-4 68,-75 86,-75 141,4 38,19 81,97zm871 -8c-14,-24 -72,-30 -33,-181 14,-34 38,-54 47,-90 18,-68 31,-138 58,-202 17,21 70,-8 81,9 45,69 5,171 -29,261 -36,61 -48,149 -124,203zm-2953 -331c-17,-166 -9,-202 148,-214 7,24 30,76 34,114 5,53 -13,100 -17,159 -6,106 -7,221 -28,270 -81,-74 -122,-190 -137,-329zm2796 -73c10,-100 7,-230 81,-291 37,-31 88,-44 149,-32 87,18 73,106 80,114 -107,53 -40,-30 -95,-4 -6,3 -17,16 -43,49 -61,78 -44,113 -74,135 -15,12 -49,9 -98,29zm-363 -355c172,36 135,68 230,168 281,295 64,696 -273,631 -109,-21 -174,-37 -202,-73 -28,-36 -14,-110 -94,-145 -46,-20 -126,-18 -219,-38 1,-177 0,-372 -87,-414 -19,-9 -8,-24 -17,-49 122,-19 171,-114 298,-133 81,-12 224,23 364,53zm-2384 101c1,-1 -2,-55 31,-75 40,-24 137,3 167,108 10,38 14,116 -21,142 -27,-25 -47,-114 -78,-133 -36,-23 -68,-14 -99,-42zm-27 -547c73,-34 208,-82 354,-92 263,-17 628,-55 790,-50 401,-12 864,-19 1276,1 429,10 407,85 348,474 -153,47 -428,-129 -701,-141 -94,-5 -240,20 -310,65 -18,12 65,64 37,66 -118,9 -192,77 -208,91 -6,24 0,29 108,40 -15,71 -61,70 -95,88 64,246 54,357 62,500 4,70 78,84 125,150 -90,336 -443,278 -506,76 -82,18 -159,24 -223,-7 -39,-113 -1,-126 45,-208 -99,15 -144,28 -172,103 -6,15 31,32 13,54 -28,33 -48,22 -102,51 -209,32 -406,113 -595,224 -14,-526 -89,-672 188,-765 -36,-99 -42,-158 38,-225 -242,-106 -88,-200 -200,-389 -136,100 21,117 -44,309 -91,0 -141,16 -162,-22 -11,-19 -4,-66 -14,-112 -49,-86 -89,-189 -52,-281zm452 -195c76,-109 118,-149 302,-172 -29,56 -38,103 -40,178 -103,8 -206,16 -262,-6zm1960 -155c-23,27 -20,122 -48,124 -75,5 -147,14 -262,-4 5,-71 2,-132 42,-140 66,-14 212,-20 268,20zm-393 -31c-20,50 -36,119 -56,141 -48,18 -234,1 -321,5 39,-82 38,-98 74,-140 78,-15 214,-14 303,-6zm-824 158c29,-73 37,-133 84,-149 41,-15 135,-25 247,-4 -14,57 -21,111 -49,133 -57,29 -154,26 -282,20zm-784 -110c-133,112 -313,216 -396,192 -67,-18 -93,-157 -71,-446 95,46 41,14 119,79 211,174 232,55 348,175zm450 126c6,-87 17,-129 40,-151 30,-14 162,-33 261,-12 -55,70 -51,120 -84,142 -32,22 -102,18 -217,21zm1580 -216c20,-113 571,-102 692,-73 3,121 -74,194 -172,251 -112,-26 -101,-76 -210,-99 -122,-55 -151,-19 -310,-79zm-625 -39c-5,-232 337,-339 584,-365 243,-25 217,42 370,82 136,37 215,11 257,20 42,9 92,45 96,141 -242,2 -615,-41 -797,138 -171,10 -340,-26 -510,-16zm-455 -114c43,-400 820,-630 1178,-552 62,14 125,96 179,128 140,85 166,62 229,181 -86,37 -220,-36 -283,-48 -169,-32 -296,-69 -559,31 -350,164 -299,231 -400,369 -86,-7 -172,9 -230,-9 -48,-14 -72,-59 -114,-100zm-1056 -551c-149,404 55,456 171,690 -389,2 -633,-451 -353,-605 56,-31 126,-54 182,-85zm687 304c91,-127 155,-125 280,-208 184,-122 348,-260 552,-293 136,-22 298,6 464,99 -474,58 -1187,409 -947,755 -129,6 -167,-43 -249,-110 -94,-77 -100,-84 -100,-243zm-401 28c47,-92 43,-192 137,-283 97,-95 315,-203 521,-251 143,-33 278,-20 375,-22 -182,110 -383,202 -560,326 -377,263 -55,474 -5,568 -175,-18 -308,20 -468,18 -90,-138 -310,-330 -207,-592 26,-67 28,-136 66,-176 115,-122 315,-119 559,-139 -79,95 -541,223 -418,551zm-845 1258l-1 -2 -2 -1c5,5 8,9 3,3zm654 13277c6,-222 16,-445 21,-668 2,-100 -15,-176 -44,-226 -30,-50 -81,-77 -155,-80 -74,-2 -126,20 -157,69 -31,49 -48,123 -46,221 4,223 12,445 18,668 6,223 13,445 26,668 5,82 22,142 46,178 25,38 66,58 122,60 55,3 95,-14 117,-48 23,-35 38,-93 40,-175 5,-222 6,-444 12,-667zm2509 -3138c16,325 28,651 42,975l337 -10 0 -734 0 -734c-270,5 -395,172 -379,503zm-1411 -812c4,259 12,518 18,777 6,259 11,519 20,778 4,95 20,164 44,205 24,43 65,63 120,64 58,0 96,-21 120,-62 23,-42 38,-111 41,-206 8,-259 13,-518 19,-777 6,-260 15,-519 20,-778 3,-117 -14,-205 -43,-262 -29,-57 -82,-86 -157,-86 -72,0 -125,29 -156,88 -31,58 -48,145 -46,259zm-2780 -47c4,251 12,501 19,752 6,251 11,502 20,753 3,92 21,159 45,202 24,42 63,65 120,68 56,4 94,-14 118,-54 23,-39 40,-105 43,-197 9,-252 13,-504 19,-756 6,-252 14,-505 18,-757 2,-114 -13,-200 -43,-256 -29,-56 -82,-85 -155,-87 -74,-1 -127,26 -158,82 -30,56 -48,139 -46,250zm-2848 -112c4,230 13,461 19,691 6,231 11,462 20,693 3,85 19,148 43,187 25,41 65,64 121,70 56,6 96,-9 119,-44 23,-35 39,-95 42,-180 8,-233 12,-466 19,-699 6,-232 14,-466 20,-699 2,-106 -16,-185 -45,-238 -30,-52 -81,-80 -155,-83 -74,-2 -128,22 -158,73 -30,50 -47,127 -45,229zm-1181 522c-69,10 -145,11 -230,4l0 448 0 449c110,15 219,30 329,44 13,-188 26,-378 39,-567 12,-179 -35,-305 -138,-378zm149 -855c-127,-6 -254,-12 -379,-17l0 551c105,8 196,-30 269,-116 74,-86 110,-212 110,-375l0 -43zm-762 -354c381,12 763,23 1146,34l0 235c0,360 -73,619 -218,777 134,125 204,293 202,503 0,26 -3,50 -3,76 -11,152 -20,304 -29,455l-28 456c-358,-51 -714,-105 -1070,-161l0 -1187 0 -1188zm1457 2078c-8,-244 -16,-488 -23,-731 -8,-244 -17,-487 -24,-731 -5,-186 43,-329 143,-432 100,-102 247,-152 444,-147 195,4 342,62 441,175 99,114 148,267 142,458 -7,254 -15,508 -23,761 -7,253 -12,506 -23,758 -7,170 -59,300 -145,388 -87,88 -219,121 -392,99 -176,-21 -310,-86 -399,-193 -89,-105 -136,-240 -141,-405zm1191 1157c380,44 759,83 1140,119 0,412 -1,824 0,1236 1,412 11,825 16,1236 -128,-12 -255,-25 -382,-38 -5,-356 -15,-713 -17,-1069 -2,-356 0,-713 0,-1070 -125,-12 -250,-25 -375,-39 0,357 -2,713 0,1070 2,356 13,712 17,1068 -127,-13 -254,-28 -380,-42 -5,-412 -17,-823 -18,-1236 -1,-411 0,-823 -1,-1235zm162 -1745c-13,-281 53,-484 196,-610 143,-127 330,-188 559,-180l4 -244c-239,-7 -479,-14 -718,-22l0 -359c367,7 734,14 1101,21l0 1384 0 1382c-129,-11 -256,-22 -383,-34l0 -880 0 -880c-270,-13 -396,136 -380,446 10,214 20,428 29,641 9,214 22,429 33,643l-384 -40c-11,-212 -20,-423 -30,-634l-27 -634zm1450 -759c-6,-204 41,-362 141,-475 100,-114 247,-170 445,-167 194,2 340,64 440,184 100,121 148,283 142,489 -7,273 -15,545 -23,817 -8,272 -13,544 -23,817 -7,183 -59,325 -146,425 -86,99 -216,144 -390,132 -176,-12 -309,-75 -399,-185 -90,-110 -137,-255 -142,-435 -9,-267 -17,-534 -24,-801 -6,-267 -14,-534 -21,-801zm4236 1912c-16,-326 -30,-652 -43,-979 -13,-304 52,-527 196,-673 143,-145 330,-219 559,-222l4 -258c-239,2 -478,5 -716,6l0 -295 0 -93c367,-2 733,-5 1100,-8l0 51 0 1192 0 1242c75,-3 150,-7 226,-11l-33 660 -387 10 18 -266c-265,12 -528,22 -791,30 5,85 10,170 16,255l-379 10c-14,-215 -27,-431 -39,-647 89,-1 179,-3 269,-4zm1438 -1881c-6,-205 40,-368 139,-489 47,-57 104,-100 171,-131 76,-34 165,-52 268,-53 82,-2 156,9 221,31 83,27 152,74 208,138 100,115 148,272 143,473 -2,52 -4,104 -5,156 -129,5 -255,10 -382,14l0 -101c0,-111 -16,-195 -44,-251 -27,-56 -74,-83 -141,-82 -72,2 -122,31 -151,89 -30,58 -47,143 -45,254 4,253 12,505 18,757 7,252 11,504 21,756 3,90 18,155 41,195 24,41 62,60 116,56 52,-3 89,-26 112,-70 22,-43 38,-110 42,-199 8,-190 12,-379 18,-569 127,-7 256,-14 384,-21 -8,206 -13,411 -23,616 -9,181 -59,326 -146,436 -86,110 -216,173 -387,186 -171,12 -302,-31 -391,-130 -90,-101 -137,-242 -142,-426 -9,-272 -17,-544 -24,-816 -6,-273 -14,-546 -21,-819zm1433 -667c127,-2 255,-4 384,-7l0 915c38,1 92,4 164,12 49,-312 99,-623 150,-933 164,-3 328,-7 494,-10l0 357 -191 6c-43,233 -85,466 -127,700 186,131 272,347 253,649 -11,162 -21,323 -30,484l-28 485 -384 41c10,-163 21,-327 30,-491 9,-163 22,-327 32,-490 2,-22 5,-45 5,-67 1,-130 -31,-224 -93,-283 -62,-59 -153,-88 -275,-90l0 726 0 726c-129,13 -257,25 -384,36l0 -1382 0 -1384zm1464 -29l384 -9 0 515 0 514c125,-112 252,-224 379,-335l0 -703c125,-3 252,-6 379,-9l0 1266 0 1266 -379 47 0 -707 0 -708c-127,113 -254,227 -379,342l0 560 0 559c-129,16 -257,30 -384,45l0 -1321 0 -1322zm1503 -37c127,-2 255,-6 384,-9l0 485 0 484c125,-107 252,-213 379,-318l0 -661 381 -10 0 1188 0 1187c-127,17 -254,33 -381,51l0 -665 0 -665c-127,107 -254,216 -379,325l0 527 0 527 -384 50 0 -1247 0 -1249zm57 -557l0 -51 358 0 0 36c0,118 41,177 127,176l83 -1c85,-1 127,-59 127,-175l0 -36 356 0 0 49c0,114 -36,206 -107,277 -71,72 -175,108 -311,111l-215 4c-135,3 -239,-31 -310,-103 -71,-71 -108,-167 -108,-287zm-10278 5219c-12,-260 52,-445 195,-556 143,-111 330,-159 560,-142 1,-74 2,-148 4,-222 -239,-17 -479,-34 -717,-53l0 -332c367,28 733,53 1100,76 0,415 -2,829 0,1244 0,414 9,829 13,1243 -128,-9 -256,-18 -382,-28 -3,-265 -7,-532 -11,-797 -4,-266 -3,-532 -3,-798 -271,-20 -396,112 -380,397 12,195 24,391 38,586 14,196 27,391 38,587 -128,-11 -254,-22 -382,-34 -13,-195 -25,-390 -38,-585 -14,-195 -26,-390 -35,-586zm1447 -649c-5,-182 42,-322 142,-419 99,-98 247,-143 444,-136 194,8 340,65 440,172 99,108 147,251 141,432 -7,239 -16,478 -23,717 -7,239 -9,478 -17,717 -5,160 -55,286 -141,375 -85,89 -216,130 -389,121 -175,-9 -308,-62 -398,-160 -90,-97 -138,-226 -146,-387 -11,-239 -23,-477 -30,-716 -7,-238 -16,-477 -23,-716zm1369 -513c505,8 1009,9 1514,3l0 353 0 354c-126,2 -251,5 -377,6 0,-123 -1,-248 -1,-372l-188 1c1,362 0,725 1,1086 1,362 6,724 8,1085 -127,1 -254,0 -381,0 -2,-362 -8,-724 -9,-1086 -1,-361 0,-724 0,-1085 -63,0 -126,-2 -187,-2l0 372c-127,-2 -253,-5 -380,-7l0 -354 0 -354zm1786 -4c127,-4 255,-8 383,-12l0 451 0 451c125,-5 250,-12 375,-18l0 -450 0 -450c127,-6 255,-12 383,-19l0 1239c0,413 3,826 5,1239 -128,10 -255,19 -382,27 -1,-209 -2,-418 -4,-626 -1,-209 -2,-418 -2,-627 -125,7 -250,13 -375,19 0,210 0,420 2,629 1,210 3,419 4,628 -128,7 -254,13 -382,20 -2,-417 -6,-834 -7,-1251 0,-416 0,-833 0,-1250zm1500 -67c127,-8 254,-16 382,-25l0 486 0 486c127,-109 253,-218 380,-327l0 -336 0 -336c126,-10 252,-20 378,-30l0 1225c0,408 1,816 2,1224 -126,12 -251,23 -377,35 0,-225 -1,-450 -2,-675 -1,-225 -1,-450 -1,-676 -127,110 -253,219 -380,329 0,176 1,352 2,528 1,176 1,352 2,528 -128,11 -255,23 -382,33 -1,-411 -4,-823 -4,-1234l0 -1235zm1499 -112c127,-11 255,-22 383,-34l0 409 0 408c39,-1 93,0 165,2l74 -424c25,-141 49,-282 75,-425 164,-15 329,-31 494,-48l0 329 -192 19c-21,107 -43,215 -63,321 -21,107 -42,215 -63,322 186,112 271,306 253,583 -10,149 -21,297 -30,444l-28 444 -382 32 30 -442 31 -444c1,-20 4,-39 4,-60 2,-118 -31,-201 -92,-252 -62,-51 -153,-74 -276,-70l0 648c0,216 1,431 1,647 -128,12 -255,24 -382,36 -1,-408 -2,-815 -2,-1222l0 -1223z"/>
 </g>
</svg>
