<?xml version="1.0" encoding="UTF-8" standalone="no" ?>
<!DOCTYPE svg PUBLIC "-//W3C//DTD SVG 1.1//EN" "http://www.w3.org/Graphics/SVG/1.1/DTD/svg11.dtd">
<svg xmlns="http://www.w3.org/2000/svg" xmlns:xlink="http://www.w3.org/1999/xlink" version="1.1" width="200" height="130" viewBox="100 135 200 130" xml:space="preserve">
<desc>Created with Fabric.js 3.6.2</desc>
<defs>
</defs>
<g transform="matrix(3.33 0 0 3.33 200 200)" id="Layer_11"  >
<path style="stroke: none; stroke-width: 1; stroke-dasharray: none; stroke-linecap: butt; stroke-dashoffset: 0; stroke-linejoin: miter; stroke-miterlimit: 4; fill: rgb(0,96,36); fill-rule: nonzero; opacity: 1;"  transform=" translate(-32, -32)" d="M 4 13.9 c 2.1 0 5.3 0 7.1 0 c 0.9 0 1.6 0.6 1.9 1.4 c 0.9 2.6 2.9 8.3 5.2 12.2 c 3.1 5.1 5.1 7 6.4 6.8 c 1.3 -0.3 0.9 -3.7 0.9 -6.4 s 0.3 -7.3 -1 -9.4 l -2 -2.9 c -0.5 -0.7 0 -1.6 0.8 -1.6 h 11.4 c 1.1 0 2 0.9 2 2 v 14.5 c 0 0 0.5 2.6 3.3 -0.1 c 2.8 -2.7 5.8 -7.7 8.3 -12.8 l 1 -2.4 c 0.3 -0.7 1 -1.2 1.8 -1.2 h 7.4 c 1.4 0 2.4 1.4 1.9 2.7 l -0.8 2.1 c 0 0 -2.7 5.4 -5.5 9.2 c -2.8 3.9 -3.4 4.8 -3 5.8 c 0.4 1 7.6 7.7 9.4 10.9 c 0.5 0.9 0.9 1.7 1.3 2.4 c 0.7 1.3 -0.3 3 -1.8 3 l -8.4 0 c -0.7 0 -1.4 -0.4 -1.7 -1 l -0.8 -1.3 c 0 0 -5.1 -6 -8.2 -7.9 c -3.2 -1.8 -3.1 0.8 -3.1 0.8 v 5.3 c 0 2.2 -1.8 4 -4 4 h -2 c 0 0 -11 0 -19.8 -13.1 C 5.1 26.7 2.8 20.1 2 16.3 C 1.8 15.1 2.7 13.9 4 13.9 z" stroke-linecap="round" />
</g>
</svg>