<svg xmlns="http://www.w3.org/2000/svg" version="1.1" xmlns:xlink="http://www.w3.org/1999/xlink" xmlns:svgjs="http://svgjs.com/svgjs" id="svg-pattern-349" width="100%" height="100%"><defs><pattern x="0" y="0" width="80" height="37.77777777777778" patternUnits="userSpaceOnUse" id="pattern-349-layer-1"><g id="PatternRootContent1" transform="scale(0.4444444444444444) rotate(0)"><polygon class="fill0" points="0,0 0,42.5 0,85 90,85 180,85 180,0 " fill="#ebe8ff"></polygon>
<g class="fill1" fill="#c8cce8">
	<path d="M2,7.4c2.9,0,3-1.3,3-3V0H0v7.4c0.1,0,0.2,0,0.2,0H2z"></path>
	<path d="M13.8,84.7c6.9,0,9.8-3.8,6.3-8.3c-2.3-3.1-5.6-7.5-8.6-11.4c3.4-0.6,4.5-2.8,2.5-5.5
		c-1.9-2.4-4.6-6.1-6.9-9.1c0.1,0,0.1,0,0.2,0c3.4,0,4.8-1.8,3.1-4.1c-1.7-2.2-4.4-5.9-6.1-8.1c-1.1-1.5-2.8-2-4.2-1.5v5.7V85h5
		v-0.3C8.2,84.7,11.3,84.7,13.8,84.7z"></path>
	<path d="M177.2,4.4c0,1.6,0,2.9,2.8,3V0h-2.8V4.4z"></path>
	<path d="M90.2,7.4H92c2.9,0,3-1.3,3-3V0h-7.8v4.4C87.2,6.1,87.2,7.4,90.2,7.4z"></path>
	<path d="M178.1,38.2c-1.7,2.2-4.4,5.9-6.1,8.1c-1.7,2.2-0.3,4.1,3.1,4.1c0.1,0,0.1,0,0.2,0c-2.2,3-5,6.6-6.9,9.1
		c-2,2.7-0.9,4.9,2.5,5.5c-3,3.9-6.3,8.3-8.6,11.4c-3.5,4.6-0.6,8.3,6.3,8.3c2.5,0,5.5,0,8.7,0V85h2.8V36.8
		C179.3,37,178.6,37.5,178.1,38.2z"></path>
	<path d="M104.3,84.7c6.9,0,9.8-3.8,6.3-8.3c-2.3-3.1-5.6-7.5-8.6-11.4c3.4-0.6,4.5-2.8,2.5-5.5
		c-1.9-2.4-4.6-6.1-6.9-9.1c0.1,0,0.1,0,0.2,0c3.4,0,4.8-1.8,3.1-4.1c-1.7-2.2-4.4-5.9-6.1-8.1c-1.7-2.2-4.4-2.2-6.1,0
		c-1.7,2.2-4.4,5.9-6.1,8.1c-1.7,2.2-0.3,4.1,3.1,4.1c0.1,0,0.1,0,0.2,0c-2.2,3-5,6.6-6.9,9.1c-2,2.7-0.9,4.9,2.5,5.5
		c-3,3.9-6.3,8.3-8.6,11.4c-3.5,4.6-0.6,8.3,6.3,8.3c2.5,0,5.5,0,8.7,0V85H90h5.5v-0.3C98.7,84.7,101.8,84.7,104.3,84.7z"></path>
	<path d="M56.5,29.1c3.4-0.6,4.5-2.8,2.5-5.5c-1.9-2.4-4.6-6.1-6.9-9.1c0.1,0,0.1,0,0.2,0c3.4,0,4.8-1.8,3.1-4.1
		c-1.7-2.2-4.4-5.9-6.1-8.1c-1.7-2.2-4.4-2.2-6.1,0c-1.7,2.2-4.4,5.9-6.1,8.1c-1.7,2.2-0.3,4.1,3.1,4.1c0.1,0,0.1,0,0.2,0
		c-2.2,3-5,6.6-6.9,9.1c-2,2.7-0.9,4.9,2.5,5.5c-3,3.9-6.3,8.3-8.6,11.4c-3.5,4.6-0.6,8.3,6.3,8.3c2.5,0,5.5,0,8.7,0v4.7
		c0,1.7-0.1,3,3,3h1.8c2.9,0,3-1.3,3-3v-4.7c3.2,0,6.2,0,8.7,0c6.9,0,9.8-3.8,6.3-8.3C62.8,37.4,59.5,33,56.5,29.1z"></path>
	<path d="M146.8,28.9c3.4-0.6,4.5-2.8,2.5-5.5c-1.9-2.4-4.6-6.1-6.9-9.1c0.1,0,0.1,0,0.2,0c3.4,0,4.8-1.8,3.1-4.1
		c-1.7-2.2-4.4-5.9-6.1-8.1c-1.7-2.2-4.4-2.2-6.1,0c-1.7,2.2-4.4,5.9-6.1,8.1c-1.7,2.2-0.3,4.1,3.1,4.1c0.1,0,0.1,0,0.2,0
		c-2.2,3-5,6.6-6.9,9.1c-2,2.7-0.9,4.9,2.5,5.5c-3,3.9-6.3,8.3-8.6,11.4c-3.5,4.6-0.6,8.3,6.3,8.3c2.5,0,5.5,0,8.7,0v4.7
		c0,1.7-0.1,3,3,3h1.8c2.9,0,3-1.3,3-3v-4.7c3.2,0,6.2,0,8.7,0c6.9,0,9.8-3.8,6.3-8.3C153.1,37.2,149.8,32.8,146.8,28.9z"></path>
</g></g></pattern></defs><rect width="100%" height="100%" id="RctSolidBackground1" fill="url(#pattern-349-layer-1)"></rect></svg>